G04 #@! TF.GenerationSoftware,KiCad,Pcbnew,10.0.0*
G04 #@! TF.CreationDate,2026-07-03T22:35:27-05:00*
G04 #@! TF.ProjectId,R-007 ACELEROGRAFO ADXL355 V5,522d3030-3720-4414-9345-4c45524f4752,rev?*
G04 #@! TF.SameCoordinates,Original*
G04 #@! TF.FileFunction,Paste,Top*
G04 #@! TF.FilePolarity,Positive*
%FSLAX46Y46*%
G04 Gerber Fmt 4.6, Leading zero omitted, Abs format (unit mm)*
G04 Created by KiCad (PCBNEW 10.0.0) date 2026-07-03 22:35:27*
%MOMM*%
%LPD*%
G01*
G04 APERTURE LIST*
G04 Aperture macros list*
%AMRoundRect*
0 Rectangle with rounded corners*
0 $1 Rounding radius*
0 $2 $3 $4 $5 $6 $7 $8 $9 X,Y pos of 4 corners*
0 Add a 4 corners polygon primitive as box body*
4,1,4,$2,$3,$4,$5,$6,$7,$8,$9,$2,$3,0*
0 Add four circle primitives for the rounded corners*
1,1,$1+$1,$2,$3*
1,1,$1+$1,$4,$5*
1,1,$1+$1,$6,$7*
1,1,$1+$1,$8,$9*
0 Add four rect primitives between the rounded corners*
20,1,$1+$1,$2,$3,$4,$5,0*
20,1,$1+$1,$4,$5,$6,$7,0*
20,1,$1+$1,$6,$7,$8,$9,0*
20,1,$1+$1,$8,$9,$2,$3,0*%
G04 Aperture macros list end*
%ADD10RoundRect,0.140000X-0.140000X-0.170000X0.140000X-0.170000X0.140000X0.170000X-0.140000X0.170000X0*%
%ADD11RoundRect,0.140000X-0.170000X0.140000X-0.170000X-0.140000X0.170000X-0.140000X0.170000X0.140000X0*%
%ADD12R,1.700000X1.300000*%
%ADD13R,5.700000X5.500000*%
%ADD14R,3.000000X1.000000*%
%ADD15R,3.000000X3.400000*%
%ADD16R,1.500000X0.600000*%
%ADD17R,2.260000X1.600000*%
%ADD18R,1.600000X1.600000*%
%ADD19R,1.600000X1.400000*%
G04 APERTURE END LIST*
D10*
G04 #@! TO.C,C5*
X62032000Y50052700D03*
X62992000Y50052700D03*
G04 #@! TD*
D11*
G04 #@! TO.C,C10*
X77244000Y19502000D03*
X77244000Y18542000D03*
G04 #@! TD*
G04 #@! TO.C,C9*
X62226210Y14478000D03*
X62226210Y13518000D03*
G04 #@! TD*
G04 #@! TO.C,C16*
X57167100Y14478000D03*
X57167100Y13518000D03*
G04 #@! TD*
G04 #@! TO.C,C7*
X84344240Y14478000D03*
X84344240Y13518000D03*
G04 #@! TD*
G04 #@! TO.C,C4*
X89637600Y14478000D03*
X89637600Y13518000D03*
G04 #@! TD*
G04 #@! TO.C,C13*
X73152000Y14478000D03*
X73152000Y13518000D03*
G04 #@! TD*
G04 #@! TO.C,C2*
X73743340Y61977290D03*
X73743340Y61017290D03*
G04 #@! TD*
G04 #@! TO.C,C8*
X67564000Y14478000D03*
X67564000Y13518000D03*
G04 #@! TD*
D10*
G04 #@! TO.C,C6*
X62004000Y44491080D03*
X62964000Y44491080D03*
G04 #@! TD*
D11*
G04 #@! TO.C,C11*
X78637380Y14478000D03*
X78637380Y13518000D03*
G04 #@! TD*
D12*
G04 #@! TO.C,U2*
X48931580Y58772500D03*
X48931580Y54202530D03*
D13*
X55371590Y56487520D03*
G04 #@! TD*
D14*
G04 #@! TO.C,U3*
X49327610Y44905930D03*
X49327610Y49505920D03*
D15*
X55727600Y47205950D03*
D14*
X49327610Y47205950D03*
G04 #@! TD*
D16*
G04 #@! TO.C,J1*
X50254460Y17834660D03*
X50254460Y18934680D03*
X50254460Y20034660D03*
X50254460Y21134680D03*
X50254460Y22234650D03*
X50254460Y23334680D03*
X50254460Y24434650D03*
X50254460Y25534670D03*
X50254460Y26634640D03*
D17*
X39754510Y12084660D03*
D18*
X49254460Y12984680D03*
D17*
X39754510Y28084680D03*
D19*
X49254460Y28134670D03*
G04 #@! TD*
M02*
