G04 #@! TF.GenerationSoftware,KiCad,Pcbnew,10.0.0*
G04 #@! TF.CreationDate,2026-07-03T22:35:27-05:00*
G04 #@! TF.ProjectId,R-007 ACELEROGRAFO ADXL355 V5,522d3030-3720-4414-9345-4c45524f4752,rev?*
G04 #@! TF.SameCoordinates,Original*
G04 #@! TF.FileFunction,Soldermask,Bot*
G04 #@! TF.FilePolarity,Negative*
%FSLAX46Y46*%
G04 Gerber Fmt 4.6, Leading zero omitted, Abs format (unit mm)*
G04 Created by KiCad (PCBNEW 10.0.0) date 2026-07-03 22:35:27*
%MOMM*%
%LPD*%
G01*
G04 APERTURE LIST*
G04 Aperture macros list*
%AMRoundRect*
0 Rectangle with rounded corners*
0 $1 Rounding radius*
0 $2 $3 $4 $5 $6 $7 $8 $9 X,Y pos of 4 corners*
0 Add a 4 corners polygon primitive as box body*
4,1,4,$2,$3,$4,$5,$6,$7,$8,$9,$2,$3,0*
0 Add four circle primitives for the rounded corners*
1,1,$1+$1,$2,$3*
1,1,$1+$1,$4,$5*
1,1,$1+$1,$6,$7*
1,1,$1+$1,$8,$9*
0 Add four rect primitives between the rounded corners*
20,1,$1+$1,$2,$3,$4,$5,0*
20,1,$1+$1,$4,$5,$6,$7,0*
20,1,$1+$1,$6,$7,$8,$9,0*
20,1,$1+$1,$8,$9,$2,$3,0*%
G04 Aperture macros list end*
%ADD10RoundRect,0.101600X-0.900000X-0.900000X0.900000X-0.900000X0.900000X0.900000X-0.900000X0.900000X0*%
%ADD11C,2.003200*%
%ADD12C,1.703200*%
%ADD13RoundRect,0.101600X-0.900000X0.900000X-0.900000X-0.900000X0.900000X-0.900000X0.900000X0.900000X0*%
%ADD14O,1.403200X2.003200*%
%ADD15O,1.203200X2.003200*%
%ADD16RoundRect,0.101600X-0.850000X-0.850000X0.850000X-0.850000X0.850000X0.850000X-0.850000X0.850000X0*%
%ADD17C,1.903200*%
%ADD18C,3.353200*%
%ADD19RoundRect,0.101600X0.900000X-0.900000X0.900000X0.900000X-0.900000X0.900000X-0.900000X-0.900000X0*%
%ADD20O,2.103200X2.203200*%
%ADD21C,1.003200*%
%ADD22RoundRect,0.101600X0.900000X0.900000X-0.900000X0.900000X-0.900000X-0.900000X0.900000X-0.900000X0*%
%ADD23C,1.270000*%
%ADD24RoundRect,0.101600X1.000000X-0.750000X1.000000X0.750000X-1.000000X0.750000X-1.000000X-0.750000X0*%
%ADD25O,2.203200X1.703200*%
%ADD26C,0.001000*%
G04 APERTURE END LIST*
D10*
G04 #@! TO.C,U9*
X80388710Y51275690D03*
D11*
X80388710Y48735690D03*
X80388710Y46195690D03*
X80388710Y43655690D03*
X88008710Y43655690D03*
X88008710Y46195690D03*
X88008710Y48735690D03*
X88008710Y51275690D03*
G04 #@! TD*
D12*
G04 #@! TO.C,R1*
X96537630Y66435780D03*
X96537630Y58815780D03*
G04 #@! TD*
D13*
G04 #@! TO.C,U1*
X95609310Y31840580D03*
D11*
X93069310Y31840580D03*
X90529310Y31840580D03*
X87989310Y31840580D03*
X85449310Y31840580D03*
X82909310Y31840580D03*
X80369310Y31840580D03*
D14*
X77829310Y31840580D03*
D11*
X75289310Y31840580D03*
X72749310Y31840580D03*
X70209310Y31840580D03*
X67669310Y31840580D03*
X65129310Y31840580D03*
X62589310Y31840580D03*
D15*
X62589310Y24220580D03*
X65129310Y24220580D03*
D11*
X67669310Y24220580D03*
X70209310Y24220580D03*
X72749310Y24220580D03*
D15*
X75289310Y24220580D03*
X77829310Y24220580D03*
D11*
X80369310Y24220580D03*
X82909310Y24220580D03*
X85449310Y24220580D03*
X87989310Y24220580D03*
X90529310Y24220580D03*
X93069310Y24220580D03*
X95609310Y24220580D03*
G04 #@! TD*
D16*
G04 #@! TO.C,U5*
X80263700Y67353180D03*
D17*
X80263700Y64813180D03*
X80263700Y62273180D03*
X80263700Y59733180D03*
X87883700Y59733180D03*
X87883700Y62273180D03*
X87883700Y64813180D03*
X87883700Y67353180D03*
G04 #@! TD*
D11*
G04 #@! TO.C,R14*
X92887390Y51585720D03*
X92887390Y43965720D03*
G04 #@! TD*
D18*
G04 #@! TO.C,*
X59560000Y66748000D03*
G04 #@! TD*
D19*
G04 #@! TO.C,C3*
X73743360Y44999100D03*
D11*
X73743360Y48499070D03*
G04 #@! TD*
D12*
G04 #@! TO.C,R2*
X92270170Y59974790D03*
X92270170Y67594790D03*
G04 #@! TD*
G04 #@! TO.C,R4*
X87219280Y38608790D03*
X79599280Y38608790D03*
G04 #@! TD*
D18*
G04 #@! TO.C,*
X117632430Y9348010D03*
G04 #@! TD*
D20*
G04 #@! TO.C,VR1*
X64960650Y67274290D03*
X67500650Y67274290D03*
X70040650Y67274290D03*
G04 #@! TD*
D21*
G04 #@! TO.C,J1*
X39354510Y17034660D03*
X39354510Y25034650D03*
G04 #@! TD*
D11*
G04 #@! TO.C,R3*
X40000020Y37998450D03*
X47620020Y37998450D03*
G04 #@! TD*
D18*
G04 #@! TO.C,*
X37792860Y9024770D03*
G04 #@! TD*
D22*
G04 #@! TO.C,D3*
X59737080Y38608790D03*
D11*
X57197080Y38608790D03*
G04 #@! TD*
D23*
G04 #@! TO.C,J3*
X106561840Y38708890D03*
X104021840Y39978890D03*
X106561840Y41248890D03*
X104021840Y42518890D03*
X106561840Y43788890D03*
X104021840Y45058890D03*
X106561840Y46328890D03*
X104021840Y47598890D03*
G04 #@! TD*
G04 #@! TO.C,J2*
X106561840Y59055000D03*
X104021840Y60325000D03*
X106561840Y61595000D03*
X104021840Y62865000D03*
X106561840Y64135000D03*
X104021840Y65405000D03*
X106561840Y66675000D03*
X104021840Y67945000D03*
G04 #@! TD*
D11*
G04 #@! TO.C,R6*
X73025000Y40986460D03*
X65405000Y40986460D03*
G04 #@! TD*
D24*
G04 #@! TO.C,P1*
X39961160Y46665690D03*
D25*
X39961160Y49205690D03*
X39961160Y51745690D03*
X39961160Y54285690D03*
X39961160Y56825690D03*
X39961160Y59365690D03*
G04 #@! TD*
D13*
G04 #@! TO.C,C1*
X65384020Y59987540D03*
D11*
X65384020Y56487520D03*
G04 #@! TD*
G04 #@! TO.C,D1*
X39526210Y35012780D03*
D10*
X46626220Y35012780D03*
G04 #@! TD*
D26*
G04 #@! TO.C,U4*
X102911860Y14278200D03*
D18*
X116911830Y14278200D03*
D26*
X102911860Y29028190D03*
D18*
X116911830Y29028190D03*
D17*
X107371850Y15173200D03*
X109911850Y15173200D03*
X112451850Y15173200D03*
X107371850Y12633200D03*
X109911850Y12633200D03*
X112451850Y12633200D03*
X107371850Y30673190D03*
X109911850Y30673190D03*
X112451850Y30673190D03*
X107371850Y28133190D03*
X109911850Y28133190D03*
X112451850Y28133190D03*
G04 #@! TD*
D11*
G04 #@! TO.C,R13*
X97195950Y44638110D03*
X97195950Y52258110D03*
G04 #@! TD*
M02*
