G04 #@! TF.GenerationSoftware,KiCad,Pcbnew,10.0.0*
G04 #@! TF.CreationDate,2026-07-03T22:35:27-05:00*
G04 #@! TF.ProjectId,R-007 ACELEROGRAFO ADXL355 V5,522d3030-3720-4414-9345-4c45524f4752,rev?*
G04 #@! TF.SameCoordinates,Original*
G04 #@! TF.FileFunction,Soldermask,Top*
G04 #@! TF.FilePolarity,Negative*
%FSLAX46Y46*%
G04 Gerber Fmt 4.6, Leading zero omitted, Abs format (unit mm)*
G04 Created by KiCad (PCBNEW 10.0.0) date 2026-07-03 22:35:27*
%MOMM*%
%LPD*%
G01*
G04 APERTURE LIST*
G04 Aperture macros list*
%AMRoundRect*
0 Rectangle with rounded corners*
0 $1 Rounding radius*
0 $2 $3 $4 $5 $6 $7 $8 $9 X,Y pos of 4 corners*
0 Add a 4 corners polygon primitive as box body*
4,1,4,$2,$3,$4,$5,$6,$7,$8,$9,$2,$3,0*
0 Add four circle primitives for the rounded corners*
1,1,$1+$1,$2,$3*
1,1,$1+$1,$4,$5*
1,1,$1+$1,$6,$7*
1,1,$1+$1,$8,$9*
0 Add four rect primitives between the rounded corners*
20,1,$1+$1,$2,$3,$4,$5,0*
20,1,$1+$1,$4,$5,$6,$7,0*
20,1,$1+$1,$6,$7,$8,$9,0*
20,1,$1+$1,$8,$9,$2,$3,0*%
G04 Aperture macros list end*
%ADD10RoundRect,0.190800X-0.190800X-0.220800X0.190800X-0.220800X0.190800X0.220800X-0.190800X0.220800X0*%
%ADD11RoundRect,0.190800X-0.220800X0.190800X-0.220800X-0.190800X0.220800X-0.190800X0.220800X0.190800X0*%
%ADD12RoundRect,0.050800X0.850000X-0.650000X0.850000X0.650000X-0.850000X0.650000X-0.850000X-0.650000X0*%
%ADD13RoundRect,0.050800X2.850000X-2.750000X2.850000X2.750000X-2.850000X2.750000X-2.850000X-2.750000X0*%
%ADD14RoundRect,0.101600X-0.900000X-0.900000X0.900000X-0.900000X0.900000X0.900000X-0.900000X0.900000X0*%
%ADD15C,2.003200*%
%ADD16C,1.703200*%
%ADD17RoundRect,0.101600X-0.900000X0.900000X-0.900000X-0.900000X0.900000X-0.900000X0.900000X0.900000X0*%
%ADD18O,1.403200X2.003200*%
%ADD19O,1.203200X2.003200*%
%ADD20RoundRect,0.101600X-0.850000X-0.850000X0.850000X-0.850000X0.850000X0.850000X-0.850000X0.850000X0*%
%ADD21C,1.903200*%
%ADD22C,3.353200*%
%ADD23RoundRect,0.101600X1.500000X-0.500000X1.500000X0.500000X-1.500000X0.500000X-1.500000X-0.500000X0*%
%ADD24RoundRect,0.101600X1.500000X-1.700000X1.500000X1.700000X-1.500000X1.700000X-1.500000X-1.700000X0*%
%ADD25RoundRect,0.101600X0.900000X-0.900000X0.900000X0.900000X-0.900000X0.900000X-0.900000X-0.900000X0*%
%ADD26O,2.103200X2.203200*%
%ADD27C,1.003200*%
%ADD28RoundRect,0.101600X0.750000X-0.300000X0.750000X0.300000X-0.750000X0.300000X-0.750000X-0.300000X0*%
%ADD29RoundRect,0.101600X-1.130000X0.800000X-1.130000X-0.800000X1.130000X-0.800000X1.130000X0.800000X0*%
%ADD30RoundRect,0.101600X0.800000X-0.800000X0.800000X0.800000X-0.800000X0.800000X-0.800000X-0.800000X0*%
%ADD31RoundRect,0.101600X0.800000X-0.700000X0.800000X0.700000X-0.800000X0.700000X-0.800000X-0.700000X0*%
%ADD32RoundRect,0.101600X0.900000X0.900000X-0.900000X0.900000X-0.900000X-0.900000X0.900000X-0.900000X0*%
%ADD33C,1.270000*%
%ADD34RoundRect,0.101600X1.000000X-0.750000X1.000000X0.750000X-1.000000X0.750000X-1.000000X-0.750000X0*%
%ADD35O,2.203200X1.703200*%
%ADD36C,0.001000*%
G04 APERTURE END LIST*
D10*
G04 #@! TO.C,C5*
X62032000Y50052700D03*
X62992000Y50052700D03*
G04 #@! TD*
D11*
G04 #@! TO.C,C10*
X77244000Y19502000D03*
X77244000Y18542000D03*
G04 #@! TD*
G04 #@! TO.C,C9*
X62226210Y14478000D03*
X62226210Y13518000D03*
G04 #@! TD*
G04 #@! TO.C,C16*
X57167100Y14478000D03*
X57167100Y13518000D03*
G04 #@! TD*
G04 #@! TO.C,C7*
X84344240Y14478000D03*
X84344240Y13518000D03*
G04 #@! TD*
G04 #@! TO.C,C4*
X89637600Y14478000D03*
X89637600Y13518000D03*
G04 #@! TD*
G04 #@! TO.C,C13*
X73152000Y14478000D03*
X73152000Y13518000D03*
G04 #@! TD*
G04 #@! TO.C,C2*
X73743340Y61977290D03*
X73743340Y61017290D03*
G04 #@! TD*
G04 #@! TO.C,C8*
X67564000Y14478000D03*
X67564000Y13518000D03*
G04 #@! TD*
D10*
G04 #@! TO.C,C6*
X62004000Y44491080D03*
X62964000Y44491080D03*
G04 #@! TD*
D11*
G04 #@! TO.C,C11*
X78637380Y14478000D03*
X78637380Y13518000D03*
G04 #@! TD*
D12*
G04 #@! TO.C,U2*
X48931580Y58772500D03*
X48931580Y54202530D03*
D13*
X55371590Y56487520D03*
G04 #@! TD*
D14*
G04 #@! TO.C,U9*
X80388710Y51275690D03*
D15*
X80388710Y48735690D03*
X80388710Y46195690D03*
X80388710Y43655690D03*
X88008710Y43655690D03*
X88008710Y46195690D03*
X88008710Y48735690D03*
X88008710Y51275690D03*
G04 #@! TD*
D16*
G04 #@! TO.C,R1*
X96537630Y66435780D03*
X96537630Y58815780D03*
G04 #@! TD*
D17*
G04 #@! TO.C,U1*
X95609310Y31840580D03*
D15*
X93069310Y31840580D03*
X90529310Y31840580D03*
X87989310Y31840580D03*
X85449310Y31840580D03*
X82909310Y31840580D03*
X80369310Y31840580D03*
D18*
X77829310Y31840580D03*
D15*
X75289310Y31840580D03*
X72749310Y31840580D03*
X70209310Y31840580D03*
X67669310Y31840580D03*
X65129310Y31840580D03*
X62589310Y31840580D03*
D19*
X62589310Y24220580D03*
X65129310Y24220580D03*
D15*
X67669310Y24220580D03*
X70209310Y24220580D03*
X72749310Y24220580D03*
D19*
X75289310Y24220580D03*
X77829310Y24220580D03*
D15*
X80369310Y24220580D03*
X82909310Y24220580D03*
X85449310Y24220580D03*
X87989310Y24220580D03*
X90529310Y24220580D03*
X93069310Y24220580D03*
X95609310Y24220580D03*
G04 #@! TD*
D20*
G04 #@! TO.C,U5*
X80263700Y67353180D03*
D21*
X80263700Y64813180D03*
X80263700Y62273180D03*
X80263700Y59733180D03*
X87883700Y59733180D03*
X87883700Y62273180D03*
X87883700Y64813180D03*
X87883700Y67353180D03*
G04 #@! TD*
D15*
G04 #@! TO.C,R14*
X92887390Y51585720D03*
X92887390Y43965720D03*
G04 #@! TD*
D22*
G04 #@! TO.C,*
X59560000Y66748000D03*
G04 #@! TD*
D23*
G04 #@! TO.C,U3*
X49327610Y44905930D03*
X49327610Y49505920D03*
D24*
X55727600Y47205950D03*
D23*
X49327610Y47205950D03*
G04 #@! TD*
D25*
G04 #@! TO.C,C3*
X73743360Y44999100D03*
D15*
X73743360Y48499070D03*
G04 #@! TD*
D16*
G04 #@! TO.C,R2*
X92270170Y59974790D03*
X92270170Y67594790D03*
G04 #@! TD*
G04 #@! TO.C,R4*
X87219280Y38608790D03*
X79599280Y38608790D03*
G04 #@! TD*
D22*
G04 #@! TO.C,*
X117632430Y9348010D03*
G04 #@! TD*
D26*
G04 #@! TO.C,VR1*
X64960650Y67274290D03*
X67500650Y67274290D03*
X70040650Y67274290D03*
G04 #@! TD*
D27*
G04 #@! TO.C,J1*
X39354510Y17034660D03*
X39354510Y25034650D03*
D28*
X50254460Y17834660D03*
X50254460Y18934680D03*
X50254460Y20034660D03*
X50254460Y21134680D03*
X50254460Y22234650D03*
X50254460Y23334680D03*
X50254460Y24434650D03*
X50254460Y25534670D03*
X50254460Y26634640D03*
D29*
X39754510Y12084660D03*
D30*
X49254460Y12984680D03*
D29*
X39754510Y28084680D03*
D31*
X49254460Y28134670D03*
G04 #@! TD*
D15*
G04 #@! TO.C,R3*
X40000020Y37998450D03*
X47620020Y37998450D03*
G04 #@! TD*
D22*
G04 #@! TO.C,*
X37792860Y9024770D03*
G04 #@! TD*
D32*
G04 #@! TO.C,D3*
X59737080Y38608790D03*
D15*
X57197080Y38608790D03*
G04 #@! TD*
D33*
G04 #@! TO.C,J3*
X106561840Y38708890D03*
X104021840Y39978890D03*
X106561840Y41248890D03*
X104021840Y42518890D03*
X106561840Y43788890D03*
X104021840Y45058890D03*
X106561840Y46328890D03*
X104021840Y47598890D03*
G04 #@! TD*
G04 #@! TO.C,J2*
X106561840Y59055000D03*
X104021840Y60325000D03*
X106561840Y61595000D03*
X104021840Y62865000D03*
X106561840Y64135000D03*
X104021840Y65405000D03*
X106561840Y66675000D03*
X104021840Y67945000D03*
G04 #@! TD*
D15*
G04 #@! TO.C,R6*
X73025000Y40986460D03*
X65405000Y40986460D03*
G04 #@! TD*
D34*
G04 #@! TO.C,P1*
X39961160Y46665690D03*
D35*
X39961160Y49205690D03*
X39961160Y51745690D03*
X39961160Y54285690D03*
X39961160Y56825690D03*
X39961160Y59365690D03*
G04 #@! TD*
D17*
G04 #@! TO.C,C1*
X65384020Y59987540D03*
D15*
X65384020Y56487520D03*
G04 #@! TD*
G04 #@! TO.C,D1*
X39526210Y35012780D03*
D14*
X46626220Y35012780D03*
G04 #@! TD*
D36*
G04 #@! TO.C,U4*
X102911860Y14278200D03*
D22*
X116911830Y14278200D03*
D36*
X102911860Y29028190D03*
D22*
X116911830Y29028190D03*
D21*
X107371850Y15173200D03*
X109911850Y15173200D03*
X112451850Y15173200D03*
X107371850Y12633200D03*
X109911850Y12633200D03*
X112451850Y12633200D03*
X107371850Y30673190D03*
X109911850Y30673190D03*
X112451850Y30673190D03*
X107371850Y28133190D03*
X109911850Y28133190D03*
X112451850Y28133190D03*
G04 #@! TD*
D15*
G04 #@! TO.C,R13*
X97195950Y44638110D03*
X97195950Y52258110D03*
G04 #@! TD*
M02*
