G04 #@! TF.GenerationSoftware,KiCad,Pcbnew,10.0.0*
G04 #@! TF.CreationDate,2026-07-03T22:35:27-05:00*
G04 #@! TF.ProjectId,R-007 ACELEROGRAFO ADXL355 V5,522d3030-3720-4414-9345-4c45524f4752,rev?*
G04 #@! TF.SameCoordinates,Original*
G04 #@! TF.FileFunction,Copper,L2,Bot*
G04 #@! TF.FilePolarity,Positive*
%FSLAX46Y46*%
G04 Gerber Fmt 4.6, Leading zero omitted, Abs format (unit mm)*
G04 Created by KiCad (PCBNEW 10.0.0) date 2026-07-03 22:35:27*
%MOMM*%
%LPD*%
G01*
G04 APERTURE LIST*
G04 #@! TA.AperFunction,ComponentPad*
%ADD10R,1.800000X1.800000*%
G04 #@! TD*
G04 #@! TA.AperFunction,ComponentPad*
%ADD11C,1.800000*%
G04 #@! TD*
G04 #@! TA.AperFunction,ComponentPad*
%ADD12C,1.500000*%
G04 #@! TD*
G04 #@! TA.AperFunction,ComponentPad*
%ADD13O,1.200000X1.800000*%
G04 #@! TD*
G04 #@! TA.AperFunction,ComponentPad*
%ADD14O,1.000000X1.800000*%
G04 #@! TD*
G04 #@! TA.AperFunction,ComponentPad*
%ADD15R,1.700000X1.700000*%
G04 #@! TD*
G04 #@! TA.AperFunction,ComponentPad*
%ADD16C,1.700000*%
G04 #@! TD*
G04 #@! TA.AperFunction,ComponentPad*
%ADD17C,3.150000*%
G04 #@! TD*
G04 #@! TA.AperFunction,ComponentPad*
%ADD18O,1.900000X2.000000*%
G04 #@! TD*
G04 #@! TA.AperFunction,ComponentPad*
%ADD19C,0.800000*%
G04 #@! TD*
G04 #@! TA.AperFunction,ComponentPad*
%ADD20C,1.270000*%
G04 #@! TD*
G04 #@! TA.AperFunction,ComponentPad*
%ADD21C,3.810000*%
G04 #@! TD*
G04 #@! TA.AperFunction,ComponentPad*
%ADD22R,2.000000X1.500000*%
G04 #@! TD*
G04 #@! TA.AperFunction,ComponentPad*
%ADD23O,2.000000X1.500000*%
G04 #@! TD*
G04 #@! TA.AperFunction,SMDPad,CuDef*
%ADD24C,0.001000*%
G04 #@! TD*
G04 #@! TA.AperFunction,ViaPad*
%ADD25C,1.600000*%
G04 #@! TD*
G04 #@! TA.AperFunction,Conductor*
%ADD26C,0.600000*%
G04 #@! TD*
G04 APERTURE END LIST*
D10*
G04 #@! TO.P,U9,1*
G04 #@! TO.N,DSPIC_RX*
X80388710Y51275690D03*
D11*
G04 #@! TO.P,U9,2*
G04 #@! TO.N,MAX485_MS*
X80388710Y48735690D03*
G04 #@! TO.P,U9,3*
X80388710Y46195690D03*
G04 #@! TO.P,U9,4*
G04 #@! TO.N,DSPIC_TX*
X80388710Y43655690D03*
G04 #@! TO.P,U9,5*
G04 #@! TO.N,GND*
X88008710Y43655690D03*
G04 #@! TO.P,U9,6*
G04 #@! TO.N,A*
X88008710Y46195690D03*
G04 #@! TO.P,U9,7*
G04 #@! TO.N,B*
X88008710Y48735690D03*
G04 #@! TO.P,U9,8*
G04 #@! TO.N,5V*
X88008710Y51275690D03*
G04 #@! TD*
D12*
G04 #@! TO.P,R1,1*
G04 #@! TO.N,SINC_B*
X96537630Y66435780D03*
G04 #@! TO.P,R1,2*
G04 #@! TO.N,GND*
X96537630Y58815780D03*
G04 #@! TD*
D10*
G04 #@! TO.P,U1,1*
G04 #@! TO.N,MCLR*
X95609310Y31840580D03*
D11*
G04 #@! TO.P,U1,2*
G04 #@! TO.N,N/C*
X93069310Y31840580D03*
G04 #@! TO.P,U1,3*
X90529310Y31840580D03*
G04 #@! TO.P,U1,4*
G04 #@! TO.N,SPI1_DSPIC_SS*
X87989310Y31840580D03*
G04 #@! TO.P,U1,5*
G04 #@! TO.N,SPI2_MISO*
X85449310Y31840580D03*
G04 #@! TO.P,U1,6*
G04 #@! TO.N,_PGEC1*
X82909310Y31840580D03*
G04 #@! TO.P,U1,7*
G04 #@! TO.N,_PGED1*
X80369310Y31840580D03*
D13*
G04 #@! TO.P,U1,8*
G04 #@! TO.N,GND*
X77829310Y31840580D03*
D11*
G04 #@! TO.P,U1,9*
G04 #@! TO.N,TEST1*
X75289310Y31840580D03*
G04 #@! TO.P,U1,10*
G04 #@! TO.N,SPI2_ADXL355Z_CS*
X72749310Y31840580D03*
G04 #@! TO.P,U1,11*
G04 #@! TO.N,DSPIC_TX*
X70209310Y31840580D03*
G04 #@! TO.P,U1,12*
G04 #@! TO.N,CONSD*
X67669310Y31840580D03*
G04 #@! TO.P,U1,13*
G04 #@! TO.N,VCC*
X65129310Y31840580D03*
G04 #@! TO.P,U1,14*
G04 #@! TO.N,SPI2_SCK*
X62589310Y31840580D03*
D14*
G04 #@! TO.P,U1,15*
G04 #@! TO.N,SPI2_MOSI*
X62589310Y24220580D03*
G04 #@! TO.P,U1,16*
G04 #@! TO.N,SPI1_SCK*
X65129310Y24220580D03*
D11*
G04 #@! TO.P,U1,17*
G04 #@! TO.N,SPI1_MOSI*
X67669310Y24220580D03*
G04 #@! TO.P,U1,18*
G04 #@! TO.N,SPI1_MISO*
X70209310Y24220580D03*
G04 #@! TO.P,U1,19*
G04 #@! TO.N,GND*
X72749310Y24220580D03*
D14*
G04 #@! TO.P,U1,20*
G04 #@! TO.N,NetC10_1*
X75289310Y24220580D03*
G04 #@! TO.P,U1,21*
G04 #@! TO.N,ADXL_INT1*
X77829310Y24220580D03*
D11*
G04 #@! TO.P,U1,22*
G04 #@! TO.N,ADXL_INT2*
X80369310Y24220580D03*
G04 #@! TO.P,U1,23*
G04 #@! TO.N,MAX485_MS*
X82909310Y24220580D03*
G04 #@! TO.P,U1,24*
G04 #@! TO.N,ADXL_DRDY*
X85449310Y24220580D03*
G04 #@! TO.P,U1,25*
G04 #@! TO.N,INT_SINC*
X87989310Y24220580D03*
G04 #@! TO.P,U1,26*
G04 #@! TO.N,DSPIC_RX*
X90529310Y24220580D03*
G04 #@! TO.P,U1,27*
G04 #@! TO.N,GND*
X93069310Y24220580D03*
G04 #@! TO.P,U1,28*
G04 #@! TO.N,VCC*
X95609310Y24220580D03*
G04 #@! TD*
D15*
G04 #@! TO.P,U5,1*
G04 #@! TO.N,INT_SINC*
X80263700Y67353180D03*
D16*
G04 #@! TO.P,U5,2*
G04 #@! TO.N,GND*
X80263700Y64813180D03*
G04 #@! TO.P,U5,3*
X80263700Y62273180D03*
G04 #@! TO.P,U5,4*
G04 #@! TO.N,N/C*
X80263700Y59733180D03*
G04 #@! TO.P,U5,5*
G04 #@! TO.N,GND*
X87883700Y59733180D03*
G04 #@! TO.P,U5,6*
G04 #@! TO.N,SINC_A*
X87883700Y62273180D03*
G04 #@! TO.P,U5,7*
G04 #@! TO.N,SINC_B*
X87883700Y64813180D03*
G04 #@! TO.P,U5,8*
G04 #@! TO.N,5V*
X87883700Y67353180D03*
G04 #@! TD*
D11*
G04 #@! TO.P,R14,1*
G04 #@! TO.N,B*
X92887390Y51585720D03*
G04 #@! TO.P,R14,2*
G04 #@! TO.N,GND*
X92887390Y43965720D03*
G04 #@! TD*
D17*
G04 #@! TO.P,,*
G04 #@! TO.N,*
X59560000Y66748000D03*
G04 #@! TD*
D10*
G04 #@! TO.P,C3,1*
G04 #@! TO.N,5V*
X73743360Y44999100D03*
D11*
G04 #@! TO.P,C3,2*
G04 #@! TO.N,GND*
X73743360Y48499070D03*
G04 #@! TD*
D12*
G04 #@! TO.P,R2,1*
G04 #@! TO.N,SINC_A*
X92270170Y59974790D03*
G04 #@! TO.P,R2,2*
G04 #@! TO.N,5V*
X92270170Y67594790D03*
G04 #@! TD*
G04 #@! TO.P,R4,1*
G04 #@! TO.N,VCC*
X87219280Y38608790D03*
G04 #@! TO.P,R4,2*
G04 #@! TO.N,CONSD*
X79599280Y38608790D03*
G04 #@! TD*
D17*
G04 #@! TO.P,,*
G04 #@! TO.N,*
X117632430Y9348010D03*
G04 #@! TD*
D18*
G04 #@! TO.P,VR1,1*
G04 #@! TO.N,FUENTE_12V*
X64960650Y67274290D03*
G04 #@! TO.P,VR1,2*
G04 #@! TO.N,GND*
X67500650Y67274290D03*
G04 #@! TO.P,VR1,3*
G04 #@! TO.N,5V*
X70040650Y67274290D03*
G04 #@! TD*
D19*
G04 #@! TO.P,J1,*
G04 #@! TO.N,*
X39354510Y17034660D03*
X39354510Y25034650D03*
G04 #@! TD*
D11*
G04 #@! TO.P,R3,1*
G04 #@! TO.N,MCLR*
X40000020Y37998450D03*
G04 #@! TO.P,R3,2*
G04 #@! TO.N,NetD1_2*
X47620020Y37998450D03*
G04 #@! TD*
D17*
G04 #@! TO.P,,*
G04 #@! TO.N,*
X37792860Y9024770D03*
G04 #@! TD*
D10*
G04 #@! TO.P,D3,1*
G04 #@! TO.N,NetD3_1*
X59737080Y38608790D03*
D11*
G04 #@! TO.P,D3,2*
G04 #@! TO.N,GND*
X57197080Y38608790D03*
G04 #@! TD*
D20*
G04 #@! TO.P,J3,1*
G04 #@! TO.N,A*
X106561840Y38708890D03*
G04 #@! TO.P,J3,2*
G04 #@! TO.N,B*
X104021840Y39978890D03*
G04 #@! TO.P,J3,3*
G04 #@! TO.N,SINC_A*
X106561840Y41248890D03*
G04 #@! TO.P,J3,4*
G04 #@! TO.N,FUENTE_12V*
X104021840Y42518890D03*
G04 #@! TO.P,J3,5*
X106561840Y43788890D03*
G04 #@! TO.P,J3,6*
G04 #@! TO.N,SINC_B*
X104021840Y45058890D03*
G04 #@! TO.P,J3,7*
G04 #@! TO.N,GND*
X106561840Y46328890D03*
G04 #@! TO.P,J3,8*
X104021840Y47598890D03*
D21*
G04 #@! TO.P,J3,9*
G04 #@! TO.N,N/C*
X112911840Y37438890D03*
G04 #@! TO.P,J3,10*
X112911840Y48868890D03*
G04 #@! TD*
D20*
G04 #@! TO.P,J2,1*
G04 #@! TO.N,A*
X106561840Y59055000D03*
G04 #@! TO.P,J2,2*
G04 #@! TO.N,B*
X104021840Y60325000D03*
G04 #@! TO.P,J2,3*
G04 #@! TO.N,SINC_A*
X106561840Y61595000D03*
G04 #@! TO.P,J2,4*
G04 #@! TO.N,FUENTE_12V*
X104021840Y62865000D03*
G04 #@! TO.P,J2,5*
X106561840Y64135000D03*
G04 #@! TO.P,J2,6*
G04 #@! TO.N,SINC_B*
X104021840Y65405000D03*
G04 #@! TO.P,J2,7*
G04 #@! TO.N,GND*
X106561840Y66675000D03*
G04 #@! TO.P,J2,8*
X104021840Y67945000D03*
D21*
G04 #@! TO.P,J2,9*
G04 #@! TO.N,N/C*
X112911840Y57785000D03*
G04 #@! TO.P,J2,10*
X112911840Y69215000D03*
G04 #@! TD*
D11*
G04 #@! TO.P,R6,1*
G04 #@! TO.N,TEST1*
X73025000Y40986460D03*
G04 #@! TO.P,R6,2*
G04 #@! TO.N,NetD3_1*
X65405000Y40986460D03*
G04 #@! TD*
D22*
G04 #@! TO.P,P1,1*
G04 #@! TO.N,MCLR*
X39961160Y46665690D03*
D23*
G04 #@! TO.P,P1,2*
G04 #@! TO.N,VCC*
X39961160Y49205690D03*
G04 #@! TO.P,P1,3*
G04 #@! TO.N,GND*
X39961160Y51745690D03*
G04 #@! TO.P,P1,4*
G04 #@! TO.N,_PGED1*
X39961160Y54285690D03*
G04 #@! TO.P,P1,5*
G04 #@! TO.N,_PGEC1*
X39961160Y56825690D03*
G04 #@! TO.P,P1,6*
G04 #@! TO.N,N/C*
X39961160Y59365690D03*
G04 #@! TD*
D10*
G04 #@! TO.P,C1,1*
G04 #@! TO.N,FUENTE_12V*
X65384020Y59987540D03*
D11*
G04 #@! TO.P,C1,2*
G04 #@! TO.N,GND*
X65384020Y56487520D03*
G04 #@! TD*
G04 #@! TO.P,D1,1*
G04 #@! TO.N,VCC*
X39526210Y35012780D03*
D10*
G04 #@! TO.P,D1,2*
G04 #@! TO.N,NetD1_2*
X46626220Y35012780D03*
G04 #@! TD*
D24*
G04 #@! TO.P,U4,*
G04 #@! TO.N,*
X102911860Y14278200D03*
D17*
X116911830Y14278200D03*
D24*
X102911860Y29028190D03*
D17*
X116911830Y29028190D03*
D16*
G04 #@! TO.P,U4,1*
G04 #@! TO.N,ADXL_INT1*
X107371850Y15173200D03*
G04 #@! TO.P,U4,2*
G04 #@! TO.N,ADXL_INT2*
X109911850Y15173200D03*
G04 #@! TO.P,U4,3*
G04 #@! TO.N,ADXL_DRDY*
X112451850Y15173200D03*
G04 #@! TO.P,U4,4*
G04 #@! TO.N,VCC*
X107371850Y12633200D03*
G04 #@! TO.P,U4,5*
X109911850Y12633200D03*
G04 #@! TO.P,U4,6*
G04 #@! TO.N,GND*
X112451850Y12633200D03*
G04 #@! TO.P,U4,7*
G04 #@! TO.N,SPI2_ADXL355Z_CS*
X107371850Y30673190D03*
G04 #@! TO.P,U4,8*
G04 #@! TO.N,SPI2_SCK*
X109911850Y30673190D03*
G04 #@! TO.P,U4,9*
G04 #@! TO.N,SPI2_MOSI*
X112451850Y30673190D03*
G04 #@! TO.P,U4,10*
G04 #@! TO.N,N/C*
X107371850Y28133190D03*
G04 #@! TO.P,U4,11*
X109911850Y28133190D03*
G04 #@! TO.P,U4,12*
G04 #@! TO.N,SPI2_MISO*
X112451850Y28133190D03*
G04 #@! TD*
D11*
G04 #@! TO.P,R13,1*
G04 #@! TO.N,A*
X97195950Y44638110D03*
G04 #@! TO.P,R13,2*
G04 #@! TO.N,5V*
X97195950Y52258110D03*
G04 #@! TD*
D25*
G04 #@! TO.N,SINC_B*
X101043840Y42245690D03*
X94512690Y67594790D03*
G04 #@! TO.N,SINC_A*
X95159780Y47794980D03*
X92270170Y57889290D03*
G04 #@! TO.N,INT_SINC*
X83528100Y66164360D03*
X100973830Y20996150D03*
G04 #@! TO.N,VCC*
X51628410Y29158640D03*
X68891750Y19242410D03*
X90541400Y38708890D03*
X57447910Y24220580D03*
X102911860Y22697840D03*
X43269920Y49205690D03*
X61926530Y35339570D03*
X104736850Y15173200D03*
G04 #@! TO.N,B*
X101082550Y39751000D03*
X99473820Y53850540D03*
G04 #@! TO.N,SPI2_MOSI*
X106561840Y33938870D03*
X104045390Y26987200D03*
G04 #@! TO.N,SPI2_MISO*
X110098640Y25820570D03*
G04 #@! TO.N,CONSD*
X70358050Y38708890D03*
X65129310Y35339570D03*
G04 #@! TO.N,SPI1_SCK*
X57164210Y22148800D03*
G04 #@! TO.N,SPI1_MOSI*
X62786230Y19447440D03*
G04 #@! TO.N,SPI1_MISO*
X52820110Y24434650D03*
G04 #@! TO.N,SPI1_DSPIC_SS*
X47754030Y19634200D03*
X84786570Y28464080D03*
X55056890Y24430580D03*
G04 #@! TO.N,_PGEC1*
X50681590Y32362410D03*
X55056890Y36741280D03*
G04 #@! TO.N,MCLR*
X56703720Y29926040D03*
X91837050Y29680590D03*
G04 #@! TO.N,TEST1*
X74690730Y34339570D03*
X79099310Y40986460D03*
G04 #@! TO.N,GND*
X75895200Y11775080D03*
X52820110Y9440470D03*
X80328970Y34339570D03*
X95899330Y41131590D03*
X74690730Y16992600D03*
X91837050Y11775080D03*
X77553360Y54415690D03*
X80598720Y56643730D03*
X67500650Y63853160D03*
X69461690Y56417310D03*
X43586400Y51745690D03*
X99704860Y69215000D03*
X98825250Y60700060D03*
X54859990Y39614150D03*
X95721530Y21815500D03*
X85598000Y46072960D03*
X37388800Y51745690D03*
X85124600Y56797910D03*
G04 #@! TO.N,DSPIC_TX*
X68891750Y34438900D03*
X77484430Y42762270D03*
G04 #@! TO.N,DSPIC_RX*
X78028800Y49172620D03*
X88974880Y20889850D03*
G04 #@! TO.N,FUENTE_12V*
X58621570Y51511200D03*
X107371850Y50194570D03*
X100584000Y63853160D03*
G04 #@! TO.N,5V*
X62966240Y53212490D03*
X59354420Y45501560D03*
X90646400Y51485750D03*
X59354420Y42762270D03*
X90490800Y47775720D03*
X59420610Y49205690D03*
X90183010Y66067840D03*
G04 #@! TO.N,A*
X110268870Y54166360D03*
X111565840Y61500210D03*
X113955780Y42069770D03*
X110268870Y39751000D03*
G04 #@! TD*
G04 #@! TO.N,GND*
D26*
X64257125Y45969125D02*
X62992000Y44704000D01*
X64257125Y47239125D02*
X64257125Y45969125D01*
X64257125Y47239125D02*
X67005150Y44491100D01*
X63871250Y49412750D02*
X63246000Y50038000D01*
X63871250Y47625000D02*
X63871250Y49412750D01*
X89637620Y13437620D02*
X89662000Y13462000D01*
X89637620Y9508080D02*
X89637620Y13437620D01*
X84582000Y13208000D02*
X84328000Y13462000D01*
X84582000Y9440470D02*
X84582000Y13208000D01*
X84582000Y9440470D02*
X89637620Y9440470D01*
X74251415Y12362585D02*
X73152000Y13462000D01*
X74251415Y10330585D02*
X74251415Y12362585D01*
X74251415Y10330585D02*
X75695910Y11775080D01*
X67310000Y13208000D02*
X67564000Y13462000D01*
X67310000Y9440420D02*
X67310000Y13208000D01*
X67310000Y9440420D02*
X67591740Y9440420D01*
X62226190Y13458190D02*
X62230000Y13462000D01*
X62226190Y9440470D02*
X62226190Y13458190D01*
X57404000Y13208000D02*
X57150000Y13462000D01*
X57404000Y9440420D02*
X59690000Y9440420D01*
X57404000Y9440420D02*
X57404000Y13208000D01*
G04 #@! TO.N,SINC_B*
X98908720Y67403420D02*
X102023420Y67403420D01*
X101043840Y42245690D02*
X101126240Y42245690D01*
X97568410Y65405000D02*
X104021840Y65405000D01*
X87883700Y64813180D02*
X89316360Y64813180D01*
X102023420Y67403420D02*
X104021840Y65405000D01*
X101126240Y42245690D02*
X103939440Y45058890D01*
X96537630Y66435780D02*
X97568410Y65405000D01*
X89994540Y64135000D02*
X94236850Y64135000D01*
X89316360Y64813180D02*
X89994540Y64135000D01*
X94512690Y67594790D02*
X95571060Y68653150D01*
X96294090Y66435780D02*
X96537630Y66435780D01*
X94236850Y64135000D02*
X96537630Y66435780D01*
X97659040Y68653150D02*
X98908720Y67403420D01*
X95571060Y68653150D02*
X97659040Y68653150D01*
X103939440Y45058890D02*
X104021840Y45058890D01*
G04 #@! TO.N,SINC_A*
X96768210Y49403410D02*
X101082550Y49403410D01*
X109278670Y43965720D02*
X116428060Y43965720D01*
X114708080Y51739750D02*
X116652290Y53683970D01*
X92270170Y57889290D02*
X92270170Y59974790D01*
X116428060Y43965720D02*
X117740790Y45278450D01*
X103418890Y51739750D02*
X114708080Y51739750D01*
X95159780Y47794980D02*
X96768210Y49403410D01*
X117740790Y45278450D02*
X117740790Y61500210D01*
X106561840Y61595000D02*
X108555230Y61595000D01*
X101082550Y49403410D02*
X103418890Y51739750D01*
X106561840Y41248890D02*
X109278670Y43965720D01*
X113955780Y63500000D02*
X116652290Y60803430D01*
X106561840Y61595000D02*
X109780020Y64813180D01*
X108555230Y61595000D02*
X110460230Y63500000D01*
X109780020Y64813180D02*
X114427810Y64813180D01*
X89971780Y62273180D02*
X92270170Y59974790D01*
X114427810Y64813180D02*
X117740790Y61500210D01*
X110460230Y63500000D02*
X113955780Y63500000D01*
X116652290Y53683970D02*
X116652290Y60803430D01*
X87883700Y62273180D02*
X89971780Y62273180D01*
G04 #@! TO.N,NetD3_1*
X60742440Y39614150D02*
X63707980Y39614150D01*
X65080290Y40986460D02*
X65405000Y40986460D01*
X59737080Y38608790D02*
X60742440Y39614150D01*
X63707980Y39614150D02*
X65080290Y40986460D01*
G04 #@! TO.N,INT_SINC*
X86755120Y19272070D02*
X99249750Y19272070D01*
X85644230Y20382950D02*
X85644230Y21875500D01*
X99249750Y19272070D02*
X100973830Y20996150D01*
X82610710Y67352370D02*
X83528100Y66434970D01*
X85644230Y20382950D02*
X86755120Y19272070D01*
X80263700Y67353180D02*
X82610710Y67353180D01*
X82610710Y67352370D02*
X82610710Y67353180D01*
X83528100Y66164360D02*
X83528100Y66434970D01*
X85644230Y21875500D02*
X87989310Y24220580D01*
G04 #@! TO.N,VCC*
X87269330Y38658840D02*
X90491350Y38658840D01*
X37388800Y48494490D02*
X38100000Y49205690D01*
X36652200Y33223200D02*
X38441780Y35012780D01*
X81483200Y14520420D02*
X81483250Y14520470D01*
X87219280Y38608790D02*
X87269330Y38658840D01*
X67591740Y14520420D02*
X67591740Y14845140D01*
X97574610Y14520470D02*
X99461880Y12633200D01*
X59690000Y14520420D02*
X59690050Y14520470D01*
X39961160Y49205690D02*
X43269920Y49205690D01*
X75895250Y14520420D02*
X78637380Y14520420D01*
X38441780Y35012780D02*
X39526210Y35012780D01*
X61926530Y35276360D02*
X61926530Y35339570D01*
X64897050Y14520420D02*
X67591740Y14520420D01*
X102911860Y22697840D02*
X102911860Y22701780D01*
X65129310Y31840580D02*
X65129310Y32073580D01*
X81483250Y14520470D02*
X84344260Y14520470D01*
X37388800Y37150190D02*
X37388800Y48494490D01*
X101393060Y24220580D02*
X102911860Y22701780D01*
X57447910Y24220580D02*
X57478610Y24220580D01*
X68891750Y16145150D02*
X68891750Y19242410D01*
X104736850Y15173200D02*
X104831850Y15173200D01*
X67591740Y14520420D02*
X70358000Y14520420D01*
X75895200Y14520470D02*
X75895250Y14520420D01*
X37388800Y37150190D02*
X39526210Y35012780D01*
X67591740Y14845140D02*
X68891750Y16145150D01*
X107371850Y12633200D02*
X109911850Y12633200D01*
X61926530Y35276360D02*
X65129310Y32073580D01*
X104831850Y15173200D02*
X107371850Y12633200D01*
X36652200Y22148800D02*
X36652200Y33223200D01*
X99461880Y12633200D02*
X107076900Y12633200D01*
X95609310Y24220580D02*
X101393060Y24220580D01*
X36652200Y22148800D02*
X44280580Y14520420D01*
X57167120Y14520420D02*
X59690000Y14520420D01*
X73162010Y14520470D02*
X75895200Y14520470D01*
X59690050Y14520470D02*
X62226190Y14520470D01*
X64897000Y14520470D02*
X64897050Y14520420D01*
X54926150Y26742330D02*
X57447910Y24220580D01*
X44280580Y14520420D02*
X57167120Y14520420D01*
X90491350Y38658840D02*
X90541400Y38708890D01*
X70358050Y14520470D02*
X73162010Y14520470D01*
X51628410Y29158640D02*
X54044720Y26742330D01*
X78637380Y14520420D02*
X81483200Y14520420D01*
X84344260Y14520470D02*
X89637620Y14520470D01*
X38100000Y49205690D02*
X39961160Y49205690D01*
X62226190Y14520470D02*
X64897000Y14520470D01*
X54044720Y26742330D02*
X54926150Y26742330D01*
X70358000Y14520420D02*
X70358050Y14520470D01*
X89637620Y14520470D02*
X97574610Y14520470D01*
G04 #@! TO.N,B*
X97554950Y53858110D02*
X104021840Y60325000D01*
X89559080Y48965310D02*
X90579500Y49985730D01*
X99473820Y53850540D02*
X99624850Y53850540D01*
X95159780Y53858110D02*
X97554950Y53858110D01*
X91287400Y49985730D02*
X92887390Y51585720D01*
X103907900Y39864940D02*
X104021840Y39978890D01*
X99624850Y53850540D02*
X104021840Y58247530D01*
X88238330Y48965310D02*
X89559080Y48965310D01*
X88008710Y48735690D02*
X88238330Y48965310D01*
X104021840Y58247530D02*
X104021840Y60325000D01*
X101196500Y39864940D02*
X103907900Y39864940D01*
X92887390Y51585720D02*
X95159780Y53858110D01*
X90579500Y49985730D02*
X91287400Y49985730D01*
X101082550Y39751000D02*
X101196500Y39864940D01*
G04 #@! TO.N,SPI2_SCK*
X95662730Y35440570D02*
X97627680Y35440570D01*
X101589890Y35438890D02*
X104621530Y32407250D01*
X97629360Y35438890D02*
X101589890Y35438890D01*
X59420610Y33248570D02*
X59420610Y35124760D01*
X104621530Y32407250D02*
X108177790Y32407250D01*
X61135420Y36839570D02*
X94263730Y36839570D01*
X59420610Y33248570D02*
X60828600Y31840580D01*
X59420610Y35124760D02*
X61135420Y36839570D01*
X97627680Y35440570D02*
X97629360Y35438890D01*
X60828600Y31840580D02*
X62589310Y31840580D01*
X108177790Y32407250D02*
X109911850Y30673190D01*
X94263730Y36839570D02*
X95662730Y35440570D01*
G04 #@! TO.N,SPI2_MOSI*
X62719960Y24351230D02*
X62719960Y24751230D01*
X104022280Y26964080D02*
X104045390Y26987200D01*
X64932820Y26964080D02*
X104022280Y26964080D01*
X62719960Y24751230D02*
X64932820Y26964080D01*
X106561840Y33938870D02*
X109186170Y33938870D01*
X62589310Y24220580D02*
X62719960Y24351230D01*
X109186170Y33938870D02*
X112451850Y30673190D01*
G04 #@! TO.N,SPI2_MISO*
X105911860Y27401150D02*
X105911860Y27585400D01*
X96800940Y33438900D02*
X100058370Y33438900D01*
X87049310Y33440580D02*
X96799260Y33440580D01*
X107492430Y25820570D02*
X110098640Y25820570D01*
X110139230Y25820570D02*
X112451850Y28133190D01*
X110098640Y25820570D02*
X110139230Y25820570D01*
X105911860Y27401150D02*
X107492430Y25820570D01*
X96799260Y33440580D02*
X96800940Y33438900D01*
X85449310Y31840580D02*
X87049310Y33440580D01*
X100058370Y33438900D02*
X105911860Y27585400D01*
G04 #@! TO.N,SPI2_ADXL355Z_CS*
X72749310Y31840580D02*
X72749310Y31923270D01*
X97215150Y34438900D02*
X100585170Y34438900D01*
X72915040Y35839570D02*
X93436060Y35839570D01*
X93436060Y35839570D02*
X94835060Y34440570D01*
X71517870Y34442400D02*
X72915040Y35839570D01*
X71517870Y33154710D02*
X72749310Y31923270D01*
X100585170Y34438900D02*
X104350870Y30673190D01*
X104350870Y30673190D02*
X107371850Y30673190D01*
X97213470Y34440570D02*
X97215150Y34438900D01*
X71517870Y33154710D02*
X71517870Y34442400D01*
X94835060Y34440570D02*
X97213470Y34440570D01*
G04 #@! TO.N,CONSD*
X65129310Y35339570D02*
X65320650Y35148230D01*
X65320650Y34189240D02*
X67669310Y31840580D01*
X79549230Y38658840D02*
X79599280Y38608790D01*
X65320650Y34189240D02*
X65320650Y35148230D01*
X70408100Y38658840D02*
X79549230Y38658840D01*
X70358050Y38708890D02*
X70408100Y38658840D01*
G04 #@! TO.N,MAX485_MS*
X114020600Y27254200D02*
X114020600Y32112200D01*
X98041890Y36440570D02*
X98043570Y36438890D01*
X110455960Y23689560D02*
X114020600Y27254200D01*
X101914380Y25820570D02*
X104045390Y23689560D01*
X82909310Y24220580D02*
X83186580Y24220580D01*
X80388710Y46195690D02*
X84891920Y41692490D01*
X84786570Y25820570D02*
X101914380Y25820570D01*
X109693910Y36438890D02*
X114020600Y32112200D01*
X80388710Y46195690D02*
X80388710Y48735690D01*
X84891920Y41692490D02*
X90825020Y41692490D01*
X90825020Y41692490D02*
X96076940Y36440570D01*
X104045390Y23689560D02*
X110455960Y23689560D01*
X83186580Y24220580D02*
X84786570Y25820570D01*
X98043570Y36438890D02*
X109693910Y36438890D01*
X96076940Y36440570D02*
X98041890Y36440570D01*
G04 #@! TO.N,SPI1_SCK*
X65129310Y23820580D02*
X65129310Y24220580D01*
X63457530Y22148800D02*
X65129310Y23820580D01*
X57164210Y22148800D02*
X63457530Y22148800D01*
G04 #@! TO.N,SPI1_MOSI*
X62786230Y19447440D02*
X62841210Y19447440D01*
X67614340Y24220580D02*
X67669310Y24220580D01*
X62841210Y19447440D02*
X67614340Y24220580D01*
G04 #@! TO.N,SPI1_MISO*
X42261200Y18841080D02*
X45314140Y15788130D01*
X62934390Y16945660D02*
X70209310Y24220580D01*
X52820110Y15788130D02*
X53977640Y16945660D01*
X44302560Y24434650D02*
X52820110Y24434650D01*
X53977640Y16945660D02*
X62934390Y16945660D01*
X42261200Y22393280D02*
X44302560Y24434650D01*
X42261200Y18841080D02*
X42261200Y22393280D01*
X45314140Y15788130D02*
X52820110Y15788130D01*
G04 #@! TO.N,SPI1_DSPIC_SS*
X52228040Y19634200D02*
X55056890Y22463050D01*
X84786570Y28464080D02*
X84786570Y28550960D01*
X47754030Y19634200D02*
X52228040Y19634200D01*
X84786570Y28550960D02*
X87989310Y31753700D01*
X55056890Y22463050D02*
X55056890Y24430580D01*
X87989310Y31753700D02*
X87989310Y31840580D01*
G04 #@! TO.N,_PGEC1*
X82679690Y32070190D02*
X82909310Y31840580D01*
X54786290Y36741280D02*
X55056890Y36741280D01*
X54310190Y37217380D02*
X54786290Y36741280D01*
X52228040Y39234880D02*
X52228040Y49651360D01*
X52228040Y39234880D02*
X54245530Y37217380D01*
X45053710Y56825690D02*
X52228040Y49651360D01*
X54245530Y37217380D02*
X54310190Y37217380D01*
X50681590Y32362410D02*
X54617950Y28426040D01*
X39961160Y56825690D02*
X45053710Y56825690D01*
X79494770Y28426040D02*
X82909310Y31840580D01*
X54617950Y28426040D02*
X79494770Y28426040D01*
G04 #@! TO.N,_PGED1*
X50927000Y37941610D02*
X50927000Y48342090D01*
X58628030Y30240580D02*
X78769310Y30240580D01*
X80176370Y31840580D02*
X80369310Y31840580D01*
X44983400Y54285690D02*
X50927000Y48342090D01*
X39961160Y54285690D02*
X44983400Y54285690D01*
X50927000Y37941610D02*
X58628030Y30240580D01*
X78769310Y30240580D02*
X80369310Y31840580D01*
G04 #@! TO.N,NetD1_2*
X46626220Y35012780D02*
X47620020Y36006580D01*
X47620020Y36006580D02*
X47620020Y37998450D01*
G04 #@! TO.N,NetC10_1*
X75289310Y21409760D02*
X75289310Y24220580D01*
X75289310Y21409760D02*
X77251660Y19447410D01*
G04 #@! TO.N,MCLR*
X49598580Y37031180D02*
X56703720Y29926040D01*
X91837050Y29680590D02*
X91924790Y29768320D01*
X49598580Y37031180D02*
X49598580Y39733220D01*
X47828200Y41503600D02*
X49598580Y39733220D01*
X93537050Y29768320D02*
X95609310Y31840580D01*
X39961160Y46665690D02*
X40000020Y46626830D01*
X43505170Y41503600D02*
X47828200Y41503600D01*
X91924790Y29768320D02*
X93537050Y29768320D01*
X40000020Y37998450D02*
X43505170Y41503600D01*
X40000020Y37998450D02*
X40000020Y46626830D01*
G04 #@! TO.N,TEST1*
X73025000Y40986460D02*
X79099310Y40986460D01*
X74690730Y34068970D02*
X74690730Y34339570D01*
X75119130Y32010750D02*
X75289310Y31840580D01*
X75119130Y32010750D02*
X75119130Y33640580D01*
X74690730Y34068970D02*
X75119130Y33640580D01*
G04 #@! TO.N,ADXL_DRDY*
X99663960Y18272070D02*
X100065090Y18673190D01*
X84835220Y18272070D02*
X99663960Y18272070D01*
X83044230Y20063050D02*
X83044230Y21815500D01*
X83044230Y21815500D02*
X85449310Y24220580D01*
X100065090Y18673190D02*
X108951850Y18673190D01*
X83044230Y20063050D02*
X84835220Y18272070D01*
X108951850Y18673190D02*
X112451850Y15173200D01*
G04 #@! TO.N,GND*
X64897000Y9440470D02*
X64897050Y9440420D01*
X58567220Y40228870D02*
X58567220Y41428150D01*
X67005200Y44491150D02*
X67005200Y50052680D01*
X99704860Y69215000D02*
X102751840Y69215000D01*
X57167120Y9440420D02*
X57167120Y9440470D01*
X95597950Y21815500D02*
X95721530Y21815500D01*
X98623580Y60700060D02*
X98825250Y60700060D01*
X85598000Y46069660D02*
X85598000Y46072960D01*
X75895250Y9440420D02*
X78637380Y9440420D01*
X102751840Y69215000D02*
X104021840Y67945000D01*
X80263700Y62273180D02*
X80263700Y64813180D01*
X81483250Y9440470D02*
X84344260Y9440470D01*
X105291840Y46328890D02*
X106561840Y46328890D01*
X80598720Y56643730D02*
X80675790Y56720790D01*
X73361300Y9440470D02*
X75895200Y9440470D01*
X57197080Y38858740D02*
X58567220Y40228870D01*
X93192880Y24220580D02*
X95597950Y21815500D01*
X85227360Y56797910D02*
X85976100Y56049160D01*
X63871250Y47625000D02*
X64257125Y47239125D01*
X58930900Y47625000D02*
X63871250Y47625000D01*
X93069310Y24220580D02*
X93192880Y24220580D01*
X80263700Y62273180D02*
X82803700Y59733180D01*
X80675790Y56720790D02*
X85047530Y56720790D01*
X64897050Y9440420D02*
X67310000Y9440420D01*
X57190160Y38615710D02*
X57197080Y38608790D01*
X84344260Y9440470D02*
X84582000Y9440470D01*
X57197080Y42798280D02*
X58567220Y41428150D01*
X65384020Y56487520D02*
X65419120Y56452410D01*
X62226190Y9440470D02*
X64897000Y9440470D01*
X75853340Y54307280D02*
X77444960Y54307280D01*
X72171660Y19772120D02*
X72749310Y20349770D01*
X104021840Y47598890D02*
X105291840Y46328890D01*
X85047530Y56720790D02*
X85124600Y56797910D01*
X91837050Y11707520D02*
X91837050Y11775080D01*
X73361300Y9440470D02*
X74251415Y10330585D01*
X78637380Y9440420D02*
X81483200Y9440420D01*
X75695910Y11775080D02*
X75895200Y11775080D01*
X96739300Y58815780D02*
X98623580Y60700060D01*
X74658630Y16992600D02*
X74690730Y16992600D01*
X85124600Y56885990D02*
X87883700Y59645090D01*
X85976100Y56049160D02*
X93771010Y56049160D01*
X85124600Y56797910D02*
X85227360Y56797910D01*
X67005150Y44491100D02*
X67005200Y44491150D01*
X109259120Y9440470D02*
X112451850Y12633200D01*
X57197080Y42798280D02*
X57197080Y45891190D01*
X105291840Y66675000D02*
X106561840Y66675000D01*
X69426580Y56452410D02*
X69461690Y56417310D01*
X68558820Y48499070D02*
X73743360Y48499070D01*
X82803700Y59733180D02*
X87748620Y59733180D01*
X77829310Y31840580D02*
X77829310Y31990240D01*
X89637620Y9440470D02*
X89637620Y9508080D01*
X89637620Y9508080D02*
X91837050Y11707520D01*
X87883700Y59645090D02*
X87883700Y59733180D01*
X75895200Y9440470D02*
X75895250Y9440420D01*
X65384020Y51673860D02*
X65384020Y56487520D01*
X85598000Y46069660D02*
X88008710Y43658940D01*
X52820110Y9440470D02*
X57167120Y9440470D01*
X95721530Y41131590D02*
X95899330Y41131590D01*
X85124600Y56797910D02*
X85124600Y56885990D01*
X80178640Y34339570D02*
X80328970Y34339570D01*
X88008710Y43655690D02*
X88008710Y43658940D01*
X65384020Y51673860D02*
X67005200Y50052680D01*
X67591740Y9440420D02*
X70358000Y9440420D01*
X70358000Y9440420D02*
X70358050Y9440470D01*
X65419120Y56452410D02*
X69426580Y56452410D01*
X92887390Y43965720D02*
X94003320Y42849800D01*
X73743360Y56417260D02*
X75853340Y54307280D01*
X55858420Y38615710D02*
X57190160Y38615710D01*
X77444960Y54307280D02*
X77553360Y54415690D01*
X94003320Y42849800D02*
X95721530Y41131590D01*
X57167120Y9440420D02*
X57404000Y9440420D01*
X70358050Y9440470D02*
X73162010Y9440470D01*
X67005200Y50052680D02*
X68558820Y48499070D01*
X93771010Y56049160D02*
X96537630Y58815780D01*
X59690000Y9440420D02*
X59690050Y9440470D01*
X73743360Y48499070D02*
X73743360Y56417260D01*
X72749310Y20349770D02*
X72749310Y24220580D01*
X72171660Y19447410D02*
X72203820Y19447410D01*
X39961160Y51745690D02*
X43586400Y51745690D01*
X104021840Y67945000D02*
X105291840Y66675000D01*
X89887700Y9440470D02*
X109259120Y9440470D01*
X81483200Y9440420D02*
X81483250Y9440470D01*
X72171660Y19447410D02*
X72171660Y19772120D01*
X73162010Y9440470D02*
X73361300Y9440470D01*
X57197080Y38608790D02*
X57197080Y38858740D01*
X54859990Y39614150D02*
X55858420Y38615710D01*
X57197080Y45891190D02*
X58930900Y47625000D01*
X99272750Y42849800D02*
X104021840Y47598890D01*
X94003320Y42849800D02*
X99272750Y42849800D01*
X72203820Y19447410D02*
X74658630Y16992600D01*
X37388800Y51745690D02*
X39961160Y51745690D01*
X59690050Y9440470D02*
X62226190Y9440470D01*
X67500650Y63853160D02*
X67500650Y67274290D01*
X96537630Y58815780D02*
X96739300Y58815780D01*
X77829310Y31990240D02*
X80178640Y34339570D01*
G04 #@! TO.N,DSPIC_TX*
X70209310Y31840580D02*
X70209310Y32133730D01*
X69083090Y33259940D02*
X69083090Y34247550D01*
X77755040Y42762270D02*
X78588720Y43595950D01*
X80328970Y43595950D02*
X80388710Y43655690D01*
X68891750Y34438900D02*
X69083090Y34247550D01*
X69083090Y33259940D02*
X70209310Y32133730D01*
X78588720Y43595950D02*
X80328970Y43595950D01*
X77484430Y42762270D02*
X77755040Y42762270D01*
G04 #@! TO.N,DSPIC_RX*
X90335940Y24027210D02*
X90529310Y24220580D01*
X78285650Y49172620D02*
X80388710Y51275690D01*
X78028800Y49172620D02*
X78285650Y49172620D01*
X90335940Y22357210D02*
X90335940Y24027210D01*
X88974880Y20889850D02*
X88974880Y20996150D01*
X88974880Y20996150D02*
X90335940Y22357210D01*
G04 #@! TO.N,ADXL_INT2*
X80369310Y20889850D02*
X80369310Y24220580D01*
X100078170Y17272070D02*
X100479300Y17673200D01*
X80369310Y20889850D02*
X83987090Y17272070D01*
X83987090Y17272070D02*
X100078170Y17272070D01*
X100479300Y17673200D02*
X107411850Y17673200D01*
X107411850Y17673200D02*
X109911850Y15173200D01*
G04 #@! TO.N,ADXL_INT1*
X100492380Y16272070D02*
X100893510Y16673200D01*
X77829310Y21844000D02*
X83401240Y16272070D01*
X100893510Y16673200D02*
X105871850Y16673200D01*
X105871850Y16673200D02*
X107371850Y15173200D01*
X77829310Y21844000D02*
X77829310Y24220580D01*
X83401240Y16272070D02*
X100492380Y16272070D01*
G04 #@! TO.N,FUENTE_12V*
X62194390Y55083960D02*
X62194390Y56797910D01*
X80530240Y53975000D02*
X88060020Y53975000D01*
X65384070Y59987590D02*
X65384070Y63393170D01*
X58621570Y51511200D02*
X62194390Y55083960D01*
X77553360Y56951880D02*
X80530240Y53975000D01*
X108555230Y45782280D02*
X108555230Y48740620D01*
X77553360Y56951880D02*
X77553360Y59987590D01*
X101842770Y62865000D02*
X104021840Y62865000D01*
X100854610Y63853160D02*
X101842770Y62865000D01*
X64960650Y63816590D02*
X65384070Y63393170D01*
X105291840Y64135000D02*
X106561840Y64135000D01*
X107371850Y49924010D02*
X108555230Y48740620D01*
X106561840Y43788890D02*
X108555230Y45782280D01*
X62194390Y56797910D02*
X65384020Y59987540D01*
X64960650Y63816590D02*
X64960650Y67274290D01*
X88060020Y53975000D02*
X89134190Y55049170D01*
X76043640Y61497260D02*
X77553360Y59987590D01*
X105291840Y43788890D02*
X106561840Y43788890D01*
X65384020Y59987540D02*
X65384070Y59987590D01*
X107371850Y49924010D02*
X107371850Y50194570D01*
X100584000Y63853160D02*
X100854610Y63853160D01*
X89134190Y55049170D02*
X96206010Y55049170D01*
X104021840Y42518890D02*
X105291840Y43788890D01*
X66893750Y61497260D02*
X73743360Y61497260D01*
X73743360Y61497260D02*
X76043640Y61497260D01*
X104021840Y62865000D02*
X105291840Y64135000D01*
X65384070Y59987590D02*
X66893750Y61497260D01*
X96206010Y55049170D02*
X104021840Y62865000D01*
G04 #@! TO.N,5V*
X88113720Y51380700D02*
X90541400Y51380700D01*
X88977670Y66259200D02*
X89991640Y66259200D01*
X91211810Y68653150D02*
X92270170Y67594790D01*
X89183670Y68653150D02*
X91211810Y68653150D01*
X60405870Y44720710D02*
X61695530Y44720710D01*
X88027150Y67209720D02*
X88977670Y66259200D01*
X63642650Y42773600D02*
X71517870Y42773600D01*
X59354420Y45501560D02*
X59625030Y45501560D01*
X70040650Y67274290D02*
X74259290Y67274290D01*
X61925200Y50511910D02*
X62154820Y50282300D01*
X60308590Y49823070D02*
X61695580Y49823070D01*
X59625030Y45501560D02*
X60405870Y44720710D01*
X71517870Y42773600D02*
X73743360Y44999100D01*
X61925200Y50511910D02*
X61925200Y51900840D01*
X86368740Y52915670D02*
X88008710Y51275690D01*
X60387660Y42953610D02*
X61925150Y44491100D01*
X59354420Y42762270D02*
X59545760Y42953610D01*
X92713560Y47775720D02*
X97195950Y52258110D01*
X75928420Y47184160D02*
X75928420Y51900840D01*
X61925200Y50052680D02*
X62154820Y50282300D01*
X61695580Y49823070D02*
X61925200Y50052680D01*
X59545760Y42953610D02*
X60387660Y42953610D01*
X86225080Y69011800D02*
X88027150Y67209720D01*
X61925200Y51900840D02*
X62966240Y52941880D01*
X59691220Y49205690D02*
X60308590Y49823070D01*
X88008710Y51275690D02*
X88113720Y51380700D01*
X75928420Y51900840D02*
X76943260Y52915670D01*
X61695530Y44720710D02*
X61925150Y44491100D01*
X74259290Y67274290D02*
X75996800Y69011800D01*
X73743360Y44999100D02*
X75928420Y47184160D01*
X76943260Y52915670D02*
X86368740Y52915670D01*
X90541400Y51380700D02*
X90646400Y51485750D01*
X61925150Y44491100D02*
X63642650Y42773600D01*
X90490800Y47775720D02*
X92713560Y47775720D01*
X59420610Y49205690D02*
X59691220Y49205690D01*
X62966240Y52941880D02*
X62966240Y53212490D01*
X89991640Y66259200D02*
X90183010Y66067840D01*
X75996800Y69011800D02*
X86225080Y69011800D01*
X87883700Y67353180D02*
X89183670Y68653150D01*
G04 #@! TO.N,A*
X109120640Y59055000D02*
X111565840Y61500210D01*
X88008710Y46195690D02*
X95638370Y46195690D01*
X106561840Y38708890D02*
X110098640Y42245690D01*
X110098640Y42245690D02*
X113779860Y42245690D01*
X88931450Y44995690D02*
X88936020Y44995690D01*
X96491150Y37440570D02*
X98456100Y37440570D01*
X106561840Y59055000D02*
X110268870Y55347970D01*
X98456100Y37440570D02*
X98457780Y37438890D01*
X98457780Y37438890D02*
X107956760Y37438890D01*
X88936020Y44995690D02*
X96491150Y37440570D01*
X110268870Y54166360D02*
X110268870Y55347970D01*
X95638370Y46195690D02*
X97195950Y44638110D01*
X107956760Y37438890D02*
X110268870Y39751000D01*
X106561840Y59055000D02*
X109120640Y59055000D01*
X88008710Y45918430D02*
X88931450Y44995690D01*
X113779860Y42245690D02*
X113955780Y42069770D01*
X88008710Y45918430D02*
X88008710Y46195690D01*
G04 #@! TD*
G04 #@! TA.AperFunction,Conductor*
G04 #@! TO.N,GND*
G36*
X118210274Y71890745D02*
G01*
X118237638Y71866829D01*
X119929904Y69879742D01*
X119958384Y69815941D01*
X119959500Y69799345D01*
X119959500Y26567680D01*
X119939815Y26500641D01*
X119887011Y26454886D01*
X119835500Y26443680D01*
X115654438Y26443680D01*
X115527142Y26409572D01*
X115413016Y26343680D01*
X115413013Y26343678D01*
X115319832Y26250497D01*
X115319830Y26250494D01*
X115253938Y26136368D01*
X115219830Y26009072D01*
X115219830Y16976309D01*
X115253938Y16849013D01*
X115286884Y16791950D01*
X115319830Y16734886D01*
X115413016Y16641700D01*
X115527144Y16575808D01*
X115654438Y16541700D01*
X116398340Y16541700D01*
X116465379Y16522015D01*
X116511134Y16469211D01*
X116521078Y16400053D01*
X116492053Y16336497D01*
X116433275Y16298723D01*
X116430451Y16297931D01*
X116388549Y16286703D01*
X116243248Y16247770D01*
X115991896Y16143656D01*
X115991887Y16143652D01*
X115756276Y16007622D01*
X115756259Y16007611D01*
X115540421Y15841991D01*
X115348039Y15649609D01*
X115182419Y15433771D01*
X115182408Y15433754D01*
X115046378Y15198143D01*
X115046374Y15198134D01*
X114942260Y14946782D01*
X114918193Y14856961D01*
X114871843Y14683979D01*
X114870527Y14673981D01*
X114836330Y14414243D01*
X114836330Y14142158D01*
X114853713Y14010131D01*
X114871843Y13872421D01*
X114904462Y13750684D01*
X114942260Y13609619D01*
X115046374Y13358267D01*
X115046378Y13358258D01*
X115087719Y13286654D01*
X115182412Y13122640D01*
X115182415Y13122636D01*
X115182419Y13122630D01*
X115348039Y12906792D01*
X115348047Y12906783D01*
X115540413Y12714417D01*
X115540421Y12714410D01*
X115756259Y12548790D01*
X115756262Y12548788D01*
X115756270Y12548782D01*
X115991890Y12412747D01*
X116159464Y12343336D01*
X116243248Y12308631D01*
X116243249Y12308631D01*
X116243251Y12308630D01*
X116506051Y12238213D01*
X116775795Y12202700D01*
X116775802Y12202700D01*
X117047858Y12202700D01*
X117047865Y12202700D01*
X117317609Y12238213D01*
X117580409Y12308630D01*
X117831770Y12412747D01*
X118067390Y12548782D01*
X118283238Y12714409D01*
X118283242Y12714414D01*
X118283247Y12714417D01*
X118475613Y12906783D01*
X118475616Y12906788D01*
X118475621Y12906792D01*
X118641248Y13122640D01*
X118777283Y13358260D01*
X118881400Y13609621D01*
X118951817Y13872421D01*
X118987330Y14142165D01*
X118987330Y14414235D01*
X118951817Y14683979D01*
X118881400Y14946779D01*
X118777283Y15198140D01*
X118641248Y15433760D01*
X118619143Y15462567D01*
X118475620Y15649609D01*
X118475613Y15649617D01*
X118283247Y15841983D01*
X118283238Y15841991D01*
X118067400Y16007611D01*
X118067394Y16007615D01*
X118067390Y16007618D01*
X117965743Y16066304D01*
X117831772Y16143652D01*
X117831763Y16143656D01*
X117580411Y16247770D01*
X117449730Y16282786D01*
X117393226Y16297926D01*
X117333566Y16334290D01*
X117303037Y16397137D01*
X117311332Y16466513D01*
X117355817Y16520390D01*
X117422369Y16541665D01*
X117425320Y16541700D01*
X119835500Y16541700D01*
X119902539Y16522015D01*
X119948294Y16469211D01*
X119959500Y16417700D01*
X119959500Y7648676D01*
X119939815Y7581637D01*
X119923181Y7560995D01*
X119249005Y6886819D01*
X119187682Y6853334D01*
X119161324Y6850500D01*
X38590640Y6850500D01*
X38523601Y6870185D01*
X38477846Y6922989D01*
X38467902Y6992147D01*
X38496927Y7055703D01*
X38543187Y7089061D01*
X38558036Y7095212D01*
X38712800Y7159317D01*
X38948420Y7295352D01*
X39164268Y7460979D01*
X39164272Y7460984D01*
X39164277Y7460987D01*
X39356643Y7653353D01*
X39356646Y7653358D01*
X39356651Y7653362D01*
X39522278Y7869210D01*
X39658313Y8104830D01*
X39762430Y8356191D01*
X39832847Y8618991D01*
X39868360Y8888735D01*
X39868360Y9160805D01*
X39832847Y9430549D01*
X39818511Y9484053D01*
X115556930Y9484053D01*
X115556930Y9211968D01*
X115584551Y9002175D01*
X115592443Y8942231D01*
X115606779Y8888728D01*
X115662860Y8679429D01*
X115766974Y8428077D01*
X115766977Y8428070D01*
X115903012Y8192450D01*
X115903015Y8192446D01*
X115903019Y8192440D01*
X116068639Y7976602D01*
X116068647Y7976593D01*
X116261013Y7784227D01*
X116261021Y7784220D01*
X116476859Y7618600D01*
X116476862Y7618598D01*
X116476870Y7618592D01*
X116712490Y7482557D01*
X116880064Y7413146D01*
X116963848Y7378441D01*
X116963849Y7378441D01*
X116963851Y7378440D01*
X117226651Y7308023D01*
X117496395Y7272510D01*
X117496402Y7272510D01*
X117768458Y7272510D01*
X117768465Y7272510D01*
X118038209Y7308023D01*
X118301009Y7378440D01*
X118552370Y7482557D01*
X118787990Y7618592D01*
X119003838Y7784219D01*
X119003842Y7784224D01*
X119003847Y7784227D01*
X119196213Y7976593D01*
X119196216Y7976598D01*
X119196221Y7976602D01*
X119361848Y8192450D01*
X119497883Y8428070D01*
X119602000Y8679431D01*
X119672417Y8942231D01*
X119707930Y9211975D01*
X119707930Y9484045D01*
X119672417Y9753789D01*
X119602000Y10016589D01*
X119497883Y10267950D01*
X119361848Y10503570D01*
X119196221Y10719418D01*
X119196220Y10719419D01*
X119196213Y10719427D01*
X119003847Y10911793D01*
X119003838Y10911801D01*
X118788000Y11077421D01*
X118787994Y11077425D01*
X118787990Y11077428D01*
X118552370Y11213463D01*
X118552363Y11213466D01*
X118301011Y11317580D01*
X118169609Y11352789D01*
X118038209Y11387997D01*
X117978265Y11395889D01*
X117768472Y11423510D01*
X117768465Y11423510D01*
X117496395Y11423510D01*
X117496387Y11423510D01*
X117256622Y11391943D01*
X117226651Y11387997D01*
X117202938Y11381643D01*
X116963848Y11317580D01*
X116712496Y11213466D01*
X116712487Y11213462D01*
X116476876Y11077432D01*
X116476859Y11077421D01*
X116261021Y10911801D01*
X116068639Y10719419D01*
X115903019Y10503581D01*
X115903008Y10503564D01*
X115766978Y10267953D01*
X115766974Y10267944D01*
X115662860Y10016592D01*
X115592443Y9753788D01*
X115556930Y9484053D01*
X39818511Y9484053D01*
X39762430Y9693349D01*
X39658313Y9944710D01*
X39522278Y10180330D01*
X39455044Y10267950D01*
X39356650Y10396179D01*
X39356643Y10396187D01*
X39164277Y10588553D01*
X39164268Y10588561D01*
X38948430Y10754181D01*
X38948424Y10754185D01*
X38948420Y10754188D01*
X38712800Y10890223D01*
X38712793Y10890226D01*
X38461441Y10994340D01*
X38330039Y11029549D01*
X38198639Y11064757D01*
X38138695Y11072649D01*
X37928902Y11100270D01*
X37928895Y11100270D01*
X37656825Y11100270D01*
X37656817Y11100270D01*
X37417052Y11068703D01*
X37387081Y11064757D01*
X37321381Y11047153D01*
X37124278Y10994340D01*
X36872926Y10890226D01*
X36872917Y10890222D01*
X36637306Y10754192D01*
X36637289Y10754181D01*
X36421451Y10588561D01*
X36272181Y10439291D01*
X36210858Y10405806D01*
X36141166Y10410790D01*
X36085233Y10452662D01*
X36060816Y10518126D01*
X36060500Y10526972D01*
X36060500Y21309060D01*
X36080185Y21376099D01*
X36132989Y21421854D01*
X36202147Y21431798D01*
X36265703Y21402773D01*
X36272181Y21396741D01*
X39422081Y18246841D01*
X39455566Y18185518D01*
X39450582Y18115826D01*
X39408710Y18059893D01*
X39343246Y18035476D01*
X39334400Y18035160D01*
X39255967Y18035160D01*
X39062680Y17996713D01*
X39062670Y17996710D01*
X38880602Y17921296D01*
X38880589Y17921289D01*
X38716728Y17811800D01*
X38716724Y17811797D01*
X38577373Y17672446D01*
X38577370Y17672442D01*
X38467881Y17508581D01*
X38467874Y17508568D01*
X38392460Y17326500D01*
X38392457Y17326490D01*
X38354010Y17133204D01*
X38354010Y17133201D01*
X38354010Y16936119D01*
X38354010Y16936117D01*
X38354009Y16936117D01*
X38392457Y16742831D01*
X38392460Y16742821D01*
X38467874Y16560753D01*
X38467881Y16560740D01*
X38577370Y16396879D01*
X38577373Y16396875D01*
X38716724Y16257524D01*
X38716728Y16257521D01*
X38880589Y16148032D01*
X38880602Y16148025D01*
X39062670Y16072611D01*
X39062675Y16072609D01*
X39062679Y16072609D01*
X39062680Y16072608D01*
X39255966Y16034160D01*
X39255969Y16034160D01*
X39453053Y16034160D01*
X39583092Y16060028D01*
X39646345Y16072609D01*
X39821500Y16145160D01*
X39828417Y16148025D01*
X39828417Y16148026D01*
X39828424Y16148028D01*
X39992292Y16257521D01*
X40131649Y16396878D01*
X40241142Y16560746D01*
X40316561Y16742825D01*
X40355010Y16936119D01*
X40355010Y17014550D01*
X40374695Y17081589D01*
X40427499Y17127344D01*
X40496657Y17137288D01*
X40560213Y17108263D01*
X40566691Y17102231D01*
X43658791Y14010131D01*
X43747279Y13921643D01*
X43770292Y13898630D01*
X43901396Y13811029D01*
X43901397Y13811029D01*
X43901401Y13811026D01*
X43983065Y13777200D01*
X44047082Y13750683D01*
X44201486Y13719970D01*
X44201732Y13719921D01*
X44201735Y13719920D01*
X44201737Y13719920D01*
X59774433Y13719920D01*
X59775449Y13719970D01*
X62147348Y13719970D01*
X64811601Y13719970D01*
X64812617Y13719920D01*
X64818208Y13719920D01*
X70442433Y13719920D01*
X70443449Y13719970D01*
X73083168Y13719970D01*
X75809801Y13719970D01*
X75810817Y13719920D01*
X75816408Y13719920D01*
X81567633Y13719920D01*
X81568649Y13719970D01*
X84265418Y13719970D01*
X89558778Y13719970D01*
X97191670Y13719970D01*
X97258709Y13700285D01*
X97279351Y13683651D01*
X98840091Y12122911D01*
X98951591Y12011411D01*
X98951592Y12011410D01*
X99082694Y11923810D01*
X99082707Y11923803D01*
X99228378Y11863465D01*
X99228383Y11863463D01*
X99383033Y11832701D01*
X99383036Y11832700D01*
X99383038Y11832700D01*
X106220956Y11832700D01*
X106287995Y11813015D01*
X106321272Y11781588D01*
X106341746Y11753408D01*
X106341748Y11753406D01*
X106492063Y11603091D01*
X106664029Y11478152D01*
X106664031Y11478151D01*
X106664034Y11478149D01*
X106853438Y11381643D01*
X107055607Y11315954D01*
X107265563Y11282700D01*
X107265564Y11282700D01*
X107478136Y11282700D01*
X107478137Y11282700D01*
X107688093Y11315954D01*
X107890262Y11381643D01*
X108079666Y11478149D01*
X108101639Y11494114D01*
X108251636Y11603091D01*
X108251638Y11603094D01*
X108251642Y11603096D01*
X108401954Y11753408D01*
X108422427Y11781587D01*
X108477756Y11824251D01*
X108522744Y11832700D01*
X108760956Y11832700D01*
X108827995Y11813015D01*
X108861272Y11781588D01*
X108881746Y11753408D01*
X108881748Y11753406D01*
X109032063Y11603091D01*
X109204029Y11478152D01*
X109204031Y11478151D01*
X109204034Y11478149D01*
X109393438Y11381643D01*
X109595607Y11315954D01*
X109805563Y11282700D01*
X109805564Y11282700D01*
X110018136Y11282700D01*
X110018137Y11282700D01*
X110228093Y11315954D01*
X110430262Y11381643D01*
X110619666Y11478149D01*
X110641639Y11494114D01*
X110791636Y11603091D01*
X110791638Y11603094D01*
X110791642Y11603096D01*
X110941954Y11753408D01*
X110941956Y11753412D01*
X110941959Y11753414D01*
X111021913Y11863463D01*
X111066901Y11925384D01*
X111071643Y11934692D01*
X111119613Y11985489D01*
X111187433Y12002289D01*
X111253569Y11979755D01*
X111292613Y11934700D01*
X111297227Y11925645D01*
X111422122Y11753741D01*
X111422126Y11753736D01*
X111572385Y11603477D01*
X111572390Y11603473D01*
X111744292Y11478580D01*
X111933632Y11382105D01*
X112135721Y11316443D01*
X112201850Y11305969D01*
X112201850Y12317514D01*
X112206244Y12313120D01*
X112297456Y12260459D01*
X112399189Y12233200D01*
X112504511Y12233200D01*
X112606244Y12260459D01*
X112697456Y12313120D01*
X112701850Y12317514D01*
X112701850Y11305970D01*
X112767976Y11316443D01*
X112767979Y11316443D01*
X112970067Y11382105D01*
X113159407Y11478580D01*
X113331309Y11603473D01*
X113331314Y11603477D01*
X113481573Y11753736D01*
X113481577Y11753741D01*
X113606470Y11925643D01*
X113702945Y12114983D01*
X113768607Y12317071D01*
X113768607Y12317074D01*
X113779081Y12383200D01*
X112767536Y12383200D01*
X112771930Y12387594D01*
X112824591Y12478806D01*
X112851850Y12580539D01*
X112851850Y12685861D01*
X112824591Y12787594D01*
X112771930Y12878806D01*
X112767536Y12883200D01*
X113779081Y12883200D01*
X113768607Y12949327D01*
X113768607Y12949330D01*
X113702945Y13151418D01*
X113606470Y13340758D01*
X113481577Y13512660D01*
X113481573Y13512665D01*
X113331314Y13662924D01*
X113331309Y13662928D01*
X113159405Y13787823D01*
X113150350Y13792437D01*
X113099556Y13840412D01*
X113082762Y13908234D01*
X113105301Y13974368D01*
X113150358Y14013407D01*
X113159666Y14018149D01*
X113238857Y14075685D01*
X113331636Y14143091D01*
X113331638Y14143094D01*
X113331642Y14143096D01*
X113481954Y14293408D01*
X113481956Y14293412D01*
X113481959Y14293414D01*
X113606898Y14465380D01*
X113606897Y14465380D01*
X113606901Y14465384D01*
X113703407Y14654788D01*
X113769096Y14856957D01*
X113802350Y15066913D01*
X113802350Y15279487D01*
X113769096Y15489443D01*
X113703407Y15691612D01*
X113606901Y15881016D01*
X113606899Y15881019D01*
X113606898Y15881021D01*
X113481959Y16052987D01*
X113331636Y16203310D01*
X113159670Y16328249D01*
X112970264Y16424756D01*
X112970263Y16424757D01*
X112970262Y16424757D01*
X112768093Y16490446D01*
X112768091Y16490447D01*
X112768090Y16490447D01*
X112579035Y16520390D01*
X112558137Y16523700D01*
X112345563Y16523700D01*
X112345558Y16523700D01*
X112311160Y16518252D01*
X112241866Y16527207D01*
X112204083Y16553043D01*
X109573640Y19183478D01*
X109573639Y19183479D01*
X109462139Y19294979D01*
X109462138Y19294980D01*
X109462137Y19294981D01*
X109462134Y19294983D01*
X109331031Y19382583D01*
X109331026Y19382586D01*
X109270687Y19407580D01*
X109270687Y19407579D01*
X109270685Y19407580D01*
X109185346Y19442928D01*
X109185342Y19442929D01*
X109185339Y19442930D01*
X109061452Y19467573D01*
X109061452Y19467574D01*
X109030697Y19473690D01*
X109030692Y19473690D01*
X101250347Y19473690D01*
X101183308Y19493375D01*
X101137553Y19546179D01*
X101127609Y19615337D01*
X101156634Y19678893D01*
X101215412Y19716667D01*
X101230949Y19720163D01*
X101278364Y19727673D01*
X101473049Y19790930D01*
X101655440Y19883863D01*
X101757073Y19957703D01*
X101821043Y20004179D01*
X101821045Y20004182D01*
X101821049Y20004184D01*
X101965796Y20148931D01*
X101965798Y20148935D01*
X101965801Y20148937D01*
X102041308Y20252865D01*
X102086117Y20314540D01*
X102179050Y20496931D01*
X102242307Y20691616D01*
X102274330Y20893798D01*
X102274330Y21098502D01*
X102242307Y21300684D01*
X102240957Y21304838D01*
X102228549Y21343027D01*
X102226283Y21349998D01*
X102224288Y21419838D01*
X102260368Y21479671D01*
X102323069Y21510500D01*
X102392483Y21502536D01*
X102400510Y21498801D01*
X102412636Y21492622D01*
X102412638Y21492622D01*
X102412641Y21492620D01*
X102490916Y21467187D01*
X102607325Y21429363D01*
X102708417Y21413352D01*
X102809508Y21397340D01*
X102809509Y21397340D01*
X103014211Y21397340D01*
X103014212Y21397340D01*
X103216394Y21429363D01*
X103411079Y21492620D01*
X103593470Y21585553D01*
X103720389Y21677764D01*
X103759073Y21705869D01*
X103759075Y21705872D01*
X103759079Y21705874D01*
X103903826Y21850621D01*
X103903828Y21850625D01*
X103903831Y21850627D01*
X103979183Y21954342D01*
X104024147Y22016230D01*
X104117080Y22198621D01*
X104180337Y22393306D01*
X104212360Y22595488D01*
X104212360Y22765060D01*
X104232045Y22832099D01*
X104284849Y22877854D01*
X104336360Y22889060D01*
X110534804Y22889060D01*
X110534805Y22889061D01*
X110689457Y22919823D01*
X110802126Y22966493D01*
X110835132Y22980163D01*
X110835132Y22980164D01*
X110835139Y22980166D01*
X110966249Y23067771D01*
X114642389Y26743911D01*
X114669777Y26784900D01*
X114729994Y26875021D01*
X114790337Y27020703D01*
X114797880Y27058621D01*
X114806724Y27103085D01*
X114806724Y27103087D01*
X114821100Y27175356D01*
X114821100Y28035668D01*
X114840785Y28102707D01*
X114893589Y28148462D01*
X114962747Y28158406D01*
X115026303Y28129381D01*
X115052485Y28097670D01*
X115182412Y27872630D01*
X115182415Y27872626D01*
X115182419Y27872620D01*
X115348039Y27656782D01*
X115348047Y27656773D01*
X115540413Y27464407D01*
X115540421Y27464400D01*
X115540422Y27464399D01*
X115579864Y27434134D01*
X115756259Y27298780D01*
X115756262Y27298778D01*
X115756270Y27298772D01*
X115991890Y27162737D01*
X116135903Y27103085D01*
X116243248Y27058621D01*
X116243249Y27058621D01*
X116243251Y27058620D01*
X116506051Y26988203D01*
X116775795Y26952690D01*
X116775802Y26952690D01*
X117047858Y26952690D01*
X117047865Y26952690D01*
X117317609Y26988203D01*
X117580409Y27058620D01*
X117831770Y27162737D01*
X118067390Y27298772D01*
X118283238Y27464399D01*
X118283242Y27464404D01*
X118283247Y27464407D01*
X118475613Y27656773D01*
X118475616Y27656778D01*
X118475621Y27656782D01*
X118641248Y27872630D01*
X118777283Y28108250D01*
X118881400Y28359611D01*
X118951817Y28622411D01*
X118987330Y28892155D01*
X118987330Y29164225D01*
X118951817Y29433969D01*
X118881400Y29696769D01*
X118870811Y29722332D01*
X118841375Y29793398D01*
X118777283Y29948130D01*
X118641248Y30183750D01*
X118598060Y30240033D01*
X118475620Y30399599D01*
X118475613Y30399607D01*
X118283247Y30591973D01*
X118283238Y30591981D01*
X118067400Y30757601D01*
X118067394Y30757605D01*
X118067390Y30757608D01*
X117831770Y30893643D01*
X117831763Y30893646D01*
X117580411Y30997760D01*
X117417557Y31041396D01*
X117317609Y31068177D01*
X117247562Y31077399D01*
X117047872Y31103690D01*
X117047865Y31103690D01*
X116775795Y31103690D01*
X116775787Y31103690D01*
X116536022Y31072123D01*
X116506051Y31068177D01*
X116440351Y31050573D01*
X116243248Y30997760D01*
X115991896Y30893646D01*
X115991887Y30893642D01*
X115756276Y30757612D01*
X115756259Y30757601D01*
X115540421Y30591981D01*
X115348039Y30399599D01*
X115182419Y30183761D01*
X115182408Y30183744D01*
X115052487Y29958713D01*
X115001920Y29910497D01*
X114933313Y29897274D01*
X114868448Y29923242D01*
X114827920Y29980157D01*
X114821100Y30020713D01*
X114821100Y32191043D01*
X114821099Y32191047D01*
X114818717Y32203021D01*
X114790338Y32345697D01*
X114729994Y32491379D01*
X114729992Y32491382D01*
X114729990Y32491386D01*
X114642389Y32622489D01*
X114642386Y32622493D01*
X112412828Y34852050D01*
X112379343Y34913373D01*
X112384327Y34983065D01*
X112426199Y35038998D01*
X112491663Y35063415D01*
X112514392Y35062952D01*
X112776745Y35033391D01*
X112776746Y35033390D01*
X112776750Y35033390D01*
X113046934Y35033390D01*
X113046934Y35033391D01*
X113315411Y35063641D01*
X113578817Y35123762D01*
X113833835Y35212996D01*
X114077259Y35330223D01*
X114306027Y35473967D01*
X114517262Y35642422D01*
X114708308Y35833468D01*
X114876763Y36044703D01*
X115020507Y36273471D01*
X115137734Y36516895D01*
X115226968Y36771913D01*
X115287089Y37035319D01*
X115317340Y37303800D01*
X115317340Y37573980D01*
X115287089Y37842461D01*
X115226968Y38105867D01*
X115225986Y38108672D01*
X115181416Y38236049D01*
X115137734Y38360885D01*
X115020507Y38604309D01*
X114876763Y38833077D01*
X114708308Y39044312D01*
X114517262Y39235358D01*
X114481100Y39264196D01*
X114440786Y39296346D01*
X114306027Y39403813D01*
X114084497Y39543009D01*
X114077256Y39547559D01*
X113833836Y39664784D01*
X113578818Y39754018D01*
X113578820Y39754018D01*
X113381262Y39799109D01*
X113315411Y39814139D01*
X113315407Y39814140D01*
X113315398Y39814141D01*
X113046934Y39844390D01*
X113046930Y39844390D01*
X112776750Y39844390D01*
X112776746Y39844390D01*
X112508281Y39814141D01*
X112508269Y39814139D01*
X112244860Y39754018D01*
X111989843Y39664784D01*
X111747172Y39547919D01*
X111678230Y39536567D01*
X111614096Y39564289D01*
X111575130Y39622284D01*
X111569370Y39659639D01*
X111569370Y39853352D01*
X111537347Y40055535D01*
X111491518Y40196582D01*
X111474090Y40250219D01*
X111474088Y40250222D01*
X111474088Y40250224D01*
X111440373Y40316393D01*
X111381157Y40432610D01*
X111367819Y40450969D01*
X111260841Y40598214D01*
X111116083Y40742972D01*
X110950483Y40863285D01*
X110950482Y40863286D01*
X110950480Y40863287D01*
X110882136Y40898110D01*
X110768093Y40956219D01*
X110573404Y41019478D01*
X110374410Y41050995D01*
X110371222Y41051500D01*
X110335890Y41051500D01*
X110268851Y41071185D01*
X110223096Y41123989D01*
X110213152Y41193147D01*
X110242177Y41256703D01*
X110248209Y41263181D01*
X110393899Y41408871D01*
X110455222Y41442356D01*
X110481580Y41445190D01*
X112739102Y41445190D01*
X112806141Y41425505D01*
X112839581Y41391341D01*
X112840630Y41392102D01*
X112843490Y41388165D01*
X112843493Y41388160D01*
X112941166Y41253724D01*
X112963814Y41222551D01*
X113108566Y41077799D01*
X113263529Y40965214D01*
X113274170Y40957483D01*
X113353546Y40917039D01*
X113456556Y40864552D01*
X113456558Y40864552D01*
X113456561Y40864550D01*
X113516727Y40845001D01*
X113651245Y40801293D01*
X113752337Y40785282D01*
X113853428Y40769270D01*
X113853429Y40769270D01*
X114058131Y40769270D01*
X114058132Y40769270D01*
X114260314Y40801293D01*
X114454999Y40864550D01*
X114637390Y40957483D01*
X114754748Y41042748D01*
X114802993Y41077799D01*
X114802995Y41077802D01*
X114802999Y41077804D01*
X114947746Y41222551D01*
X114947748Y41222555D01*
X114947751Y41222557D01*
X115000512Y41295180D01*
X115068067Y41388160D01*
X115161000Y41570551D01*
X115224257Y41765236D01*
X115256280Y41967418D01*
X115256280Y42172122D01*
X115241878Y42263051D01*
X115224257Y42374305D01*
X115185906Y42492336D01*
X115161000Y42568989D01*
X115160998Y42568992D01*
X115160998Y42568994D01*
X115113592Y42662032D01*
X115068067Y42751380D01*
X115055749Y42768334D01*
X114947751Y42916984D01*
X114911196Y42953539D01*
X114877711Y43014862D01*
X114882695Y43084554D01*
X114924567Y43140487D01*
X114990031Y43164904D01*
X114998877Y43165220D01*
X116506904Y43165220D01*
X116506905Y43165221D01*
X116661557Y43195983D01*
X116807239Y43256326D01*
X116938349Y43343931D01*
X118362579Y44768161D01*
X118450184Y44899271D01*
X118510528Y45044953D01*
X118541290Y45199608D01*
X118541290Y45357293D01*
X118541290Y61579052D01*
X118536697Y61602147D01*
X118536342Y61603933D01*
X118536342Y61603934D01*
X118510528Y61733704D01*
X118510527Y61733705D01*
X118510527Y61733709D01*
X118458832Y61858510D01*
X118457843Y61860897D01*
X118450187Y61879382D01*
X118450186Y61879383D01*
X118450184Y61879389D01*
X118398368Y61956937D01*
X118362580Y62010498D01*
X118307085Y62065993D01*
X118251079Y62121999D01*
X118251077Y62122000D01*
X118244011Y62129066D01*
X118244011Y62129067D01*
X118244007Y62129070D01*
X115049600Y65323468D01*
X115049599Y65323469D01*
X114938099Y65434969D01*
X114938098Y65434970D01*
X114938097Y65434971D01*
X114806992Y65522573D01*
X114806989Y65522574D01*
X114741242Y65549807D01*
X114661306Y65582918D01*
X114661300Y65582920D01*
X114537412Y65607563D01*
X114537412Y65607564D01*
X114506657Y65613680D01*
X114506652Y65613680D01*
X109858863Y65613680D01*
X109701178Y65613680D01*
X109701175Y65613680D01*
X109546530Y65582919D01*
X109546518Y65582916D01*
X109400847Y65522578D01*
X109400834Y65522571D01*
X109269731Y65434970D01*
X109269727Y65434967D01*
X107909021Y64074260D01*
X107847698Y64040775D01*
X107778006Y64045759D01*
X107722073Y64087631D01*
X107697656Y64153095D01*
X107697340Y64161941D01*
X107697340Y64224366D01*
X107690191Y64269500D01*
X107669380Y64400897D01*
X107669379Y64400901D01*
X107669379Y64400902D01*
X107614150Y64570879D01*
X107614148Y64570882D01*
X107613707Y64571749D01*
X107533007Y64730132D01*
X107427951Y64874728D01*
X107301568Y65001111D01*
X107156972Y65106167D01*
X106997721Y65187309D01*
X106997718Y65187311D01*
X106827739Y65242540D01*
X106697422Y65263180D01*
X106651206Y65270500D01*
X106472474Y65270500D01*
X106426258Y65263180D01*
X106295941Y65242540D01*
X106295938Y65242540D01*
X106125961Y65187311D01*
X106125958Y65187309D01*
X105966707Y65106167D01*
X105822110Y65001110D01*
X105822109Y65001109D01*
X105792820Y64971819D01*
X105731497Y64938334D01*
X105705139Y64935500D01*
X105233897Y64935500D01*
X105166858Y64955185D01*
X105121103Y65007989D01*
X105111159Y65077147D01*
X105115966Y65097819D01*
X105129380Y65139103D01*
X105157340Y65315635D01*
X105157340Y65494366D01*
X105148559Y65549807D01*
X105129380Y65670897D01*
X105129379Y65670901D01*
X105129379Y65670902D01*
X105074150Y65840879D01*
X105074148Y65840882D01*
X105072925Y65843284D01*
X104993007Y66000132D01*
X104887951Y66144728D01*
X104761568Y66271111D01*
X104616972Y66376167D01*
X104457721Y66457309D01*
X104457718Y66457311D01*
X104287739Y66512540D01*
X104150963Y66534203D01*
X104111206Y66540500D01*
X104111205Y66540500D01*
X104069780Y66540500D01*
X104002741Y66560185D01*
X103982099Y66576819D01*
X103808159Y66750759D01*
X103774674Y66812082D01*
X103771840Y66838440D01*
X103771840Y67656184D01*
X103787900Y67640124D01*
X103874779Y67589964D01*
X103971680Y67564000D01*
X104072000Y67564000D01*
X104168901Y67589964D01*
X104255780Y67640124D01*
X104271840Y67656184D01*
X104271840Y66835448D01*
X104287618Y66837947D01*
X104457533Y66893156D01*
X104520031Y66925001D01*
X105452287Y66925001D01*
X105452288Y66925000D01*
X106273024Y66925000D01*
X106256964Y66908940D01*
X106206804Y66822061D01*
X106180840Y66725160D01*
X106180840Y66624840D01*
X106206804Y66527939D01*
X106256964Y66441060D01*
X106273024Y66425000D01*
X105452288Y66425000D01*
X105454786Y66409222D01*
X105509995Y66239307D01*
X105591103Y66080127D01*
X105696104Y65935604D01*
X105696108Y65935599D01*
X105822438Y65809269D01*
X105822443Y65809265D01*
X105966966Y65704264D01*
X106126146Y65623156D01*
X106296061Y65567947D01*
X106311839Y65565448D01*
X106311840Y65565449D01*
X106311840Y66386184D01*
X106327900Y66370124D01*
X106414779Y66319964D01*
X106511680Y66294000D01*
X106612000Y66294000D01*
X106708901Y66319964D01*
X106795780Y66370124D01*
X106811840Y66386184D01*
X106811840Y65565448D01*
X106827618Y65567947D01*
X106997533Y65623156D01*
X107156713Y65704264D01*
X107301236Y65809265D01*
X107301241Y65809269D01*
X107427571Y65935599D01*
X107427575Y65935604D01*
X107532576Y66080127D01*
X107613684Y66239307D01*
X107668893Y66409222D01*
X107671392Y66425000D01*
X106850656Y66425000D01*
X106866716Y66441060D01*
X106916876Y66527939D01*
X106942840Y66624840D01*
X106942840Y66725160D01*
X106916876Y66822061D01*
X106866716Y66908940D01*
X106850656Y66925000D01*
X107671392Y66925000D01*
X107671392Y66925001D01*
X107668893Y66940779D01*
X107613684Y67110694D01*
X107532576Y67269874D01*
X107427575Y67414397D01*
X107427571Y67414402D01*
X107301241Y67540732D01*
X107301236Y67540736D01*
X107156713Y67645737D01*
X106997531Y67726845D01*
X106827622Y67782053D01*
X106827615Y67782054D01*
X106811840Y67784554D01*
X106811840Y66963816D01*
X106795780Y66979876D01*
X106708901Y67030036D01*
X106612000Y67056000D01*
X106511680Y67056000D01*
X106414779Y67030036D01*
X106327900Y66979876D01*
X106311840Y66963816D01*
X106311840Y67784553D01*
X106311839Y67784554D01*
X106296064Y67782054D01*
X106296057Y67782053D01*
X106126148Y67726845D01*
X105966966Y67645737D01*
X105822443Y67540736D01*
X105822438Y67540732D01*
X105696108Y67414402D01*
X105696104Y67414397D01*
X105591103Y67269874D01*
X105509995Y67110694D01*
X105454786Y66940779D01*
X105452287Y66925001D01*
X104520031Y66925001D01*
X104616710Y66974262D01*
X104635968Y66988253D01*
X104635969Y66988254D01*
X104761237Y67079265D01*
X104887571Y67205599D01*
X104887575Y67205604D01*
X104992576Y67350127D01*
X105073684Y67509307D01*
X105128893Y67679222D01*
X105131392Y67695000D01*
X104310656Y67695000D01*
X104326716Y67711060D01*
X104376876Y67797939D01*
X104402840Y67894840D01*
X104402840Y67995160D01*
X104376876Y68092061D01*
X104326716Y68178940D01*
X104310656Y68195000D01*
X105131392Y68195000D01*
X105131392Y68195001D01*
X105128893Y68210779D01*
X105073684Y68380694D01*
X104992576Y68539874D01*
X104887575Y68684397D01*
X104887571Y68684402D01*
X104761241Y68810732D01*
X104761236Y68810736D01*
X104616713Y68915737D01*
X104457531Y68996845D01*
X104287622Y69052053D01*
X104287615Y69052054D01*
X104271840Y69054554D01*
X104271840Y68233816D01*
X104255780Y68249876D01*
X104168901Y68300036D01*
X104072000Y68326000D01*
X103971680Y68326000D01*
X103874779Y68300036D01*
X103787900Y68249876D01*
X103771840Y68233816D01*
X103771840Y69054553D01*
X103771839Y69054554D01*
X103756064Y69052054D01*
X103756057Y69052053D01*
X103586148Y68996845D01*
X103426966Y68915737D01*
X103282443Y68810736D01*
X103282438Y68810732D01*
X103156108Y68684402D01*
X103156104Y68684397D01*
X103051103Y68539874D01*
X102969995Y68380694D01*
X102914786Y68210779D01*
X102912287Y68195001D01*
X102912288Y68195000D01*
X103733024Y68195000D01*
X103716964Y68178940D01*
X103666804Y68092061D01*
X103640840Y67995160D01*
X103640840Y67894840D01*
X103666804Y67797939D01*
X103716964Y67711060D01*
X103733024Y67695000D01*
X102915280Y67695000D01*
X102848241Y67714685D01*
X102827599Y67731319D01*
X102533712Y68025207D01*
X102533708Y68025210D01*
X102489374Y68054833D01*
X102402605Y68112811D01*
X102402592Y68112818D01*
X102256921Y68173156D01*
X102256909Y68173159D01*
X102102265Y68203920D01*
X102102262Y68203920D01*
X99291672Y68203920D01*
X99224633Y68223605D01*
X99203989Y68240240D01*
X99194353Y68249876D01*
X98580985Y68863268D01*
X98286679Y69157586D01*
X98280832Y69163433D01*
X98280829Y69163439D01*
X98219755Y69224513D01*
X98219752Y69224516D01*
X98219751Y69224518D01*
X98178390Y69265880D01*
X98178388Y69265882D01*
X98169342Y69274928D01*
X98169335Y69274933D01*
X98169329Y69274939D01*
X98086646Y69330186D01*
X98056851Y69350095D01*
X110506340Y69350095D01*
X110506340Y69079906D01*
X110536589Y68811442D01*
X110536590Y68811433D01*
X110536591Y68811429D01*
X110549980Y68752769D01*
X110596712Y68548021D01*
X110685946Y68293004D01*
X110803171Y68049584D01*
X110803173Y68049581D01*
X110946917Y67820813D01*
X111115372Y67609578D01*
X111306418Y67418532D01*
X111517653Y67250077D01*
X111746421Y67106333D01*
X111989845Y66989106D01*
X112244860Y66899873D01*
X112244862Y66899873D01*
X112244863Y66899872D01*
X112508269Y66839751D01*
X112776745Y66809501D01*
X112776746Y66809500D01*
X112776750Y66809500D01*
X113046934Y66809500D01*
X113046934Y66809501D01*
X113315411Y66839751D01*
X113578817Y66899872D01*
X113833835Y66989106D01*
X114077259Y67106333D01*
X114306027Y67250077D01*
X114517262Y67418532D01*
X114708308Y67609578D01*
X114876763Y67820813D01*
X115020507Y68049581D01*
X115137734Y68293005D01*
X115226968Y68548023D01*
X115287089Y68811429D01*
X115317340Y69079910D01*
X115317340Y69350090D01*
X115287089Y69618571D01*
X115226968Y69881977D01*
X115137734Y70136995D01*
X115020507Y70380419D01*
X114876763Y70609187D01*
X114708308Y70820422D01*
X114517262Y71011468D01*
X114306027Y71179923D01*
X114077259Y71323667D01*
X114077256Y71323669D01*
X113833836Y71440894D01*
X113578818Y71530128D01*
X113578820Y71530128D01*
X113381262Y71575219D01*
X113315411Y71590249D01*
X113315407Y71590250D01*
X113315398Y71590251D01*
X113046934Y71620500D01*
X113046930Y71620500D01*
X112776750Y71620500D01*
X112776746Y71620500D01*
X112508281Y71590251D01*
X112508269Y71590249D01*
X112244860Y71530128D01*
X111989843Y71440894D01*
X111746423Y71323669D01*
X111517654Y71179924D01*
X111306418Y71011469D01*
X111115371Y70820422D01*
X110946916Y70609186D01*
X110803171Y70380417D01*
X110685946Y70136997D01*
X110596712Y69881980D01*
X110536591Y69618571D01*
X110536589Y69618559D01*
X110506340Y69350095D01*
X98056851Y69350095D01*
X98038233Y69362536D01*
X98038227Y69362539D01*
X98038219Y69362544D01*
X98037701Y69362759D01*
X98037699Y69362760D01*
X97969573Y69390978D01*
X97969571Y69390980D01*
X97969571Y69390979D01*
X97919805Y69411594D01*
X97892553Y69422883D01*
X97892551Y69422884D01*
X97892550Y69422884D01*
X97892540Y69422886D01*
X97892537Y69422887D01*
X97829347Y69435457D01*
X97811155Y69439076D01*
X97737897Y69453649D01*
X97737895Y69453649D01*
X97737884Y69453650D01*
X97737882Y69453650D01*
X97659056Y69453650D01*
X97580214Y69453652D01*
X97580204Y69453650D01*
X95492218Y69453650D01*
X95492214Y69453650D01*
X95399932Y69435295D01*
X95399932Y69435294D01*
X95381128Y69431554D01*
X95356738Y69426702D01*
X95356735Y69426702D01*
X95337566Y69422888D01*
X95337564Y69422888D01*
X95337563Y69422887D01*
X95310310Y69411599D01*
X95310296Y69411594D01*
X95191883Y69362546D01*
X95191874Y69362541D01*
X95060774Y69274942D01*
X95060769Y69274938D01*
X94954421Y69168592D01*
X94954422Y69168591D01*
X94716718Y68930891D01*
X94655394Y68897407D01*
X94619321Y68894954D01*
X94615046Y68895290D01*
X94615042Y68895290D01*
X94410338Y68895290D01*
X94386019Y68891439D01*
X94208155Y68863268D01*
X94013466Y68800009D01*
X93831076Y68707075D01*
X93665476Y68586762D01*
X93520722Y68442008D01*
X93520718Y68442003D01*
X93460846Y68359595D01*
X93405516Y68316929D01*
X93335903Y68310950D01*
X93274108Y68343555D01*
X93260213Y68359591D01*
X93223998Y68409436D01*
X93084816Y68548618D01*
X92925575Y68664314D01*
X92886150Y68684402D01*
X92750199Y68753673D01*
X92562996Y68814500D01*
X92368592Y68845290D01*
X92368587Y68845290D01*
X92203110Y68845290D01*
X92136071Y68864975D01*
X92115429Y68881609D01*
X91722102Y69274937D01*
X91722098Y69274940D01*
X91590995Y69362541D01*
X91590982Y69362548D01*
X91445311Y69422886D01*
X91445299Y69422889D01*
X91290655Y69453650D01*
X91290652Y69453650D01*
X89262512Y69453650D01*
X89104827Y69453650D01*
X89104824Y69453650D01*
X88950260Y69422906D01*
X88950261Y69422905D01*
X88950178Y69422889D01*
X88950165Y69422885D01*
X88804497Y69362548D01*
X88804484Y69362541D01*
X88673504Y69275021D01*
X88673400Y69274952D01*
X88673383Y69274941D01*
X88673375Y69274935D01*
X88131464Y68733024D01*
X88070141Y68699539D01*
X88024386Y68698232D01*
X87989987Y68703680D01*
X87777413Y68703680D01*
X87777410Y68703680D01*
X87743005Y68698232D01*
X87673712Y68707189D01*
X87635930Y68733025D01*
X86846870Y69522088D01*
X86846869Y69522089D01*
X86735369Y69633589D01*
X86735368Y69633590D01*
X86735367Y69633591D01*
X86650042Y69690603D01*
X86650037Y69690606D01*
X86648361Y69691726D01*
X86604261Y69721193D01*
X86604256Y69721195D01*
X86594132Y69725389D01*
X86594130Y69725390D01*
X86579261Y69731549D01*
X86579261Y69731550D01*
X86458583Y69781536D01*
X86458573Y69781539D01*
X86303927Y69812300D01*
X86303925Y69812300D01*
X86303922Y69812300D01*
X76075642Y69812300D01*
X75917957Y69812300D01*
X75917954Y69812300D01*
X75763370Y69781552D01*
X75763371Y69781551D01*
X75763308Y69781539D01*
X75763295Y69781535D01*
X75617627Y69721198D01*
X75617614Y69721191D01*
X75489581Y69635642D01*
X75489582Y69635641D01*
X75486511Y69633589D01*
X75486504Y69633584D01*
X73964031Y68111109D01*
X73902708Y68077624D01*
X73876350Y68074790D01*
X71351478Y68074790D01*
X71284439Y68094475D01*
X71251160Y68125904D01*
X71245983Y68133029D01*
X71147029Y68269227D01*
X70985587Y68430669D01*
X70800878Y68564869D01*
X70597453Y68668520D01*
X70380310Y68739075D01*
X70154812Y68774790D01*
X70154807Y68774790D01*
X69926493Y68774790D01*
X69926488Y68774790D01*
X69700989Y68739075D01*
X69483846Y68668520D01*
X69280421Y68564869D01*
X69095711Y68430668D01*
X68934272Y68269229D01*
X68901124Y68223605D01*
X68879561Y68193925D01*
X68870659Y68181673D01*
X68815328Y68139008D01*
X68745715Y68133029D01*
X68683920Y68165635D01*
X68670023Y68181674D01*
X68606650Y68268899D01*
X68606645Y68268905D01*
X68445264Y68430286D01*
X68260616Y68564441D01*
X68057252Y68668061D01*
X67840191Y68738587D01*
X67750650Y68752769D01*
X67750650Y67765038D01*
X67712942Y67786808D01*
X67573059Y67824290D01*
X67428241Y67824290D01*
X67288358Y67786808D01*
X67250650Y67765038D01*
X67250650Y68752769D01*
X67250649Y68752769D01*
X67161108Y68738587D01*
X66944047Y68668061D01*
X66740683Y68564441D01*
X66556035Y68430286D01*
X66394653Y68268904D01*
X66331276Y68181673D01*
X66275945Y68139007D01*
X66206332Y68133029D01*
X66144537Y68165635D01*
X66130640Y68181674D01*
X66123417Y68191615D01*
X66067029Y68269227D01*
X65905587Y68430669D01*
X65720878Y68564869D01*
X65517453Y68668520D01*
X65300310Y68739075D01*
X65074812Y68774790D01*
X65074807Y68774790D01*
X64846493Y68774790D01*
X64846488Y68774790D01*
X64620989Y68739075D01*
X64403846Y68668520D01*
X64200421Y68564869D01*
X64015711Y68430668D01*
X63854272Y68269229D01*
X63720071Y68084519D01*
X63616420Y67881094D01*
X63545865Y67663951D01*
X63510150Y67438453D01*
X63510150Y67110128D01*
X63545865Y66884630D01*
X63616420Y66667487D01*
X63695370Y66512540D01*
X63720071Y66464062D01*
X63854271Y66279353D01*
X64015713Y66117911D01*
X64109036Y66050108D01*
X64151701Y65994778D01*
X64160150Y65949790D01*
X64160150Y63737744D01*
X64190911Y63583101D01*
X64190914Y63583089D01*
X64251252Y63437418D01*
X64251259Y63437405D01*
X64338859Y63306303D01*
X64338860Y63306302D01*
X64338861Y63306301D01*
X64547252Y63097911D01*
X64580736Y63036590D01*
X64583570Y63010231D01*
X64583570Y61512040D01*
X64563885Y61445001D01*
X64511081Y61399246D01*
X64459575Y61388040D01*
X64436152Y61388040D01*
X64436143Y61388039D01*
X64376536Y61381632D01*
X64241691Y61331338D01*
X64241684Y61331334D01*
X64126475Y61245088D01*
X64126472Y61245085D01*
X64040226Y61129876D01*
X64040222Y61129869D01*
X63989928Y60995023D01*
X63983521Y60935424D01*
X63983520Y60935405D01*
X63983520Y59770481D01*
X63963835Y59703442D01*
X63947201Y59682800D01*
X62815446Y58551044D01*
X61684101Y57419699D01*
X61654473Y57390071D01*
X61572599Y57308198D01*
X61484999Y57177096D01*
X61484992Y57177083D01*
X61424654Y57031412D01*
X61424651Y57031400D01*
X61393890Y56876757D01*
X61393890Y55466906D01*
X61374205Y55399867D01*
X61357570Y55379224D01*
X58825603Y52847300D01*
X58764280Y52813816D01*
X58728200Y52811364D01*
X58723928Y52811700D01*
X58723922Y52811700D01*
X58519218Y52811700D01*
X58494899Y52807849D01*
X58317035Y52779678D01*
X58122346Y52716419D01*
X57939956Y52623485D01*
X57774356Y52503172D01*
X57629598Y52358414D01*
X57509285Y52192814D01*
X57416351Y52010424D01*
X57353092Y51815735D01*
X57321070Y51613552D01*
X57321070Y51408849D01*
X57353092Y51206666D01*
X57416351Y51011977D01*
X57464950Y50916598D01*
X57507131Y50833813D01*
X57509285Y50829587D01*
X57629598Y50663987D01*
X57774356Y50519229D01*
X57923447Y50410910D01*
X57939960Y50398913D01*
X58014088Y50361143D01*
X58122346Y50305982D01*
X58122348Y50305982D01*
X58122351Y50305980D01*
X58317036Y50242723D01*
X58340943Y50238937D01*
X58404076Y50209010D01*
X58441008Y50149699D01*
X58440012Y50079836D01*
X58421864Y50043580D01*
X58308324Y49887303D01*
X58215391Y49704914D01*
X58152132Y49510225D01*
X58120110Y49308042D01*
X58120110Y49103339D01*
X58152132Y48901156D01*
X58215391Y48706467D01*
X58308325Y48524077D01*
X58428638Y48358477D01*
X58573396Y48213719D01*
X58728359Y48101134D01*
X58739000Y48093403D01*
X58830403Y48046831D01*
X58921386Y48000472D01*
X58921388Y48000472D01*
X58921391Y48000470D01*
X59023164Y47967402D01*
X59116075Y47937213D01*
X59217167Y47921202D01*
X59318258Y47905190D01*
X59318259Y47905190D01*
X59522961Y47905190D01*
X59522962Y47905190D01*
X59725144Y47937213D01*
X59919829Y48000470D01*
X60102220Y48093403D01*
X60209343Y48171232D01*
X60267823Y48213719D01*
X60267825Y48213722D01*
X60267829Y48213724D01*
X60412576Y48358471D01*
X60412969Y48359013D01*
X60412972Y48359015D01*
X60412974Y48359018D01*
X60487939Y48462200D01*
X60532897Y48524080D01*
X60625561Y48705943D01*
X60625828Y48706467D01*
X60625828Y48706468D01*
X60625830Y48706471D01*
X60689087Y48901156D01*
X60693067Y48926288D01*
X60695495Y48934344D01*
X60710175Y48956836D01*
X60721679Y48981103D01*
X60728982Y48985651D01*
X60733684Y48992854D01*
X60758190Y49003838D01*
X60780991Y49018034D01*
X60793755Y49019777D01*
X60797443Y49021429D01*
X60812423Y49022325D01*
X60814223Y49022570D01*
X61695563Y49022570D01*
X61774405Y49022568D01*
X61774415Y49022570D01*
X61774422Y49022570D01*
X61841197Y49035853D01*
X61929061Y49053328D01*
X61929063Y49053330D01*
X61929067Y49053330D01*
X61929073Y49053333D01*
X61929077Y49053333D01*
X62008087Y49086060D01*
X62074743Y49113668D01*
X62074745Y49113670D01*
X62075272Y49113888D01*
X62076388Y49114590D01*
X62079121Y49116591D01*
X62158924Y49169913D01*
X62202324Y49198911D01*
X62205197Y49200687D01*
X62205849Y49201266D01*
X62205856Y49201270D01*
X62205862Y49201277D01*
X62205869Y49201281D01*
X62205886Y49201299D01*
X62207258Y49202515D01*
X62209202Y49204615D01*
X62256768Y49252180D01*
X62435483Y49430888D01*
X62435489Y49430891D01*
X62489774Y49485176D01*
X62546978Y49542377D01*
X62546981Y49542383D01*
X62552342Y49547743D01*
X62552358Y49547762D01*
X62665113Y49660516D01*
X62665123Y49660522D01*
X62739646Y49735048D01*
X62773287Y49768690D01*
X62775378Y49770626D01*
X62776594Y49771996D01*
X62776609Y49772011D01*
X62776612Y49772017D01*
X62776615Y49772020D01*
X62776620Y49772024D01*
X62776623Y49772030D01*
X62777202Y49772681D01*
X62778990Y49775573D01*
X62831546Y49854230D01*
X62863201Y49901606D01*
X62864111Y49902923D01*
X62864207Y49903113D01*
X62864214Y49903121D01*
X62864217Y49903129D01*
X62864222Y49903136D01*
X62864229Y49903154D01*
X62864384Y49903455D01*
X62864997Y49905006D01*
X62888065Y49960701D01*
X62897230Y49982829D01*
X62922902Y50044807D01*
X62924321Y50047912D01*
X62924554Y50048794D01*
X62924558Y50048803D01*
X62924559Y50048811D01*
X62924563Y50048819D01*
X62924569Y50048853D01*
X62924978Y50050397D01*
X62925420Y50053130D01*
X62942038Y50136689D01*
X62955320Y50203458D01*
X62955320Y50203465D01*
X62955322Y50203475D01*
X62955320Y50333373D01*
X62955320Y50361143D01*
X62955319Y50361149D01*
X62955319Y50361160D01*
X62936414Y50456190D01*
X62936414Y50456193D01*
X62925587Y50510624D01*
X62925065Y50513996D01*
X62924771Y50515287D01*
X62922886Y50519839D01*
X62901973Y50570323D01*
X62886565Y50607519D01*
X62879916Y50623570D01*
X62864215Y50661476D01*
X62864208Y50661491D01*
X62813028Y50738085D01*
X62813027Y50738087D01*
X62776611Y50792587D01*
X62776595Y50792607D01*
X62762019Y50807183D01*
X62728534Y50868506D01*
X62725700Y50894864D01*
X62725700Y51517900D01*
X62745385Y51584939D01*
X62762019Y51605581D01*
X62876945Y51720507D01*
X63039910Y51883473D01*
X63101231Y51916956D01*
X63108162Y51918258D01*
X63270774Y51944013D01*
X63465459Y52007270D01*
X63647850Y52100203D01*
X63775314Y52192810D01*
X63813453Y52220519D01*
X63813455Y52220522D01*
X63813459Y52220524D01*
X63958206Y52365271D01*
X63958208Y52365275D01*
X63958211Y52365277D01*
X64019144Y52449146D01*
X64078527Y52530880D01*
X64171460Y52713271D01*
X64234717Y52907956D01*
X64266740Y53110138D01*
X64266740Y53314842D01*
X64234717Y53517024D01*
X64228077Y53537459D01*
X64180006Y53685407D01*
X64171460Y53711709D01*
X64171458Y53711712D01*
X64171458Y53711714D01*
X64137743Y53777883D01*
X64078527Y53894100D01*
X64054006Y53927851D01*
X63958211Y54059704D01*
X63813453Y54204462D01*
X63647853Y54324775D01*
X63647852Y54324776D01*
X63647850Y54324777D01*
X63590893Y54353799D01*
X63465463Y54417709D01*
X63270774Y54480968D01*
X63096235Y54508612D01*
X63068592Y54512990D01*
X63007622Y54512990D01*
X62940583Y54532675D01*
X62894828Y54585479D01*
X62884884Y54654637D01*
X62893647Y54685833D01*
X62898160Y54696365D01*
X62903784Y54704781D01*
X62958833Y54837681D01*
X62962104Y54845578D01*
X62962385Y54846233D01*
X62962553Y54846437D01*
X62963888Y54849260D01*
X62987838Y54969667D01*
X62994890Y55005118D01*
X62994890Y55119017D01*
X62994891Y55162796D01*
X62994890Y55162802D01*
X62994890Y56414971D01*
X63014575Y56482010D01*
X63031204Y56502647D01*
X63266077Y56737520D01*
X64006165Y56737520D01*
X65068334Y56737520D01*
X65063940Y56733126D01*
X65011279Y56641914D01*
X64984020Y56540181D01*
X64984020Y56434859D01*
X65011279Y56333126D01*
X65063940Y56241914D01*
X65068334Y56237520D01*
X64006165Y56237520D01*
X64018493Y56159685D01*
X64018493Y56159682D01*
X64086587Y55950110D01*
X64186633Y55753760D01*
X64316162Y55575479D01*
X64471978Y55419663D01*
X64650259Y55290134D01*
X64846609Y55190088D01*
X65056183Y55121994D01*
X65134019Y55109666D01*
X65134020Y55109666D01*
X65134020Y56171834D01*
X65138414Y56167440D01*
X65229626Y56114779D01*
X65331359Y56087520D01*
X65436681Y56087520D01*
X65538414Y56114779D01*
X65629626Y56167440D01*
X65634020Y56171834D01*
X65634020Y55109666D01*
X65711854Y55121994D01*
X65711857Y55121994D01*
X65921430Y55190088D01*
X66117780Y55290134D01*
X66296061Y55419663D01*
X66451877Y55575479D01*
X66581406Y55753760D01*
X66681452Y55950110D01*
X66749546Y56159682D01*
X66749546Y56159685D01*
X66761875Y56237520D01*
X65699706Y56237520D01*
X65704100Y56241914D01*
X65756761Y56333126D01*
X65784020Y56434859D01*
X65784020Y56540181D01*
X65756761Y56641914D01*
X65704100Y56733126D01*
X65699706Y56737520D01*
X66761875Y56737520D01*
X66749546Y56815356D01*
X66749546Y56815359D01*
X66681452Y57024931D01*
X66581406Y57221281D01*
X66451877Y57399562D01*
X66296061Y57555378D01*
X66117780Y57684907D01*
X65921430Y57784953D01*
X65711856Y57853047D01*
X65634020Y57865376D01*
X65634020Y56803206D01*
X65629626Y56807600D01*
X65538414Y56860261D01*
X65436681Y56887520D01*
X65331359Y56887520D01*
X65229626Y56860261D01*
X65138414Y56807600D01*
X65134020Y56803206D01*
X65134020Y57865376D01*
X65056184Y57853047D01*
X65056181Y57853047D01*
X64846609Y57784953D01*
X64650259Y57684907D01*
X64471978Y57555378D01*
X64316162Y57399562D01*
X64186633Y57221281D01*
X64086587Y57024931D01*
X64018493Y56815359D01*
X64018493Y56815356D01*
X64006165Y56737520D01*
X63266077Y56737520D01*
X65079279Y58550723D01*
X65140602Y58584207D01*
X65166960Y58587041D01*
X66331891Y58587041D01*
X66331892Y58587041D01*
X66391503Y58593449D01*
X66526351Y58643744D01*
X66641566Y58729994D01*
X66727816Y58845209D01*
X66778111Y58980057D01*
X66784520Y59039667D01*
X66784519Y60204595D01*
X66804204Y60271633D01*
X66820838Y60292276D01*
X66848079Y60319516D01*
X67036808Y60508244D01*
X67189008Y60660442D01*
X67250332Y60693926D01*
X67276689Y60696760D01*
X73664518Y60696760D01*
X75660708Y60696760D01*
X75727747Y60677075D01*
X75748388Y60660443D01*
X76177113Y60231733D01*
X76705421Y59703442D01*
X76716540Y59692324D01*
X76750026Y59631001D01*
X76752860Y59604641D01*
X76752860Y56873034D01*
X76783621Y56718391D01*
X76783624Y56718379D01*
X76843962Y56572708D01*
X76843969Y56572695D01*
X76931570Y56441592D01*
X76931573Y56441588D01*
X79445311Y53927851D01*
X79478796Y53866528D01*
X79473812Y53796836D01*
X79431940Y53740903D01*
X79366476Y53716486D01*
X79357630Y53716170D01*
X76864414Y53716170D01*
X76772132Y53697815D01*
X76772132Y53697814D01*
X76753328Y53694074D01*
X76728938Y53689222D01*
X76728935Y53689222D01*
X76709766Y53685408D01*
X76709764Y53685408D01*
X76709763Y53685407D01*
X76682510Y53674119D01*
X76682496Y53674114D01*
X76564083Y53625066D01*
X76564074Y53625061D01*
X76432971Y53537460D01*
X76432967Y53537457D01*
X76380702Y53485191D01*
X76380702Y53485190D01*
X75418134Y52522632D01*
X75418133Y52522632D01*
X75418131Y52522629D01*
X75373224Y52477722D01*
X75306629Y52411128D01*
X75219027Y52280023D01*
X75196181Y52224868D01*
X75196167Y52224832D01*
X75195641Y52223562D01*
X75158684Y52134341D01*
X75158683Y52134338D01*
X75158683Y52134337D01*
X75156152Y52121613D01*
X75156150Y52121607D01*
X75153377Y52107662D01*
X75153376Y52107658D01*
X75127920Y51979689D01*
X75127920Y49356842D01*
X75108235Y49289803D01*
X75055431Y49244048D01*
X74986273Y49234104D01*
X74922717Y49263129D01*
X74903602Y49283956D01*
X74811217Y49411111D01*
X74811217Y49411112D01*
X74655401Y49566928D01*
X74477120Y49696457D01*
X74280770Y49796503D01*
X74071196Y49864597D01*
X73993360Y49876926D01*
X73993360Y48814756D01*
X73988966Y48819150D01*
X73897754Y48871811D01*
X73796021Y48899070D01*
X73690699Y48899070D01*
X73588966Y48871811D01*
X73497754Y48819150D01*
X73493360Y48814756D01*
X73493360Y49876926D01*
X73415524Y49864597D01*
X73415521Y49864597D01*
X73205949Y49796503D01*
X73009599Y49696457D01*
X72831318Y49566928D01*
X72675502Y49411112D01*
X72545973Y49232831D01*
X72445927Y49036481D01*
X72377833Y48826909D01*
X72377833Y48826906D01*
X72365505Y48749070D01*
X73427674Y48749070D01*
X73423280Y48744676D01*
X73370619Y48653464D01*
X73343360Y48551731D01*
X73343360Y48446409D01*
X73370619Y48344676D01*
X73423280Y48253464D01*
X73427674Y48249070D01*
X72365505Y48249070D01*
X72377833Y48171235D01*
X72377833Y48171232D01*
X72445927Y47961660D01*
X72545973Y47765310D01*
X72675502Y47587029D01*
X72831318Y47431213D01*
X73009599Y47301684D01*
X73205949Y47201638D01*
X73415523Y47133544D01*
X73493359Y47121216D01*
X73493360Y47121216D01*
X73493360Y48183384D01*
X73497754Y48178990D01*
X73588966Y48126329D01*
X73690699Y48099070D01*
X73796021Y48099070D01*
X73897754Y48126329D01*
X73988966Y48178990D01*
X73993360Y48183384D01*
X73993360Y47121216D01*
X74071194Y47133544D01*
X74071197Y47133544D01*
X74280770Y47201638D01*
X74477120Y47301684D01*
X74655401Y47431213D01*
X74811217Y47587029D01*
X74811222Y47587035D01*
X74903602Y47714184D01*
X74958932Y47756850D01*
X75028545Y47762829D01*
X75090340Y47730223D01*
X75124697Y47669385D01*
X75127920Y47641299D01*
X75127920Y47567101D01*
X75108235Y47500062D01*
X75091601Y47479420D01*
X74048099Y46435919D01*
X73986776Y46402434D01*
X73960418Y46399600D01*
X72795489Y46399600D01*
X72795483Y46399599D01*
X72735876Y46393192D01*
X72601031Y46342898D01*
X72601024Y46342894D01*
X72485815Y46256648D01*
X72485812Y46256645D01*
X72399566Y46141436D01*
X72399562Y46141429D01*
X72349268Y46006583D01*
X72342861Y45946984D01*
X72342860Y45946965D01*
X72342860Y44782037D01*
X72323175Y44714998D01*
X72306541Y44694356D01*
X72204410Y44592224D01*
X71304136Y43691945D01*
X71222610Y43610419D01*
X71161287Y43576934D01*
X71134929Y43574100D01*
X64025590Y43574100D01*
X63958551Y43593785D01*
X63937909Y43610419D01*
X62546934Y45001394D01*
X62546928Y45001403D01*
X62470384Y45077944D01*
X62470381Y45077947D01*
X62431127Y45117202D01*
X62431093Y45117233D01*
X62251288Y45297030D01*
X62233795Y45314523D01*
X62205819Y45342499D01*
X62205815Y45342502D01*
X62205807Y45342510D01*
X62145190Y45383010D01*
X62145187Y45383012D01*
X62074709Y45430104D01*
X62074694Y45430113D01*
X61998724Y45461578D01*
X61998506Y45461668D01*
X61929027Y45490447D01*
X61929019Y45490449D01*
X61929011Y45490452D01*
X61928288Y45490596D01*
X61841147Y45507928D01*
X61841146Y45507929D01*
X61774385Y45521209D01*
X61774358Y45521212D01*
X61774355Y45521212D01*
X61774351Y45521212D01*
X61695512Y45521210D01*
X60788814Y45521210D01*
X60721775Y45540895D01*
X60701133Y45557529D01*
X60683440Y45575222D01*
X60649955Y45636545D01*
X60648653Y45643478D01*
X60622897Y45806094D01*
X60622210Y45808207D01*
X60577125Y45946965D01*
X60559640Y46000779D01*
X60559638Y46000782D01*
X60559638Y46000784D01*
X60487975Y46141429D01*
X60466707Y46183170D01*
X60413325Y46256645D01*
X60346391Y46348774D01*
X60201633Y46493532D01*
X60036033Y46613845D01*
X60036032Y46613846D01*
X60036030Y46613847D01*
X59978820Y46642997D01*
X59853643Y46706779D01*
X59658954Y46770038D01*
X59484415Y46797682D01*
X59456772Y46802060D01*
X59252068Y46802060D01*
X59227749Y46798209D01*
X59049885Y46770038D01*
X58855196Y46706779D01*
X58672806Y46613845D01*
X58507206Y46493532D01*
X58362448Y46348774D01*
X58242135Y46183174D01*
X58149201Y46000784D01*
X58085942Y45806095D01*
X58056597Y45620813D01*
X58053920Y45603912D01*
X58053920Y45399208D01*
X58055475Y45389391D01*
X58085942Y45197026D01*
X58149201Y45002337D01*
X58188918Y44924390D01*
X58240834Y44822499D01*
X58242135Y44819947D01*
X58362448Y44654347D01*
X58507206Y44509589D01*
X58651302Y44404899D01*
X58672810Y44389273D01*
X58772534Y44338461D01*
X58855196Y44296342D01*
X58855198Y44296342D01*
X58855201Y44296340D01*
X58887640Y44285800D01*
X58998294Y44249846D01*
X59055969Y44210408D01*
X59083167Y44146049D01*
X59071252Y44077203D01*
X59024008Y44025727D01*
X58998294Y44013984D01*
X58855196Y43967489D01*
X58672806Y43874555D01*
X58507206Y43754242D01*
X58362448Y43609484D01*
X58242135Y43443884D01*
X58149201Y43261494D01*
X58085942Y43066805D01*
X58053920Y42864622D01*
X58053920Y42659918D01*
X58057924Y42634637D01*
X58085942Y42457736D01*
X58149201Y42263047D01*
X58201031Y42161327D01*
X58240936Y42083009D01*
X58242135Y42080657D01*
X58362448Y41915057D01*
X58507206Y41770299D01*
X58647915Y41668070D01*
X58672810Y41649983D01*
X58789027Y41590767D01*
X58855196Y41557052D01*
X58855198Y41557052D01*
X58855201Y41557050D01*
X58883907Y41547723D01*
X59049885Y41493793D01*
X59150977Y41477782D01*
X59252068Y41461770D01*
X59252069Y41461770D01*
X59456771Y41461770D01*
X59456772Y41461770D01*
X59658954Y41493793D01*
X59853639Y41557050D01*
X60036030Y41649983D01*
X60133064Y41720482D01*
X60201633Y41770299D01*
X60201635Y41770302D01*
X60201639Y41770304D01*
X60346386Y41915051D01*
X60466707Y42080660D01*
X60480504Y42107740D01*
X60528475Y42158534D01*
X60566792Y42173060D01*
X60621157Y42183873D01*
X60766839Y42244216D01*
X60897949Y42331821D01*
X61837469Y43271341D01*
X61898792Y43304826D01*
X61968483Y43299842D01*
X62012831Y43271341D01*
X63132357Y42151814D01*
X63132361Y42151811D01*
X63263464Y42064210D01*
X63263477Y42064203D01*
X63409148Y42003865D01*
X63409153Y42003863D01*
X63537033Y41978426D01*
X63563803Y41973101D01*
X63563806Y41973100D01*
X63563808Y41973100D01*
X63721493Y41973100D01*
X64147358Y41973100D01*
X64214397Y41953415D01*
X64260152Y41900611D01*
X64270096Y41831453D01*
X64247677Y41776215D01*
X64207184Y41720482D01*
X64107104Y41524067D01*
X64107103Y41524064D01*
X64038985Y41314413D01*
X64004500Y41096682D01*
X64004500Y41094110D01*
X64004223Y41093168D01*
X64004117Y41091819D01*
X64003833Y41091842D01*
X63984815Y41027071D01*
X63968181Y41006429D01*
X63412721Y40450969D01*
X63351398Y40417484D01*
X63325040Y40414650D01*
X60663593Y40414650D01*
X60508950Y40383890D01*
X60508942Y40383888D01*
X60363264Y40323546D01*
X60363254Y40323541D01*
X60232151Y40235940D01*
X60232147Y40235937D01*
X60041819Y40045609D01*
X59980496Y40012124D01*
X59954138Y40009290D01*
X58789209Y40009290D01*
X58789203Y40009289D01*
X58729596Y40002882D01*
X58594751Y39952588D01*
X58594744Y39952584D01*
X58479535Y39866338D01*
X58479532Y39866335D01*
X58393286Y39751126D01*
X58393282Y39751119D01*
X58363286Y39670694D01*
X58321415Y39614760D01*
X58255950Y39590343D01*
X58187677Y39605195D01*
X58159423Y39626346D01*
X58109121Y39676648D01*
X57930840Y39806177D01*
X57734490Y39906223D01*
X57524916Y39974317D01*
X57447080Y39986646D01*
X57447080Y38924476D01*
X57442686Y38928870D01*
X57351474Y38981531D01*
X57249741Y39008790D01*
X57144419Y39008790D01*
X57042686Y38981531D01*
X56951474Y38928870D01*
X56947080Y38924476D01*
X56947080Y39986646D01*
X56869244Y39974317D01*
X56869241Y39974317D01*
X56659669Y39906223D01*
X56463319Y39806177D01*
X56285038Y39676648D01*
X56129222Y39520832D01*
X55999693Y39342551D01*
X55899647Y39146201D01*
X55831553Y38936629D01*
X55831553Y38936626D01*
X55819225Y38858790D01*
X56881394Y38858790D01*
X56877000Y38854396D01*
X56824339Y38763184D01*
X56797080Y38661451D01*
X56797080Y38556129D01*
X56824339Y38454396D01*
X56877000Y38363184D01*
X56881394Y38358790D01*
X55819225Y38358790D01*
X55831553Y38280955D01*
X55831553Y38280952D01*
X55899647Y38071380D01*
X55936096Y37999845D01*
X55948992Y37931175D01*
X55922715Y37866435D01*
X55865609Y37826178D01*
X55795803Y37823186D01*
X55752726Y37843232D01*
X55738503Y37853565D01*
X55738502Y37853566D01*
X55738500Y37853567D01*
X55670472Y37888229D01*
X55556113Y37946499D01*
X55361424Y38009758D01*
X55186885Y38037402D01*
X55159242Y38041780D01*
X54954538Y38041780D01*
X54887144Y38031106D01*
X54752354Y38009757D01*
X54752347Y38009756D01*
X54698483Y37992254D01*
X54628642Y37990259D01*
X54572485Y38022504D01*
X54523609Y38071380D01*
X53956276Y38638716D01*
X53860947Y38734046D01*
X53064859Y39530138D01*
X53031374Y39591461D01*
X53028540Y39617819D01*
X53028540Y49730202D01*
X53018120Y49782591D01*
X53018120Y49782592D01*
X53001808Y49864597D01*
X52997778Y49884857D01*
X52937434Y50030539D01*
X52937432Y50030542D01*
X52937430Y50030546D01*
X52849829Y50161649D01*
X52849826Y50161653D01*
X45564002Y57447477D01*
X45563998Y57447480D01*
X45432895Y57535081D01*
X45432882Y57535088D01*
X45287211Y57595426D01*
X45287199Y57595429D01*
X45132555Y57626190D01*
X45132552Y57626190D01*
X41230497Y57626190D01*
X41163458Y57645875D01*
X41142816Y57662508D01*
X41120417Y57684907D01*
X41025806Y57779518D01*
X40924603Y57853047D01*
X40866563Y57895216D01*
X40689947Y57985205D01*
X40639150Y58033179D01*
X40622355Y58101000D01*
X40644892Y58167135D01*
X40689947Y58206175D01*
X40866563Y58296165D01*
X40866562Y58296165D01*
X40866565Y58296166D01*
X41025806Y58411862D01*
X41164988Y58551044D01*
X41280684Y58710285D01*
X41370044Y58885665D01*
X41430869Y59072864D01*
X41437764Y59116398D01*
X41461660Y59267268D01*
X41461660Y59464113D01*
X41430869Y59658517D01*
X41370042Y59845720D01*
X41322903Y59938235D01*
X41280684Y60021095D01*
X41164988Y60180336D01*
X41025806Y60319518D01*
X40866565Y60435214D01*
X40691189Y60524573D01*
X40503986Y60585400D01*
X40309582Y60616190D01*
X40309577Y60616190D01*
X39612743Y60616190D01*
X39612738Y60616190D01*
X39418333Y60585400D01*
X39231130Y60524573D01*
X39055754Y60435214D01*
X39027060Y60414366D01*
X38896514Y60319518D01*
X38896512Y60319516D01*
X38896511Y60319516D01*
X38757334Y60180339D01*
X38757334Y60180338D01*
X38757332Y60180336D01*
X38720421Y60129532D01*
X38641636Y60021096D01*
X38552277Y59845720D01*
X38491450Y59658517D01*
X38460660Y59464113D01*
X38460660Y59267268D01*
X38491450Y59072864D01*
X38552277Y58885661D01*
X38614716Y58763119D01*
X38641636Y58710285D01*
X38757332Y58551044D01*
X38896514Y58411862D01*
X39055755Y58296166D01*
X39137528Y58254501D01*
X39232373Y58206175D01*
X39283169Y58158201D01*
X39299964Y58090380D01*
X39277427Y58024245D01*
X39232373Y57985205D01*
X39055754Y57895214D01*
X38997717Y57853047D01*
X38896514Y57779518D01*
X38896512Y57779516D01*
X38896511Y57779516D01*
X38757334Y57640339D01*
X38757334Y57640338D01*
X38757332Y57640336D01*
X38725528Y57596562D01*
X38641636Y57481096D01*
X38552277Y57305720D01*
X38491450Y57118517D01*
X38460660Y56924113D01*
X38460660Y56727268D01*
X38491450Y56532864D01*
X38552277Y56345661D01*
X38636901Y56179578D01*
X38641636Y56170285D01*
X38757332Y56011044D01*
X38896514Y55871862D01*
X39055755Y55756166D01*
X39179152Y55693293D01*
X39232373Y55666175D01*
X39283169Y55618201D01*
X39299964Y55550380D01*
X39277427Y55484245D01*
X39232373Y55445205D01*
X39055754Y55355214D01*
X38966181Y55290134D01*
X38896514Y55239518D01*
X38896512Y55239516D01*
X38896511Y55239516D01*
X38757334Y55100339D01*
X38757334Y55100338D01*
X38757332Y55100336D01*
X38724705Y55055429D01*
X38641636Y54941096D01*
X38552277Y54765720D01*
X38491450Y54578517D01*
X38460660Y54384113D01*
X38460660Y54187268D01*
X38491450Y53992864D01*
X38552277Y53805661D01*
X38613550Y53685407D01*
X38641636Y53630285D01*
X38757332Y53471044D01*
X38896514Y53331862D01*
X38987702Y53265610D01*
X39055756Y53216165D01*
X39232923Y53125895D01*
X39283720Y53077921D01*
X39300515Y53010100D01*
X39277978Y52943965D01*
X39232924Y52904925D01*
X39056016Y52814786D01*
X38896838Y52699135D01*
X38757715Y52560012D01*
X38642064Y52400834D01*
X38552741Y52225528D01*
X38491941Y52038407D01*
X38485176Y51995690D01*
X39528148Y51995690D01*
X39495235Y51938683D01*
X39461160Y51811516D01*
X39461160Y51679864D01*
X39495235Y51552697D01*
X39528148Y51495690D01*
X38485176Y51495690D01*
X38491941Y51452974D01*
X38552741Y51265853D01*
X38642064Y51090547D01*
X38757715Y50931369D01*
X38896838Y50792246D01*
X39056016Y50676595D01*
X39232924Y50586456D01*
X39283720Y50538482D01*
X39300515Y50470661D01*
X39277978Y50404526D01*
X39232924Y50365486D01*
X39055754Y50275214D01*
X38896515Y50159519D01*
X38779504Y50042508D01*
X38718181Y50009024D01*
X38691823Y50006190D01*
X38021153Y50006190D01*
X37866510Y49975430D01*
X37866502Y49975428D01*
X37720824Y49915086D01*
X37720814Y49915081D01*
X37589711Y49827480D01*
X37589707Y49827477D01*
X37052035Y49289803D01*
X36878511Y49116279D01*
X36848679Y49086447D01*
X36767009Y49004778D01*
X36679409Y48873676D01*
X36679402Y48873663D01*
X36619064Y48727992D01*
X36619061Y48727980D01*
X36588300Y48573337D01*
X36588300Y37071344D01*
X36619061Y36916701D01*
X36619064Y36916689D01*
X36679402Y36771018D01*
X36679409Y36771005D01*
X36767010Y36639902D01*
X36767013Y36639898D01*
X37764235Y35642676D01*
X37797720Y35581353D01*
X37792736Y35511661D01*
X37764235Y35467314D01*
X36272181Y33975260D01*
X36210858Y33941775D01*
X36141166Y33946759D01*
X36085233Y33988631D01*
X36060816Y34054095D01*
X36060500Y34062941D01*
X36060500Y61199334D01*
X36080185Y61266373D01*
X36096819Y61287015D01*
X36770995Y61961191D01*
X36832318Y61994676D01*
X36858676Y61997510D01*
X54925890Y61997510D01*
X54925892Y61997510D01*
X55053186Y62031618D01*
X55167314Y62097510D01*
X55260500Y62190696D01*
X55326392Y62304824D01*
X55360500Y62432118D01*
X55360500Y66884043D01*
X57484500Y66884043D01*
X57484500Y66611958D01*
X57507679Y66435908D01*
X57520013Y66342221D01*
X57536859Y66279352D01*
X57590430Y66079419D01*
X57694544Y65828067D01*
X57694548Y65828058D01*
X57772540Y65692972D01*
X57830582Y65592440D01*
X57830585Y65592436D01*
X57830589Y65592430D01*
X57996209Y65376592D01*
X57996217Y65376583D01*
X58188583Y65184217D01*
X58188591Y65184210D01*
X58404429Y65018590D01*
X58404432Y65018588D01*
X58404440Y65018582D01*
X58640060Y64882547D01*
X58807634Y64813136D01*
X58891418Y64778431D01*
X58891419Y64778431D01*
X58891421Y64778430D01*
X59154221Y64708013D01*
X59423965Y64672500D01*
X59423972Y64672500D01*
X59696028Y64672500D01*
X59696035Y64672500D01*
X59965779Y64708013D01*
X60228579Y64778430D01*
X60479940Y64882547D01*
X60715560Y65018582D01*
X60931408Y65184209D01*
X60931412Y65184214D01*
X60931417Y65184217D01*
X61123783Y65376583D01*
X61123786Y65376588D01*
X61123791Y65376592D01*
X61289418Y65592440D01*
X61425453Y65828060D01*
X61529570Y66079421D01*
X61599987Y66342221D01*
X61635500Y66611965D01*
X61635500Y66884035D01*
X61599987Y67153779D01*
X61529570Y67416579D01*
X61522835Y67432838D01*
X61478144Y67540732D01*
X61425453Y67667940D01*
X61289418Y67903560D01*
X61219130Y67995160D01*
X61170882Y68058038D01*
X61123791Y68119408D01*
X61123790Y68119409D01*
X61123783Y68119417D01*
X60931417Y68311783D01*
X60931408Y68311791D01*
X60715570Y68477411D01*
X60715564Y68477415D01*
X60715560Y68477418D01*
X60592238Y68548618D01*
X60479942Y68613452D01*
X60479933Y68613456D01*
X60228581Y68717570D01*
X60093837Y68753674D01*
X59965779Y68787987D01*
X59905835Y68795879D01*
X59696042Y68823500D01*
X59696035Y68823500D01*
X59423965Y68823500D01*
X59423957Y68823500D01*
X59184192Y68791933D01*
X59154221Y68787987D01*
X59104969Y68774790D01*
X58891418Y68717570D01*
X58640066Y68613456D01*
X58640057Y68613452D01*
X58404446Y68477422D01*
X58404429Y68477411D01*
X58188591Y68311791D01*
X57996209Y68119409D01*
X57830589Y67903571D01*
X57830578Y67903554D01*
X57694548Y67667943D01*
X57694544Y67667934D01*
X57590430Y67416582D01*
X57545910Y67250429D01*
X57520696Y67156326D01*
X57520013Y67153778D01*
X57484500Y66884043D01*
X55360500Y66884043D01*
X55360500Y70170914D01*
X55380185Y70237953D01*
X55396819Y70258595D01*
X57012335Y71874111D01*
X57073658Y71907596D01*
X57100016Y71910430D01*
X118143235Y71910430D01*
X118210274Y71890745D01*
G37*
G04 #@! TD.AperFunction*
G04 #@! TA.AperFunction,Conductor*
G36*
X83765179Y26143895D02*
G01*
X83810934Y26091091D01*
X83820878Y26021933D01*
X83791853Y25958377D01*
X83785821Y25951899D01*
X83429306Y25595386D01*
X83367983Y25561901D01*
X83303307Y25565136D01*
X83237262Y25586595D01*
X83114806Y25605990D01*
X83019532Y25621080D01*
X82799088Y25621080D01*
X82726511Y25609585D01*
X82581357Y25586595D01*
X82371706Y25518477D01*
X82371703Y25518476D01*
X82175284Y25418393D01*
X81996951Y25288828D01*
X81996946Y25288824D01*
X81841066Y25132944D01*
X81841062Y25132939D01*
X81739628Y24993326D01*
X81684298Y24950660D01*
X81614685Y24944681D01*
X81552890Y24977287D01*
X81538992Y24993326D01*
X81437557Y25132939D01*
X81437553Y25132944D01*
X81281673Y25288824D01*
X81281668Y25288828D01*
X81103335Y25418393D01*
X81103334Y25418394D01*
X81103332Y25418395D01*
X81040406Y25450458D01*
X80906916Y25518476D01*
X80906913Y25518477D01*
X80697262Y25586595D01*
X80574806Y25605990D01*
X80479532Y25621080D01*
X80259088Y25621080D01*
X80186511Y25609585D01*
X80041357Y25586595D01*
X79831706Y25518477D01*
X79831703Y25518476D01*
X79635284Y25418393D01*
X79456951Y25288828D01*
X79456946Y25288824D01*
X79301066Y25132944D01*
X79301062Y25132939D01*
X79171497Y24954606D01*
X79071414Y24758187D01*
X79071411Y24758179D01*
X79063575Y24734061D01*
X79024137Y24676386D01*
X78959778Y24649189D01*
X78890931Y24661105D01*
X78839456Y24708350D01*
X78824028Y24748190D01*
X78811149Y24812933D01*
X78791361Y24912415D01*
X78764667Y24976861D01*
X78715945Y25094488D01*
X78715938Y25094501D01*
X78606449Y25258362D01*
X78606446Y25258366D01*
X78467095Y25397717D01*
X78467091Y25397720D01*
X78303230Y25507209D01*
X78303217Y25507216D01*
X78121149Y25582630D01*
X78121139Y25582633D01*
X77927853Y25621080D01*
X77927851Y25621080D01*
X77730769Y25621080D01*
X77730767Y25621080D01*
X77537480Y25582633D01*
X77537470Y25582630D01*
X77355402Y25507216D01*
X77355389Y25507209D01*
X77191528Y25397720D01*
X77191524Y25397717D01*
X77052173Y25258366D01*
X77052170Y25258362D01*
X76942681Y25094501D01*
X76942674Y25094488D01*
X76867260Y24912420D01*
X76867257Y24912410D01*
X76828810Y24719124D01*
X76828810Y24719121D01*
X76828810Y23722039D01*
X76828810Y23722037D01*
X76828809Y23722037D01*
X76867257Y23528751D01*
X76867260Y23528741D01*
X76942674Y23346673D01*
X76942681Y23346661D01*
X77007912Y23249037D01*
X77028790Y23182360D01*
X77028810Y23180146D01*
X77028810Y21765154D01*
X77059571Y21610511D01*
X77059574Y21610499D01*
X77119912Y21464828D01*
X77119919Y21464815D01*
X77207520Y21333712D01*
X77207523Y21333708D01*
X82779451Y15761781D01*
X82848826Y15692406D01*
X82890952Y15650280D01*
X83022054Y15562680D01*
X83022058Y15562678D01*
X83022061Y15562676D01*
X83025368Y15561307D01*
X83029653Y15559531D01*
X83084057Y15515689D01*
X83106121Y15449395D01*
X83088841Y15381696D01*
X83037704Y15334086D01*
X82982200Y15320970D01*
X81398817Y15320970D01*
X81397801Y15320920D01*
X75980649Y15320920D01*
X75979633Y15320970D01*
X75974042Y15320970D01*
X73240852Y15320970D01*
X70436893Y15320970D01*
X70279208Y15320970D01*
X70273617Y15320970D01*
X70272601Y15320920D01*
X69498961Y15320920D01*
X69431922Y15340605D01*
X69386167Y15393409D01*
X69376223Y15462567D01*
X69405248Y15526123D01*
X69411280Y15532601D01*
X69513536Y15634858D01*
X69513539Y15634861D01*
X69601144Y15765971D01*
X69661488Y15911653D01*
X69692250Y16066308D01*
X69692250Y16223993D01*
X69692250Y18153377D01*
X69711935Y18220416D01*
X69735712Y18247662D01*
X69738960Y18250438D01*
X69738969Y18250444D01*
X69883716Y18395191D01*
X69883718Y18395195D01*
X69883721Y18395197D01*
X69975786Y18521916D01*
X70004037Y18560800D01*
X70096970Y18743191D01*
X70160227Y18937876D01*
X70192250Y19140058D01*
X70192250Y19344762D01*
X70186260Y19382583D01*
X70160227Y19546945D01*
X70108974Y19704684D01*
X70096970Y19741629D01*
X70096968Y19741632D01*
X70096968Y19741634D01*
X70053684Y19826583D01*
X70004037Y19924020D01*
X69979565Y19957703D01*
X69883721Y20089624D01*
X69738963Y20234382D01*
X69573363Y20354695D01*
X69573362Y20354696D01*
X69573360Y20354697D01*
X69502836Y20390631D01*
X69390973Y20447629D01*
X69196284Y20510888D01*
X69021745Y20538532D01*
X68994102Y20542910D01*
X68789398Y20542910D01*
X68765079Y20539059D01*
X68587215Y20510888D01*
X68392526Y20447629D01*
X68210136Y20354695D01*
X68044536Y20234382D01*
X67899778Y20089624D01*
X67779465Y19924024D01*
X67686531Y19741634D01*
X67623272Y19546945D01*
X67591250Y19344762D01*
X67591250Y19140059D01*
X67623272Y18937876D01*
X67686531Y18743187D01*
X67779465Y18560797D01*
X67899778Y18395197D01*
X68044529Y18250446D01*
X68047788Y18247662D01*
X68085977Y18189152D01*
X68091250Y18153377D01*
X68091250Y16528090D01*
X68071565Y16461051D01*
X68054931Y16440409D01*
X67081451Y15466929D01*
X67025366Y15410844D01*
X66971760Y15357238D01*
X66910437Y15323754D01*
X66884079Y15320920D01*
X64982449Y15320920D01*
X64981433Y15320970D01*
X64975842Y15320970D01*
X62305032Y15320970D01*
X59768893Y15320970D01*
X59611208Y15320970D01*
X59605617Y15320970D01*
X59604601Y15320920D01*
X53784340Y15320920D01*
X53717301Y15340605D01*
X53671546Y15393409D01*
X53661602Y15462567D01*
X53690627Y15526123D01*
X53696659Y15532601D01*
X54272899Y16108841D01*
X54334222Y16142326D01*
X54360580Y16145160D01*
X63013234Y16145160D01*
X63013235Y16145161D01*
X63167887Y16175923D01*
X63313569Y16236266D01*
X63444679Y16323871D01*
X69917844Y22797038D01*
X69979165Y22830521D01*
X70024916Y22831828D01*
X70099088Y22820080D01*
X70099090Y22820080D01*
X70319531Y22820080D01*
X70319532Y22820080D01*
X70537261Y22854565D01*
X70746916Y22922685D01*
X70943332Y23022765D01*
X71121675Y23152338D01*
X71277552Y23308215D01*
X71379301Y23448263D01*
X71434630Y23490927D01*
X71504243Y23496906D01*
X71566039Y23464301D01*
X71579937Y23448262D01*
X71681452Y23308539D01*
X71837268Y23152723D01*
X72015549Y23023194D01*
X72211899Y22923148D01*
X72421473Y22855054D01*
X72499309Y22842726D01*
X72499310Y22842726D01*
X72499310Y23904894D01*
X72503704Y23900500D01*
X72594916Y23847839D01*
X72696649Y23820580D01*
X72801971Y23820580D01*
X72903704Y23847839D01*
X72994916Y23900500D01*
X72999310Y23904894D01*
X72999310Y22842726D01*
X73077144Y22855054D01*
X73077147Y22855054D01*
X73286720Y22923148D01*
X73483070Y23023194D01*
X73661351Y23152723D01*
X73817167Y23308539D01*
X73946696Y23486820D01*
X74046742Y23683170D01*
X74054842Y23708100D01*
X74094278Y23765776D01*
X74158636Y23792976D01*
X74227482Y23781064D01*
X74278960Y23733821D01*
X74294391Y23693977D01*
X74327257Y23528751D01*
X74327260Y23528741D01*
X74402674Y23346673D01*
X74402681Y23346661D01*
X74467912Y23249037D01*
X74488790Y23182360D01*
X74488810Y23180146D01*
X74488810Y21330914D01*
X74519571Y21176271D01*
X74519574Y21176259D01*
X74579912Y21030588D01*
X74579919Y21030575D01*
X74667520Y20899472D01*
X74667523Y20899468D01*
X76741367Y18825624D01*
X76741371Y18825621D01*
X76872474Y18738020D01*
X76872487Y18738013D01*
X77017308Y18678027D01*
X77018163Y18677673D01*
X77162301Y18649002D01*
X77172813Y18646911D01*
X77172816Y18646910D01*
X77172818Y18646910D01*
X77330504Y18646910D01*
X77330505Y18646911D01*
X77485157Y18677673D01*
X77630839Y18738016D01*
X77761949Y18825621D01*
X77873449Y18937121D01*
X77961054Y19068231D01*
X78021397Y19213913D01*
X78052160Y19368568D01*
X78052160Y19526252D01*
X78052160Y19526255D01*
X78052159Y19526257D01*
X78034440Y19615337D01*
X78021397Y19680907D01*
X78002026Y19727673D01*
X77961057Y19826583D01*
X77961050Y19826596D01*
X77873449Y19957699D01*
X77873446Y19957703D01*
X76126129Y21705020D01*
X76092644Y21766343D01*
X76089810Y21792701D01*
X76089810Y23180146D01*
X76109495Y23247185D01*
X76110708Y23249037D01*
X76138070Y23289987D01*
X76175942Y23346666D01*
X76185179Y23368965D01*
X76214029Y23438616D01*
X76251361Y23528745D01*
X76278264Y23663992D01*
X76289810Y23722037D01*
X76289810Y24719124D01*
X76251362Y24912410D01*
X76251361Y24912411D01*
X76251361Y24912415D01*
X76224667Y24976861D01*
X76175945Y25094488D01*
X76175938Y25094501D01*
X76066449Y25258362D01*
X76066446Y25258366D01*
X75927095Y25397717D01*
X75927091Y25397720D01*
X75763230Y25507209D01*
X75763217Y25507216D01*
X75581149Y25582630D01*
X75581139Y25582633D01*
X75387853Y25621080D01*
X75387851Y25621080D01*
X75190769Y25621080D01*
X75190767Y25621080D01*
X74997480Y25582633D01*
X74997470Y25582630D01*
X74815402Y25507216D01*
X74815389Y25507209D01*
X74651528Y25397720D01*
X74651524Y25397717D01*
X74512173Y25258366D01*
X74512170Y25258362D01*
X74402681Y25094501D01*
X74402674Y25094488D01*
X74327260Y24912420D01*
X74327257Y24912410D01*
X74294391Y24747184D01*
X74262006Y24685273D01*
X74201290Y24650699D01*
X74131520Y24654440D01*
X74074849Y24695306D01*
X74054842Y24733060D01*
X74046741Y24757993D01*
X73946696Y24954341D01*
X73817167Y25132622D01*
X73661351Y25288438D01*
X73483070Y25417967D01*
X73286720Y25518013D01*
X73077146Y25586107D01*
X72999310Y25598436D01*
X72999310Y24536266D01*
X72994916Y24540660D01*
X72903704Y24593321D01*
X72801971Y24620580D01*
X72696649Y24620580D01*
X72594916Y24593321D01*
X72503704Y24540660D01*
X72499310Y24536266D01*
X72499310Y25598436D01*
X72421474Y25586107D01*
X72421471Y25586107D01*
X72211899Y25518013D01*
X72015549Y25417967D01*
X71837268Y25288438D01*
X71681452Y25132622D01*
X71681452Y25132621D01*
X71579937Y24992899D01*
X71524607Y24950234D01*
X71454993Y24944255D01*
X71393198Y24976861D01*
X71379301Y24992900D01*
X71277557Y25132939D01*
X71277553Y25132944D01*
X71121673Y25288824D01*
X71121668Y25288828D01*
X70943335Y25418393D01*
X70943334Y25418394D01*
X70943332Y25418395D01*
X70880406Y25450458D01*
X70746916Y25518476D01*
X70746913Y25518477D01*
X70537262Y25586595D01*
X70414806Y25605990D01*
X70319532Y25621080D01*
X70099088Y25621080D01*
X70026511Y25609585D01*
X69881357Y25586595D01*
X69671706Y25518477D01*
X69671703Y25518476D01*
X69475284Y25418393D01*
X69296951Y25288828D01*
X69296946Y25288824D01*
X69141066Y25132944D01*
X69141062Y25132939D01*
X69039628Y24993326D01*
X68984298Y24950660D01*
X68914685Y24944681D01*
X68852890Y24977287D01*
X68838992Y24993326D01*
X68737557Y25132939D01*
X68737553Y25132944D01*
X68581673Y25288824D01*
X68581668Y25288828D01*
X68403335Y25418393D01*
X68403334Y25418394D01*
X68403332Y25418395D01*
X68340406Y25450458D01*
X68206916Y25518476D01*
X68206913Y25518477D01*
X67997262Y25586595D01*
X67874806Y25605990D01*
X67779532Y25621080D01*
X67559088Y25621080D01*
X67486511Y25609585D01*
X67341357Y25586595D01*
X67131706Y25518477D01*
X67131703Y25518476D01*
X66935284Y25418393D01*
X66756951Y25288828D01*
X66756946Y25288824D01*
X66601066Y25132944D01*
X66601062Y25132939D01*
X66471497Y24954606D01*
X66371414Y24758187D01*
X66371411Y24758179D01*
X66363575Y24734061D01*
X66324137Y24676386D01*
X66259778Y24649189D01*
X66190931Y24661105D01*
X66139456Y24708350D01*
X66124028Y24748190D01*
X66111149Y24812933D01*
X66091361Y24912415D01*
X66064667Y24976861D01*
X66015945Y25094488D01*
X66015938Y25094501D01*
X65906449Y25258362D01*
X65906446Y25258366D01*
X65767095Y25397717D01*
X65767091Y25397720D01*
X65603230Y25507209D01*
X65603217Y25507216D01*
X65421149Y25582630D01*
X65421139Y25582633D01*
X65227853Y25621080D01*
X65227851Y25621080D01*
X65030769Y25621080D01*
X65024677Y25621080D01*
X65024677Y25622885D01*
X64964372Y25634333D01*
X64913670Y25682407D01*
X64897007Y25750261D01*
X64919675Y25816351D01*
X64933189Y25832375D01*
X65228079Y26127263D01*
X65289402Y26160746D01*
X65315759Y26163580D01*
X83698140Y26163580D01*
X83765179Y26143895D01*
G37*
G04 #@! TD.AperFunction*
G04 #@! TA.AperFunction,Conductor*
G36*
X93319310Y22842726D02*
G01*
X93397144Y22855054D01*
X93397147Y22855054D01*
X93606720Y22923148D01*
X93803070Y23023194D01*
X93981351Y23152723D01*
X94137167Y23308539D01*
X94137172Y23308545D01*
X94238682Y23448261D01*
X94294012Y23490927D01*
X94363625Y23496906D01*
X94425420Y23464301D01*
X94439318Y23448261D01*
X94541062Y23308222D01*
X94541066Y23308217D01*
X94696946Y23152337D01*
X94696951Y23152333D01*
X94813338Y23067774D01*
X94875288Y23022765D01*
X94970929Y22974033D01*
X95071703Y22922685D01*
X95071706Y22922684D01*
X95130541Y22903568D01*
X95281359Y22854565D01*
X95499088Y22820080D01*
X95499089Y22820080D01*
X95719531Y22820080D01*
X95719532Y22820080D01*
X95937261Y22854565D01*
X96146916Y22922685D01*
X96343332Y23022765D01*
X96521675Y23152338D01*
X96677552Y23308215D01*
X96677554Y23308219D01*
X96677557Y23308221D01*
X96721690Y23368965D01*
X96777019Y23411631D01*
X96822008Y23420080D01*
X101010120Y23420080D01*
X101077159Y23400395D01*
X101097801Y23383761D01*
X101576256Y22905306D01*
X101609741Y22843983D01*
X101610851Y22805125D01*
X101611742Y22805054D01*
X101611360Y22800198D01*
X101611360Y22595489D01*
X101643383Y22393305D01*
X101643383Y22393302D01*
X101659405Y22343993D01*
X101661400Y22274152D01*
X101625320Y22214319D01*
X101562619Y22183491D01*
X101493204Y22191456D01*
X101485181Y22195189D01*
X101473053Y22201368D01*
X101473052Y22201369D01*
X101473049Y22201370D01*
X101386311Y22229553D01*
X101278364Y22264628D01*
X101103825Y22292272D01*
X101076182Y22296650D01*
X100871478Y22296650D01*
X100847159Y22292799D01*
X100669295Y22264628D01*
X100474606Y22201369D01*
X100292216Y22108435D01*
X100126616Y21988122D01*
X99981858Y21843364D01*
X99861545Y21677764D01*
X99768611Y21495374D01*
X99705352Y21300685D01*
X99673330Y21098502D01*
X99673330Y20893791D01*
X99673665Y20889531D01*
X99659297Y20821154D01*
X99637728Y20792128D01*
X98954491Y20108889D01*
X98893168Y20075404D01*
X98866810Y20072570D01*
X90220390Y20072570D01*
X90153351Y20092255D01*
X90107596Y20145059D01*
X90097652Y20214217D01*
X90109905Y20252865D01*
X90180098Y20390627D01*
X90180098Y20390628D01*
X90180100Y20390631D01*
X90243357Y20585316D01*
X90275380Y20787498D01*
X90275380Y20992202D01*
X90261695Y21078602D01*
X90270649Y21147895D01*
X90296484Y21185678D01*
X90957729Y21846921D01*
X91045334Y21978031D01*
X91105678Y22123713D01*
X91136440Y22278368D01*
X91136440Y22436053D01*
X91136440Y22882123D01*
X91156125Y22949162D01*
X91204143Y22992608D01*
X91263332Y23022765D01*
X91441675Y23152338D01*
X91597552Y23308215D01*
X91699301Y23448263D01*
X91754630Y23490927D01*
X91824243Y23496906D01*
X91886039Y23464301D01*
X91899937Y23448262D01*
X92001452Y23308539D01*
X92157268Y23152723D01*
X92335549Y23023194D01*
X92531899Y22923148D01*
X92741473Y22855054D01*
X92819309Y22842726D01*
X92819310Y22842726D01*
X92819310Y23904894D01*
X92823704Y23900500D01*
X92914916Y23847839D01*
X93016649Y23820580D01*
X93121971Y23820580D01*
X93223704Y23847839D01*
X93314916Y23900500D01*
X93319310Y23904894D01*
X93319310Y22842726D01*
G37*
G04 #@! TD.AperFunction*
G04 #@! TA.AperFunction,Conductor*
G36*
X57447080Y37230936D02*
G01*
X57524914Y37243264D01*
X57524917Y37243264D01*
X57734490Y37311358D01*
X57930840Y37411404D01*
X58109121Y37540933D01*
X58159422Y37591234D01*
X58220745Y37624720D01*
X58290436Y37619736D01*
X58346370Y37577865D01*
X58363286Y37546887D01*
X58393282Y37466462D01*
X58393286Y37466455D01*
X58479532Y37351246D01*
X58479535Y37351243D01*
X58594744Y37264997D01*
X58594751Y37264993D01*
X58729597Y37214699D01*
X58729596Y37214699D01*
X58736524Y37213955D01*
X58789207Y37208290D01*
X60072699Y37208291D01*
X60139738Y37188606D01*
X60185493Y37135803D01*
X60195437Y37066644D01*
X60166412Y37003088D01*
X60160380Y36996610D01*
X59210333Y36046561D01*
X58910321Y35746549D01*
X58871150Y35707378D01*
X58798819Y35635048D01*
X58711219Y35503946D01*
X58711212Y35503933D01*
X58650874Y35358262D01*
X58650871Y35358250D01*
X58620110Y35203607D01*
X58620110Y33169724D01*
X58650871Y33015081D01*
X58650874Y33015069D01*
X58711212Y32869398D01*
X58711219Y32869385D01*
X58798820Y32738282D01*
X58798823Y32738278D01*
X60284340Y31252761D01*
X60317825Y31191438D01*
X60312841Y31121746D01*
X60270969Y31065813D01*
X60205505Y31041396D01*
X60196659Y31041080D01*
X59010970Y31041080D01*
X58943931Y31060765D01*
X58923289Y31077399D01*
X54755496Y35245192D01*
X54722011Y35306515D01*
X54726995Y35376207D01*
X54768867Y35432140D01*
X54834331Y35456557D01*
X54862572Y35455347D01*
X54954538Y35440780D01*
X54954539Y35440780D01*
X55159241Y35440780D01*
X55159242Y35440780D01*
X55361424Y35472803D01*
X55556109Y35536060D01*
X55738500Y35628993D01*
X55846389Y35707378D01*
X55904103Y35749309D01*
X55904109Y35749314D01*
X55927885Y35773090D01*
X56048856Y35894061D01*
X56048858Y35894065D01*
X56048861Y35894067D01*
X56140546Y36020263D01*
X56169177Y36059670D01*
X56262110Y36242061D01*
X56325367Y36436746D01*
X56357390Y36638928D01*
X56357390Y36843632D01*
X56343678Y36930207D01*
X56325367Y37045815D01*
X56272575Y37208290D01*
X56262110Y37240499D01*
X56262107Y37240503D01*
X56262107Y37240506D01*
X56240063Y37283769D01*
X56227166Y37352438D01*
X56253442Y37417179D01*
X56310548Y37457437D01*
X56380353Y37460429D01*
X56423433Y37440383D01*
X56463319Y37411404D01*
X56659669Y37311358D01*
X56869243Y37243264D01*
X56947079Y37230936D01*
X56947080Y37230936D01*
X56947080Y38293104D01*
X56951474Y38288710D01*
X57042686Y38236049D01*
X57144419Y38208790D01*
X57249741Y38208790D01*
X57351474Y38236049D01*
X57442686Y38288710D01*
X57447080Y38293104D01*
X57447080Y37230936D01*
G37*
G04 #@! TD.AperFunction*
G04 #@! TA.AperFunction,Conductor*
G36*
X93120159Y35019385D02*
G01*
X93140801Y35002751D01*
X93690791Y34452761D01*
X93724276Y34391438D01*
X93719292Y34321746D01*
X93677420Y34265813D01*
X93611956Y34241396D01*
X93603110Y34241080D01*
X86970463Y34241080D01*
X86815820Y34210320D01*
X86815812Y34210318D01*
X86670134Y34149976D01*
X86670124Y34149971D01*
X86539021Y34062370D01*
X86539017Y34062367D01*
X85740776Y33264126D01*
X85679453Y33230641D01*
X85633697Y33229334D01*
X85559537Y33241080D01*
X85559532Y33241080D01*
X85339088Y33241080D01*
X85273905Y33230756D01*
X85121357Y33206595D01*
X84911706Y33138477D01*
X84911703Y33138476D01*
X84715284Y33038393D01*
X84536951Y32908828D01*
X84536946Y32908824D01*
X84381066Y32752944D01*
X84381062Y32752939D01*
X84279628Y32613326D01*
X84224298Y32570660D01*
X84154685Y32564681D01*
X84092890Y32597287D01*
X84078992Y32613326D01*
X83977557Y32752939D01*
X83977553Y32752944D01*
X83821673Y32908824D01*
X83821668Y32908828D01*
X83643335Y33038393D01*
X83643334Y33038394D01*
X83643332Y33038395D01*
X83580406Y33070458D01*
X83446916Y33138476D01*
X83446913Y33138477D01*
X83237262Y33206595D01*
X83128396Y33223838D01*
X83019532Y33241080D01*
X82799088Y33241080D01*
X82733905Y33230756D01*
X82581357Y33206595D01*
X82371706Y33138477D01*
X82371703Y33138476D01*
X82175284Y33038393D01*
X81996951Y32908828D01*
X81996946Y32908824D01*
X81841066Y32752944D01*
X81841062Y32752939D01*
X81739628Y32613326D01*
X81684298Y32570660D01*
X81614685Y32564681D01*
X81552890Y32597287D01*
X81538992Y32613326D01*
X81437557Y32752939D01*
X81437553Y32752944D01*
X81281673Y32908824D01*
X81281668Y32908828D01*
X81103335Y33038393D01*
X81103334Y33038394D01*
X81103332Y33038395D01*
X81040406Y33070458D01*
X80906916Y33138476D01*
X80906913Y33138477D01*
X80697262Y33206595D01*
X80588396Y33223838D01*
X80479532Y33241080D01*
X80259088Y33241080D01*
X80193905Y33230756D01*
X80041357Y33206595D01*
X79831706Y33138477D01*
X79831703Y33138476D01*
X79635284Y33038393D01*
X79456951Y32908828D01*
X79456946Y32908824D01*
X79301066Y32752944D01*
X79301062Y32752939D01*
X79171495Y32574604D01*
X79107975Y32449940D01*
X79060001Y32399145D01*
X78992180Y32382350D01*
X78926045Y32404888D01*
X78882594Y32459603D01*
X78879560Y32467917D01*
X78848718Y32562838D01*
X78770114Y32717105D01*
X78668342Y32857183D01*
X78545912Y32979613D01*
X78405834Y33081385D01*
X78251567Y33159989D01*
X78086899Y33213493D01*
X78086891Y33213495D01*
X78079310Y33214696D01*
X78079310Y32156266D01*
X78074916Y32160660D01*
X77983704Y32213321D01*
X77881971Y32240580D01*
X77776649Y32240580D01*
X77674916Y32213321D01*
X77583704Y32160660D01*
X77579310Y32156266D01*
X77579310Y33214696D01*
X77579309Y33214696D01*
X77571728Y33213495D01*
X77571720Y33213493D01*
X77407052Y33159989D01*
X77252785Y33081385D01*
X77112707Y32979613D01*
X76990277Y32857183D01*
X76888505Y32717105D01*
X76809899Y32562834D01*
X76779058Y32467916D01*
X76739620Y32410241D01*
X76675261Y32383044D01*
X76606415Y32394959D01*
X76554940Y32442204D01*
X76550644Y32449940D01*
X76487125Y32574602D01*
X76432688Y32649529D01*
X76357557Y32752939D01*
X76357553Y32752944D01*
X76201673Y32908824D01*
X76201668Y32908828D01*
X76023333Y33038395D01*
X75987334Y33056738D01*
X75936538Y33104713D01*
X75919630Y33167222D01*
X75919630Y33561742D01*
X75919631Y33561747D01*
X75919630Y33678951D01*
X75919630Y33719422D01*
X75919630Y33719424D01*
X75919629Y33719432D01*
X75912507Y33755234D01*
X75902030Y33807902D01*
X75905715Y33870407D01*
X75959207Y34035036D01*
X75991230Y34237218D01*
X75991230Y34441922D01*
X75972424Y34560659D01*
X75959207Y34644105D01*
X75921857Y34759055D01*
X75895950Y34838789D01*
X75895948Y34838792D01*
X75895947Y34838797D01*
X75885767Y34858776D01*
X75872871Y34927445D01*
X75899148Y34992186D01*
X75956255Y35032442D01*
X75996252Y35039070D01*
X93053120Y35039070D01*
X93120159Y35019385D01*
G37*
G04 #@! TD.AperFunction*
G04 #@! TA.AperFunction,Conductor*
G36*
X106091989Y50938475D02*
G01*
X106094660Y50939136D01*
X106125315Y50928689D01*
X106156388Y50919565D01*
X106158189Y50917486D01*
X106160795Y50916598D01*
X106180941Y50891229D01*
X106202143Y50866761D01*
X106202534Y50864039D01*
X106204246Y50861883D01*
X106207477Y50829663D01*
X106212087Y50797603D01*
X106211027Y50794262D01*
X106211218Y50792362D01*
X106200320Y50759921D01*
X106200046Y50759373D01*
X106166630Y50693789D01*
X106161043Y50676593D01*
X106103372Y50499105D01*
X106071350Y50296922D01*
X106071350Y50092219D01*
X106103372Y49890036D01*
X106166631Y49695347D01*
X106230541Y49569917D01*
X106247891Y49535867D01*
X106259565Y49512957D01*
X106379878Y49347357D01*
X106524636Y49202599D01*
X106661260Y49103338D01*
X106690240Y49082283D01*
X106781364Y49035853D01*
X106872626Y48989352D01*
X106872628Y48989352D01*
X106872631Y48989350D01*
X107067316Y48926093D01*
X107229953Y48900334D01*
X107293087Y48870405D01*
X107298235Y48865542D01*
X107718411Y48445364D01*
X107751896Y48384041D01*
X107754730Y48357683D01*
X107754730Y46999629D01*
X107735045Y46932590D01*
X107682241Y46886835D01*
X107613083Y46876891D01*
X107549527Y46905916D01*
X107530412Y46926744D01*
X107427575Y47068287D01*
X107427571Y47068292D01*
X107301241Y47194622D01*
X107301236Y47194626D01*
X107156713Y47299627D01*
X106997531Y47380735D01*
X106827622Y47435943D01*
X106827615Y47435944D01*
X106811840Y47438444D01*
X106811840Y46617706D01*
X106795780Y46633766D01*
X106708901Y46683926D01*
X106612000Y46709890D01*
X106511680Y46709890D01*
X106414779Y46683926D01*
X106327900Y46633766D01*
X106311840Y46617706D01*
X106311840Y47438443D01*
X106311839Y47438444D01*
X106296064Y47435944D01*
X106296057Y47435943D01*
X106126148Y47380735D01*
X105966966Y47299627D01*
X105822443Y47194626D01*
X105822438Y47194622D01*
X105696108Y47068292D01*
X105696104Y47068287D01*
X105591103Y46923764D01*
X105509995Y46764584D01*
X105454786Y46594669D01*
X105452287Y46578891D01*
X105452288Y46578890D01*
X106273024Y46578890D01*
X106256964Y46562830D01*
X106206804Y46475951D01*
X106180840Y46379050D01*
X106180840Y46278730D01*
X106206804Y46181829D01*
X106256964Y46094950D01*
X106273024Y46078890D01*
X105452288Y46078890D01*
X105454786Y46063112D01*
X105509995Y45893197D01*
X105591103Y45734017D01*
X105696104Y45589494D01*
X105696108Y45589489D01*
X105822438Y45463159D01*
X105822443Y45463155D01*
X105966966Y45358154D01*
X106126146Y45277046D01*
X106296061Y45221837D01*
X106311839Y45219338D01*
X106311840Y45219339D01*
X106311840Y46040074D01*
X106327900Y46024014D01*
X106414779Y45973854D01*
X106511680Y45947890D01*
X106612000Y45947890D01*
X106708901Y45973854D01*
X106795780Y46024014D01*
X106811840Y46040074D01*
X106811840Y45222331D01*
X106792155Y45155292D01*
X106775521Y45134650D01*
X106601581Y44960709D01*
X106540258Y44927224D01*
X106513900Y44924390D01*
X106472474Y44924390D01*
X106413630Y44915070D01*
X106295941Y44896430D01*
X106295938Y44896430D01*
X106125961Y44841201D01*
X106125958Y44841199D01*
X105966707Y44760057D01*
X105822110Y44655000D01*
X105822109Y44654999D01*
X105792820Y44625709D01*
X105731497Y44592224D01*
X105705139Y44589390D01*
X105233897Y44589390D01*
X105166858Y44609075D01*
X105121103Y44661879D01*
X105111159Y44731037D01*
X105115966Y44751709D01*
X105129380Y44792993D01*
X105146213Y44899271D01*
X105157340Y44969524D01*
X105157340Y45148256D01*
X105129380Y45324787D01*
X105129379Y45324791D01*
X105129379Y45324792D01*
X105074150Y45494769D01*
X105074148Y45494772D01*
X105067445Y45507929D01*
X104993007Y45654022D01*
X104887951Y45798618D01*
X104761568Y45925001D01*
X104616972Y46030057D01*
X104457721Y46111199D01*
X104457718Y46111201D01*
X104287739Y46166430D01*
X104170049Y46185070D01*
X104111206Y46194390D01*
X103932474Y46194390D01*
X103873630Y46185070D01*
X103755941Y46166430D01*
X103755938Y46166430D01*
X103585961Y46111201D01*
X103585958Y46111199D01*
X103426707Y46030057D01*
X103282110Y45925000D01*
X103155730Y45798620D01*
X103050673Y45654023D01*
X102969531Y45494772D01*
X102969529Y45494769D01*
X102914300Y45324792D01*
X102914300Y45324791D01*
X102890687Y45175706D01*
X102860757Y45112572D01*
X102855895Y45107424D01*
X101319036Y43570566D01*
X101257713Y43537081D01*
X101211958Y43535774D01*
X101146192Y43546190D01*
X100941488Y43546190D01*
X100936930Y43545468D01*
X100739305Y43514168D01*
X100544616Y43450909D01*
X100362226Y43357975D01*
X100196626Y43237662D01*
X100051868Y43092904D01*
X99931555Y42927304D01*
X99838621Y42744914D01*
X99775362Y42550225D01*
X99743340Y42348042D01*
X99743340Y42143339D01*
X99775362Y41941156D01*
X99838621Y41746467D01*
X99931555Y41564077D01*
X100051868Y41398477D01*
X100196626Y41253719D01*
X100362228Y41133404D01*
X100362230Y41133403D01*
X100429811Y41098969D01*
X100480607Y41050995D01*
X100497403Y40983174D01*
X100474866Y40917039D01*
X100429815Y40878001D01*
X100400938Y40863287D01*
X100235336Y40742972D01*
X100090578Y40598214D01*
X99970265Y40432614D01*
X99877331Y40250224D01*
X99814072Y40055535D01*
X99782050Y39853352D01*
X99782050Y39648649D01*
X99814072Y39446466D01*
X99877331Y39251777D01*
X99930226Y39147967D01*
X99960365Y39088815D01*
X99970265Y39069387D01*
X100090578Y38903787D01*
X100235336Y38759029D01*
X100390299Y38646444D01*
X100400940Y38638713D01*
X100516726Y38579717D01*
X100583326Y38545782D01*
X100583328Y38545782D01*
X100583331Y38545780D01*
X100613265Y38536054D01*
X100781714Y38481321D01*
X100839389Y38441883D01*
X100866587Y38377524D01*
X100854672Y38308678D01*
X100807428Y38257202D01*
X100743395Y38239390D01*
X98555601Y38239390D01*
X98541039Y38240825D01*
X98541005Y38240473D01*
X98534943Y38241070D01*
X98534942Y38241070D01*
X96874090Y38241070D01*
X96807051Y38260755D01*
X96786409Y38277389D01*
X92645157Y42418636D01*
X92611672Y42479959D01*
X92616656Y42549650D01*
X92637390Y42579287D01*
X92637390Y43650034D01*
X92641784Y43645640D01*
X92732996Y43592979D01*
X92834729Y43565720D01*
X92940051Y43565720D01*
X93041784Y43592979D01*
X93132996Y43645640D01*
X93137390Y43650034D01*
X93137390Y42587866D01*
X93215224Y42600194D01*
X93215227Y42600194D01*
X93424800Y42668288D01*
X93621150Y42768334D01*
X93799431Y42897863D01*
X93955247Y43053679D01*
X94084776Y43231960D01*
X94184822Y43428310D01*
X94252916Y43637882D01*
X94252916Y43637885D01*
X94265245Y43715720D01*
X93203076Y43715720D01*
X93207470Y43720114D01*
X93260131Y43811326D01*
X93287390Y43913059D01*
X93287390Y44018381D01*
X93260131Y44120114D01*
X93207470Y44211326D01*
X93203076Y44215720D01*
X94265245Y44215720D01*
X94252916Y44293556D01*
X94252916Y44293559D01*
X94184822Y44503131D01*
X94084776Y44699481D01*
X93955247Y44877762D01*
X93799431Y45033578D01*
X93621143Y45163112D01*
X93617308Y45165462D01*
X93570432Y45217273D01*
X93559008Y45286202D01*
X93586664Y45350365D01*
X93644619Y45389391D01*
X93682096Y45395190D01*
X95255430Y45395190D01*
X95322469Y45375505D01*
X95343111Y45358871D01*
X95772404Y44929578D01*
X95805889Y44868255D01*
X95807196Y44822499D01*
X95795450Y44748338D01*
X95795450Y44748332D01*
X95795450Y44527888D01*
X95798348Y44509589D01*
X95829935Y44310158D01*
X95898053Y44100507D01*
X95898054Y44100504D01*
X95998137Y43904085D01*
X96127702Y43725752D01*
X96127706Y43725747D01*
X96283586Y43569867D01*
X96283591Y43569863D01*
X96414232Y43474948D01*
X96461928Y43440295D01*
X96590325Y43374873D01*
X96658343Y43340215D01*
X96658346Y43340214D01*
X96696760Y43327733D01*
X96867999Y43272095D01*
X97085728Y43237610D01*
X97085729Y43237610D01*
X97306171Y43237610D01*
X97306172Y43237610D01*
X97523901Y43272095D01*
X97733556Y43340215D01*
X97929972Y43440295D01*
X98108315Y43569868D01*
X98264192Y43725745D01*
X98393765Y43904088D01*
X98493845Y44100504D01*
X98561965Y44310159D01*
X98596450Y44527888D01*
X98596450Y44748332D01*
X98561965Y44966061D01*
X98516034Y45107424D01*
X98493846Y45175714D01*
X98493845Y45175717D01*
X98442214Y45277046D01*
X98393765Y45372132D01*
X98374093Y45399209D01*
X98264197Y45550469D01*
X98264193Y45550474D01*
X98108313Y45706354D01*
X98108308Y45706358D01*
X97929975Y45835923D01*
X97929974Y45835924D01*
X97929972Y45835925D01*
X97817571Y45893197D01*
X97733556Y45936006D01*
X97733553Y45936007D01*
X97523902Y46004125D01*
X97360173Y46030057D01*
X97306172Y46038610D01*
X97085728Y46038610D01*
X97085723Y46038610D01*
X97011561Y46026864D01*
X96942267Y46035819D01*
X96904482Y46061656D01*
X96170510Y46795629D01*
X96137025Y46856952D01*
X96142009Y46926644D01*
X96157869Y46956189D01*
X96272067Y47113370D01*
X96365000Y47295761D01*
X96428257Y47490446D01*
X96460280Y47692628D01*
X96460280Y47848891D01*
X102912287Y47848891D01*
X102912288Y47848890D01*
X103733024Y47848890D01*
X103716964Y47832830D01*
X103666804Y47745951D01*
X103640840Y47649050D01*
X103640840Y47548730D01*
X103666804Y47451829D01*
X103716964Y47364950D01*
X103733024Y47348890D01*
X102912288Y47348890D01*
X102914786Y47333112D01*
X102969995Y47163197D01*
X103051103Y47004017D01*
X103156104Y46859494D01*
X103156108Y46859489D01*
X103282438Y46733159D01*
X103282443Y46733155D01*
X103426966Y46628154D01*
X103586146Y46547046D01*
X103756061Y46491837D01*
X103771839Y46489338D01*
X103771840Y46489339D01*
X103771840Y47310074D01*
X103787900Y47294014D01*
X103874779Y47243854D01*
X103971680Y47217890D01*
X104072000Y47217890D01*
X104168901Y47243854D01*
X104255780Y47294014D01*
X104271840Y47310074D01*
X104271840Y46489338D01*
X104287618Y46491837D01*
X104457533Y46547046D01*
X104616710Y46628152D01*
X104635968Y46642143D01*
X104635969Y46642144D01*
X104761237Y46733155D01*
X104887571Y46859489D01*
X104887575Y46859494D01*
X104992576Y47004017D01*
X105073684Y47163197D01*
X105128893Y47333112D01*
X105131392Y47348890D01*
X104310656Y47348890D01*
X104326716Y47364950D01*
X104376876Y47451829D01*
X104402840Y47548730D01*
X104402840Y47649050D01*
X104376876Y47745951D01*
X104326716Y47832830D01*
X104310656Y47848890D01*
X105131392Y47848890D01*
X105131392Y47848891D01*
X105128893Y47864669D01*
X105073684Y48034584D01*
X104992576Y48193764D01*
X104887575Y48338287D01*
X104887571Y48338292D01*
X104761241Y48464622D01*
X104761236Y48464626D01*
X104616713Y48569627D01*
X104457531Y48650735D01*
X104287622Y48705943D01*
X104287615Y48705944D01*
X104271840Y48708444D01*
X104271840Y47887706D01*
X104255780Y47903766D01*
X104168901Y47953926D01*
X104072000Y47979890D01*
X103971680Y47979890D01*
X103874779Y47953926D01*
X103787900Y47903766D01*
X103771840Y47887706D01*
X103771840Y48708443D01*
X103771839Y48708444D01*
X103756064Y48705944D01*
X103756057Y48705943D01*
X103586148Y48650735D01*
X103426966Y48569627D01*
X103282443Y48464626D01*
X103282438Y48464622D01*
X103156108Y48338292D01*
X103156104Y48338287D01*
X103051103Y48193764D01*
X102969995Y48034584D01*
X102914786Y47864669D01*
X102912287Y47848891D01*
X96460280Y47848891D01*
X96460280Y47897332D01*
X96459628Y47901443D01*
X96459564Y47910427D01*
X96467996Y47939932D01*
X96474299Y47969956D01*
X96478001Y47974940D01*
X96478764Y47977607D01*
X96482279Y47980699D01*
X96495876Y47999000D01*
X97063469Y48566591D01*
X97124792Y48600076D01*
X97151150Y48602910D01*
X101161394Y48602910D01*
X101161395Y48602911D01*
X101316047Y48633673D01*
X101461729Y48694016D01*
X101592839Y48781621D01*
X103714149Y50902931D01*
X103775472Y50936416D01*
X103801830Y50939250D01*
X106089349Y50939250D01*
X106091989Y50938475D01*
G37*
G04 #@! TD.AperFunction*
G04 #@! TA.AperFunction,Conductor*
G36*
X44667499Y53465505D02*
G01*
X44688141Y53448871D01*
X50090181Y48046831D01*
X50123666Y47985508D01*
X50126500Y47959150D01*
X50126500Y40636741D01*
X50106815Y40569702D01*
X50054011Y40523947D01*
X49984853Y40514003D01*
X49921297Y40543028D01*
X49914819Y40549060D01*
X48338492Y42125387D01*
X48338488Y42125390D01*
X48207385Y42212991D01*
X48207372Y42212998D01*
X48061701Y42273336D01*
X48061689Y42273339D01*
X47907045Y42304100D01*
X47907042Y42304100D01*
X43584013Y42304100D01*
X43426328Y42304100D01*
X43426323Y42304100D01*
X43271680Y42273340D01*
X43271672Y42273338D01*
X43125994Y42212996D01*
X43125984Y42212991D01*
X42994881Y42125390D01*
X42994877Y42125387D01*
X41012201Y40142710D01*
X40950878Y40109225D01*
X40881186Y40114209D01*
X40825253Y40156081D01*
X40800836Y40221545D01*
X40800520Y40230391D01*
X40800520Y45291191D01*
X40820205Y45358230D01*
X40873009Y45403985D01*
X40924520Y45415191D01*
X41009031Y45415191D01*
X41009032Y45415191D01*
X41068643Y45421599D01*
X41203491Y45471894D01*
X41318706Y45558144D01*
X41404956Y45673359D01*
X41455251Y45808207D01*
X41461660Y45867817D01*
X41461659Y47463562D01*
X41455251Y47523173D01*
X41449976Y47537315D01*
X41404957Y47658019D01*
X41404953Y47658026D01*
X41318707Y47773235D01*
X41318704Y47773238D01*
X41203495Y47859484D01*
X41203488Y47859488D01*
X41068642Y47909782D01*
X41068643Y47909782D01*
X41009043Y47916189D01*
X41009041Y47916190D01*
X41009033Y47916190D01*
X41009025Y47916190D01*
X40945427Y47916190D01*
X40878388Y47935875D01*
X40832633Y47988679D01*
X40822689Y48057837D01*
X40851714Y48121393D01*
X40872541Y48140508D01*
X41025806Y48251862D01*
X41142816Y48368872D01*
X41204139Y48402356D01*
X41230497Y48405190D01*
X42180887Y48405190D01*
X42247926Y48385505D01*
X42275172Y48361728D01*
X42277955Y48358470D01*
X42422706Y48213719D01*
X42577669Y48101134D01*
X42588310Y48093403D01*
X42679713Y48046831D01*
X42770696Y48000472D01*
X42770698Y48000472D01*
X42770701Y48000470D01*
X42872474Y47967402D01*
X42965385Y47937213D01*
X43066477Y47921202D01*
X43167568Y47905190D01*
X43167569Y47905190D01*
X43372271Y47905190D01*
X43372272Y47905190D01*
X43574454Y47937213D01*
X43769139Y48000470D01*
X43951530Y48093403D01*
X44058653Y48171232D01*
X44117133Y48213719D01*
X44117135Y48213722D01*
X44117139Y48213724D01*
X44261886Y48358471D01*
X44261888Y48358475D01*
X44261891Y48358477D01*
X44337249Y48462200D01*
X44382207Y48524080D01*
X44474871Y48705943D01*
X44475138Y48706467D01*
X44475138Y48706468D01*
X44475140Y48706471D01*
X44538397Y48901156D01*
X44570420Y49103338D01*
X44570420Y49308042D01*
X44538397Y49510224D01*
X44526206Y49547743D01*
X44478247Y49695347D01*
X44475140Y49704909D01*
X44475138Y49704912D01*
X44475138Y49704914D01*
X44412687Y49827479D01*
X44382207Y49887300D01*
X44370856Y49902923D01*
X44261891Y50052904D01*
X44117133Y50197662D01*
X43951533Y50317975D01*
X43951532Y50317976D01*
X43951530Y50317977D01*
X43894573Y50346999D01*
X43769143Y50410909D01*
X43574454Y50474168D01*
X43399915Y50501812D01*
X43372272Y50506190D01*
X43167568Y50506190D01*
X43149435Y50503318D01*
X42965385Y50474168D01*
X42770696Y50410909D01*
X42588306Y50317975D01*
X42422706Y50197662D01*
X42277955Y50052911D01*
X42275172Y50049652D01*
X42216662Y50011463D01*
X42180887Y50006190D01*
X41230497Y50006190D01*
X41163458Y50025875D01*
X41142816Y50042508D01*
X41093105Y50092219D01*
X41025806Y50159518D01*
X40866565Y50275214D01*
X40691185Y50364574D01*
X40691184Y50364575D01*
X40689395Y50365486D01*
X40638599Y50413460D01*
X40621804Y50481281D01*
X40644341Y50547416D01*
X40689396Y50586456D01*
X40866301Y50676593D01*
X41025481Y50792246D01*
X41164604Y50931369D01*
X41280255Y51090547D01*
X41369578Y51265853D01*
X41430378Y51452974D01*
X41437144Y51495690D01*
X40394172Y51495690D01*
X40427085Y51552697D01*
X40461160Y51679864D01*
X40461160Y51811516D01*
X40427085Y51938683D01*
X40394172Y51995690D01*
X41437144Y51995690D01*
X41430378Y52038407D01*
X41369578Y52225528D01*
X41280255Y52400834D01*
X41164604Y52560012D01*
X41025481Y52699135D01*
X40866303Y52814786D01*
X40689395Y52904925D01*
X40638599Y52952900D01*
X40621804Y53020721D01*
X40644341Y53086855D01*
X40689396Y53125895D01*
X40691182Y53126806D01*
X40691185Y53126806D01*
X40866565Y53216166D01*
X41025806Y53331862D01*
X41142816Y53448872D01*
X41204139Y53482356D01*
X41230497Y53485190D01*
X44600460Y53485190D01*
X44667499Y53465505D01*
G37*
G04 #@! TD.AperFunction*
G04 #@! TA.AperFunction,Conductor*
G36*
X86052838Y52095485D02*
G01*
X86073479Y52078852D01*
X86585165Y51567163D01*
X86618650Y51505841D01*
X86619957Y51460085D01*
X86608210Y51385918D01*
X86608210Y51385912D01*
X86608210Y51165468D01*
X86620076Y51090547D01*
X86642695Y50947738D01*
X86710813Y50738087D01*
X86710814Y50738085D01*
X86749849Y50661476D01*
X86809767Y50543881D01*
X86810897Y50541665D01*
X86940462Y50363332D01*
X86940466Y50363327D01*
X87096346Y50207447D01*
X87096351Y50207443D01*
X87235964Y50106008D01*
X87278630Y50050678D01*
X87284609Y49981065D01*
X87252003Y49919270D01*
X87235964Y49905372D01*
X87096351Y49803938D01*
X87096346Y49803934D01*
X86940466Y49648054D01*
X86940462Y49648049D01*
X86810897Y49469716D01*
X86710814Y49273297D01*
X86710813Y49273294D01*
X86642695Y49063643D01*
X86614877Y48888007D01*
X86608210Y48845912D01*
X86608210Y48625468D01*
X86610258Y48612539D01*
X86642695Y48407738D01*
X86710813Y48198087D01*
X86710814Y48198084D01*
X86764153Y48093403D01*
X86810894Y48001669D01*
X86810897Y48001665D01*
X86940462Y47823332D01*
X86940466Y47823327D01*
X87096346Y47667447D01*
X87096351Y47667443D01*
X87235964Y47566008D01*
X87278630Y47510678D01*
X87284609Y47441065D01*
X87252003Y47379270D01*
X87235964Y47365372D01*
X87096351Y47263938D01*
X87096346Y47263934D01*
X86940466Y47108054D01*
X86940462Y47108049D01*
X86810897Y46929716D01*
X86710814Y46733297D01*
X86710813Y46733294D01*
X86642695Y46523643D01*
X86622034Y46393192D01*
X86608210Y46305912D01*
X86608210Y46085468D01*
X86619270Y46015637D01*
X86642695Y45867738D01*
X86710813Y45658087D01*
X86710814Y45658084D01*
X86765648Y45550469D01*
X86810137Y45463155D01*
X86810897Y45461665D01*
X86940462Y45283332D01*
X86940466Y45283327D01*
X87096346Y45127447D01*
X87096351Y45127443D01*
X87236390Y45025699D01*
X87279056Y44970370D01*
X87285035Y44900756D01*
X87252430Y44838961D01*
X87236391Y44825063D01*
X87096669Y44723548D01*
X87096668Y44723548D01*
X86940852Y44567732D01*
X86811323Y44389451D01*
X86711277Y44193101D01*
X86643183Y43983529D01*
X86643183Y43983526D01*
X86630855Y43905690D01*
X87693024Y43905690D01*
X87688630Y43901296D01*
X87635969Y43810084D01*
X87608710Y43708351D01*
X87608710Y43603029D01*
X87635969Y43501296D01*
X87688630Y43410084D01*
X87693024Y43405690D01*
X86630855Y43405690D01*
X86643183Y43327855D01*
X86643183Y43327852D01*
X86711277Y43118280D01*
X86811323Y42921930D01*
X86940852Y42743649D01*
X86979830Y42704671D01*
X87013315Y42643348D01*
X87008331Y42573656D01*
X86966459Y42517723D01*
X86900995Y42493306D01*
X86892149Y42492990D01*
X85274859Y42492990D01*
X85207820Y42512675D01*
X85187178Y42529309D01*
X83500764Y44215720D01*
X81812254Y45904226D01*
X81778770Y45965548D01*
X81777463Y46011305D01*
X81779476Y46024014D01*
X81789210Y46085468D01*
X81789210Y46305912D01*
X81754725Y46523641D01*
X81715945Y46642996D01*
X81686606Y46733294D01*
X81686605Y46733297D01*
X81623598Y46856952D01*
X81586525Y46929712D01*
X81531111Y47005983D01*
X81456957Y47108049D01*
X81456953Y47108054D01*
X81301074Y47263933D01*
X81240323Y47308072D01*
X81197658Y47363403D01*
X81189210Y47408389D01*
X81189210Y47522993D01*
X81208895Y47590032D01*
X81240326Y47623312D01*
X81255306Y47634195D01*
X81301075Y47667448D01*
X81456952Y47823325D01*
X81586525Y48001668D01*
X81686605Y48198084D01*
X81754725Y48407739D01*
X81789210Y48625468D01*
X81789210Y48845912D01*
X81754725Y49063641D01*
X81709603Y49202515D01*
X81686606Y49273294D01*
X81686605Y49273297D01*
X81644036Y49356842D01*
X81586525Y49469712D01*
X81569970Y49492498D01*
X81456957Y49648049D01*
X81456953Y49648054D01*
X81406781Y49698226D01*
X81373296Y49759549D01*
X81378280Y49829241D01*
X81420152Y49885174D01*
X81451130Y49902089D01*
X81531036Y49931892D01*
X81531036Y49931893D01*
X81531041Y49931894D01*
X81646256Y50018144D01*
X81732506Y50133359D01*
X81782801Y50268207D01*
X81789210Y50327817D01*
X81789209Y51991171D01*
X81808894Y52058209D01*
X81861697Y52103964D01*
X81913209Y52115170D01*
X85985799Y52115170D01*
X86052838Y52095485D01*
G37*
G04 #@! TD.AperFunction*
G04 #@! TA.AperFunction,Conductor*
G36*
X92159723Y45375505D02*
G01*
X92205478Y45322701D01*
X92215422Y45253543D01*
X92186397Y45189987D01*
X92157472Y45165462D01*
X92153636Y45163112D01*
X91975348Y45033578D01*
X91819532Y44877762D01*
X91690003Y44699481D01*
X91589957Y44503131D01*
X91521863Y44293559D01*
X91521863Y44293556D01*
X91509535Y44215720D01*
X92571704Y44215720D01*
X92567310Y44211326D01*
X92514649Y44120114D01*
X92487390Y44018381D01*
X92487390Y43913059D01*
X92514649Y43811326D01*
X92567310Y43720114D01*
X92571704Y43715720D01*
X91499425Y43715720D01*
X91463767Y43692443D01*
X91393899Y43691945D01*
X91340303Y43723487D01*
X90964868Y44098921D01*
X89880278Y45183510D01*
X89846794Y45244832D01*
X89851778Y45314523D01*
X89893650Y45370457D01*
X89959114Y45394874D01*
X89967960Y45395190D01*
X92092684Y45395190D01*
X92159723Y45375505D01*
G37*
G04 #@! TD.AperFunction*
G04 #@! TA.AperFunction,Conductor*
G36*
X78856239Y68191615D02*
G01*
X78901994Y68138811D01*
X78913200Y68087300D01*
X78913200Y66455310D01*
X78913201Y66455304D01*
X78919608Y66395697D01*
X78969902Y66260852D01*
X78969906Y66260845D01*
X79056152Y66145636D01*
X79056155Y66145633D01*
X79171364Y66059387D01*
X79171371Y66059383D01*
X79171374Y66059382D01*
X79303298Y66010178D01*
X79359231Y65968307D01*
X79383649Y65902843D01*
X79368798Y65834570D01*
X79347647Y65806315D01*
X79233971Y65692639D01*
X79109079Y65520738D01*
X79012604Y65331398D01*
X78946942Y65129310D01*
X78946942Y65129307D01*
X78936469Y65063180D01*
X79888422Y65063180D01*
X79844367Y64986874D01*
X79813700Y64872424D01*
X79813700Y64753936D01*
X79844367Y64639486D01*
X79888422Y64563180D01*
X78936469Y64563180D01*
X78946942Y64497054D01*
X78946942Y64497051D01*
X79012604Y64294963D01*
X79109079Y64105623D01*
X79233972Y63933721D01*
X79233976Y63933716D01*
X79384235Y63783457D01*
X79384240Y63783453D01*
X79556144Y63658558D01*
X79565748Y63653664D01*
X79616544Y63605689D01*
X79633338Y63537868D01*
X79610800Y63471733D01*
X79565748Y63432696D01*
X79556144Y63427803D01*
X79384240Y63302908D01*
X79384235Y63302904D01*
X79233976Y63152645D01*
X79233972Y63152640D01*
X79109079Y62980738D01*
X79012604Y62791398D01*
X78946942Y62589310D01*
X78946942Y62589307D01*
X78936469Y62523180D01*
X79888422Y62523180D01*
X79844367Y62446874D01*
X79813700Y62332424D01*
X79813700Y62213936D01*
X79844367Y62099486D01*
X79888422Y62023180D01*
X78936469Y62023180D01*
X78946942Y61957054D01*
X78946942Y61957051D01*
X79012604Y61754963D01*
X79109079Y61565623D01*
X79233972Y61393721D01*
X79233976Y61393716D01*
X79384235Y61243457D01*
X79384240Y61243453D01*
X79556144Y61118558D01*
X79565195Y61113946D01*
X79615992Y61065972D01*
X79632787Y60998151D01*
X79610250Y60932016D01*
X79565199Y60892978D01*
X79555882Y60888231D01*
X79383913Y60763290D01*
X79233590Y60612967D01*
X79108651Y60441001D01*
X79012144Y60251595D01*
X78946453Y60049420D01*
X78918857Y59875185D01*
X78913200Y59839467D01*
X78913200Y59626893D01*
X78920395Y59581469D01*
X78940128Y59456874D01*
X78946454Y59416937D01*
X79011814Y59215780D01*
X79012144Y59214766D01*
X79108651Y59025360D01*
X79233590Y58853394D01*
X79383913Y58703071D01*
X79555879Y58578132D01*
X79555881Y58578131D01*
X79555884Y58578129D01*
X79745288Y58481623D01*
X79947457Y58415934D01*
X80157413Y58382680D01*
X80157414Y58382680D01*
X80369986Y58382680D01*
X80369987Y58382680D01*
X80579943Y58415934D01*
X80782112Y58481623D01*
X80971516Y58578129D01*
X81027934Y58619119D01*
X81143486Y58703071D01*
X81143488Y58703074D01*
X81143492Y58703076D01*
X81293804Y58853388D01*
X81293806Y58853392D01*
X81293809Y58853394D01*
X81418748Y59025360D01*
X81418747Y59025360D01*
X81418751Y59025364D01*
X81515257Y59214768D01*
X81580946Y59416937D01*
X81602969Y59555980D01*
X81614200Y59626893D01*
X81614200Y59839467D01*
X81605781Y59892621D01*
X81580946Y60049423D01*
X81515257Y60251592D01*
X81418751Y60440996D01*
X81418749Y60440999D01*
X81418748Y60441001D01*
X81293809Y60612967D01*
X81143486Y60763290D01*
X80971517Y60888231D01*
X80962204Y60892976D01*
X80911407Y60940950D01*
X80894612Y61008771D01*
X80917149Y61074906D01*
X80962207Y61113948D01*
X80971258Y61118560D01*
X81143159Y61243453D01*
X81143164Y61243457D01*
X81293423Y61393716D01*
X81293427Y61393721D01*
X81418320Y61565623D01*
X81514795Y61754963D01*
X81580457Y61957051D01*
X81580457Y61957054D01*
X81590931Y62023180D01*
X80638978Y62023180D01*
X80683033Y62099486D01*
X80713700Y62213936D01*
X80713700Y62332424D01*
X80683033Y62446874D01*
X80638978Y62523180D01*
X81590931Y62523180D01*
X81580457Y62589307D01*
X81580457Y62589310D01*
X81514795Y62791398D01*
X81418320Y62980738D01*
X81293427Y63152640D01*
X81293423Y63152645D01*
X81143164Y63302904D01*
X81143159Y63302908D01*
X80971258Y63427801D01*
X80961654Y63432694D01*
X80910857Y63480668D01*
X80894061Y63548488D01*
X80916597Y63614624D01*
X80961654Y63653666D01*
X80971258Y63658560D01*
X81143159Y63783453D01*
X81143164Y63783457D01*
X81293423Y63933716D01*
X81293427Y63933721D01*
X81418320Y64105623D01*
X81514795Y64294963D01*
X81580457Y64497051D01*
X81580457Y64497054D01*
X81590931Y64563180D01*
X80638978Y64563180D01*
X80683033Y64639486D01*
X80713700Y64753936D01*
X80713700Y64872424D01*
X80683033Y64986874D01*
X80638978Y65063180D01*
X81590931Y65063180D01*
X81580457Y65129307D01*
X81580457Y65129310D01*
X81514795Y65331398D01*
X81418320Y65520738D01*
X81293427Y65692640D01*
X81293423Y65692645D01*
X81179753Y65806315D01*
X81146268Y65867638D01*
X81151252Y65937330D01*
X81193124Y65993263D01*
X81224100Y66010178D01*
X81356031Y66059384D01*
X81471246Y66145634D01*
X81557496Y66260849D01*
X81607791Y66395697D01*
X81612762Y66441938D01*
X81639499Y66506486D01*
X81696891Y66546334D01*
X81736051Y66552680D01*
X82127708Y66552680D01*
X82194747Y66532995D01*
X82240502Y66480191D01*
X82250446Y66411033D01*
X82250181Y66409282D01*
X82227600Y66266712D01*
X82227600Y66062009D01*
X82259622Y65859826D01*
X82322881Y65665137D01*
X82373676Y65565448D01*
X82409894Y65494366D01*
X82415815Y65482747D01*
X82536128Y65317147D01*
X82680886Y65172389D01*
X82794995Y65089486D01*
X82846490Y65052073D01*
X82962707Y64992857D01*
X83028876Y64959142D01*
X83028878Y64959142D01*
X83028881Y64959140D01*
X83133237Y64925233D01*
X83223565Y64895883D01*
X83307752Y64882549D01*
X83425748Y64863860D01*
X83425749Y64863860D01*
X83630451Y64863860D01*
X83630452Y64863860D01*
X83832634Y64895883D01*
X84027319Y64959140D01*
X84209710Y65052073D01*
X84302690Y65119628D01*
X84375313Y65172389D01*
X84375315Y65172392D01*
X84375319Y65172394D01*
X84520066Y65317141D01*
X84520068Y65317145D01*
X84520071Y65317147D01*
X84605673Y65434970D01*
X84640387Y65482750D01*
X84733320Y65665141D01*
X84796577Y65859826D01*
X84828600Y66062008D01*
X84828600Y66266712D01*
X84820145Y66320094D01*
X84796577Y66468895D01*
X84753030Y66602918D01*
X84733320Y66663579D01*
X84733318Y66663582D01*
X84733318Y66663584D01*
X84689566Y66749450D01*
X84640387Y66845970D01*
X84612736Y66884029D01*
X84520071Y67011574D01*
X84375313Y67156332D01*
X84209713Y67276645D01*
X84209712Y67276646D01*
X84209710Y67276647D01*
X84150979Y67306572D01*
X84027323Y67369579D01*
X83832634Y67432838D01*
X83670058Y67458587D01*
X83606923Y67488516D01*
X83601774Y67493379D01*
X83380755Y67714400D01*
X83234130Y67861027D01*
X83232499Y67863469D01*
X83120999Y67974969D01*
X83098281Y67990149D01*
X83090529Y67997537D01*
X83078194Y68018890D01*
X83062383Y68037809D01*
X83061026Y68048610D01*
X83055580Y68058038D01*
X83056747Y68082673D01*
X83053675Y68107134D01*
X83058372Y68116953D01*
X83058888Y68127829D01*
X83073188Y68147922D01*
X83083829Y68170162D01*
X83093089Y68175883D01*
X83099403Y68184753D01*
X83122295Y68193925D01*
X83143271Y68206881D01*
X83160397Y68209188D01*
X83164262Y68210736D01*
X83167402Y68210132D01*
X83176078Y68211300D01*
X85842138Y68211300D01*
X85909177Y68191615D01*
X85929818Y68174982D01*
X86027175Y68077624D01*
X86503855Y67600942D01*
X86537340Y67539619D01*
X86538647Y67493863D01*
X86533200Y67459472D01*
X86533200Y67459467D01*
X86533200Y67246893D01*
X86534456Y67238963D01*
X86563434Y67056000D01*
X86566454Y67036937D01*
X86630524Y66839750D01*
X86632144Y66834766D01*
X86728651Y66645360D01*
X86853590Y66473394D01*
X87003913Y66323071D01*
X87175882Y66198130D01*
X87184646Y66193664D01*
X87235442Y66145689D01*
X87252236Y66077868D01*
X87229698Y66011733D01*
X87184646Y65972696D01*
X87175882Y65968231D01*
X87003913Y65843290D01*
X86853590Y65692967D01*
X86728651Y65521001D01*
X86632144Y65331595D01*
X86566453Y65129420D01*
X86533200Y64919467D01*
X86533200Y64706894D01*
X86560128Y64536874D01*
X86566454Y64496937D01*
X86631268Y64297460D01*
X86632144Y64294766D01*
X86728651Y64105360D01*
X86853590Y63933394D01*
X87003913Y63783071D01*
X87175882Y63658130D01*
X87184646Y63653664D01*
X87235442Y63605689D01*
X87252236Y63537868D01*
X87229698Y63471733D01*
X87184646Y63432696D01*
X87175882Y63428231D01*
X87003913Y63303290D01*
X86853590Y63152967D01*
X86728651Y62981001D01*
X86632144Y62791595D01*
X86566453Y62589420D01*
X86560074Y62549142D01*
X86533200Y62379467D01*
X86533200Y62166893D01*
X86534988Y62155607D01*
X86560476Y61994676D01*
X86566454Y61956937D01*
X86631268Y61757460D01*
X86632144Y61754766D01*
X86728651Y61565360D01*
X86853590Y61393394D01*
X87003913Y61243071D01*
X87175879Y61118132D01*
X87175881Y61118131D01*
X87175884Y61118129D01*
X87185193Y61113386D01*
X87235990Y61065414D01*
X87252787Y60997593D01*
X87230252Y60931458D01*
X87185202Y60892418D01*
X87176143Y60887802D01*
X87004240Y60762908D01*
X87004235Y60762904D01*
X86853976Y60612645D01*
X86853972Y60612640D01*
X86729079Y60440738D01*
X86632604Y60251398D01*
X86566942Y60049310D01*
X86566942Y60049307D01*
X86556469Y59983180D01*
X87508422Y59983180D01*
X87464367Y59906874D01*
X87433700Y59792424D01*
X87433700Y59673936D01*
X87464367Y59559486D01*
X87508422Y59483180D01*
X86556469Y59483180D01*
X86566942Y59417054D01*
X86566942Y59417051D01*
X86632604Y59214963D01*
X86729079Y59025623D01*
X86853972Y58853721D01*
X86853976Y58853716D01*
X87004235Y58703457D01*
X87004240Y58703453D01*
X87176142Y58578560D01*
X87365482Y58482085D01*
X87567571Y58416423D01*
X87633700Y58405949D01*
X87633700Y59357903D01*
X87710006Y59313847D01*
X87824456Y59283180D01*
X87942944Y59283180D01*
X88057394Y59313847D01*
X88133700Y59357903D01*
X88133700Y58405950D01*
X88199826Y58416423D01*
X88199829Y58416423D01*
X88401917Y58482085D01*
X88591257Y58578560D01*
X88763159Y58703453D01*
X88763164Y58703457D01*
X88913423Y58853716D01*
X88913427Y58853721D01*
X89038320Y59025623D01*
X89134795Y59214963D01*
X89200457Y59417051D01*
X89200457Y59417054D01*
X89210931Y59483180D01*
X88258978Y59483180D01*
X88303033Y59559486D01*
X88333700Y59673936D01*
X88333700Y59792424D01*
X88303033Y59906874D01*
X88258978Y59983180D01*
X89210931Y59983180D01*
X89200457Y60049307D01*
X89200457Y60049310D01*
X89134795Y60251398D01*
X89038320Y60440738D01*
X88913427Y60612640D01*
X88913423Y60612645D01*
X88763164Y60762904D01*
X88763159Y60762908D01*
X88591255Y60887803D01*
X88582200Y60892417D01*
X88531406Y60940392D01*
X88514612Y61008214D01*
X88537151Y61074348D01*
X88582208Y61113387D01*
X88591516Y61118129D01*
X88670707Y61175665D01*
X88763486Y61243071D01*
X88763488Y61243074D01*
X88763492Y61243076D01*
X88913804Y61393388D01*
X88934277Y61421567D01*
X88989606Y61464231D01*
X89034594Y61472680D01*
X89588840Y61472680D01*
X89655879Y61452995D01*
X89676521Y61436361D01*
X90983351Y60129532D01*
X91016836Y60068209D01*
X91019670Y60041851D01*
X91019670Y59876368D01*
X91050460Y59681964D01*
X91111287Y59494761D01*
X91150941Y59416937D01*
X91200646Y59319385D01*
X91316342Y59160144D01*
X91316344Y59160142D01*
X91421409Y59055077D01*
X91454894Y58993754D01*
X91449910Y58924062D01*
X91421410Y58879715D01*
X91278197Y58736502D01*
X91157885Y58570904D01*
X91064951Y58388514D01*
X91001692Y58193825D01*
X90976249Y58033179D01*
X90969670Y57991642D01*
X90969670Y57786938D01*
X90970845Y57779519D01*
X91001692Y57584756D01*
X91064951Y57390067D01*
X91157885Y57207677D01*
X91278198Y57042077D01*
X91422956Y56897319D01*
X91535767Y56815359D01*
X91588560Y56777003D01*
X91703592Y56718391D01*
X91770946Y56684072D01*
X91770948Y56684072D01*
X91770951Y56684070D01*
X91875307Y56650163D01*
X91965635Y56620813D01*
X92066727Y56604802D01*
X92167818Y56588790D01*
X92167819Y56588790D01*
X92372521Y56588790D01*
X92372522Y56588790D01*
X92574704Y56620813D01*
X92769389Y56684070D01*
X92951780Y56777003D01*
X93070153Y56863005D01*
X93117383Y56897319D01*
X93117385Y56897322D01*
X93117389Y56897324D01*
X93262136Y57042071D01*
X93262138Y57042075D01*
X93262141Y57042077D01*
X93360227Y57177083D01*
X93382457Y57207680D01*
X93475390Y57390071D01*
X93538647Y57584756D01*
X93570670Y57786938D01*
X93570670Y57991642D01*
X93553349Y58101000D01*
X93538647Y58193825D01*
X93497451Y58320612D01*
X93475390Y58388509D01*
X93475388Y58388512D01*
X93475388Y58388514D01*
X93420773Y58495700D01*
X93382457Y58570900D01*
X93382456Y58570902D01*
X93262141Y58736504D01*
X93118930Y58879715D01*
X93085445Y58941038D01*
X93090429Y59010730D01*
X93118926Y59055073D01*
X93129633Y59065780D01*
X95311646Y59065780D01*
X96221944Y59065780D01*
X96217550Y59061386D01*
X96164889Y58970174D01*
X96137630Y58868441D01*
X96137630Y58763119D01*
X96164889Y58661386D01*
X96217550Y58570174D01*
X96221944Y58565780D01*
X95311646Y58565780D01*
X95318411Y58523064D01*
X95379211Y58335943D01*
X95468534Y58160637D01*
X95584185Y58001459D01*
X95723308Y57862336D01*
X95882486Y57746685D01*
X96057792Y57657362D01*
X96244913Y57596562D01*
X96287630Y57589796D01*
X96287630Y58500094D01*
X96292024Y58495700D01*
X96383236Y58443039D01*
X96484969Y58415780D01*
X96590291Y58415780D01*
X96692024Y58443039D01*
X96783236Y58495700D01*
X96787630Y58500094D01*
X96787630Y57589797D01*
X96830346Y57596562D01*
X97017467Y57657362D01*
X97192773Y57746685D01*
X97351951Y57862336D01*
X97491074Y58001459D01*
X97606725Y58160637D01*
X97696048Y58335943D01*
X97756848Y58523064D01*
X97763614Y58565780D01*
X96853316Y58565780D01*
X96857710Y58570174D01*
X96910371Y58661386D01*
X96937630Y58763119D01*
X96937630Y58868441D01*
X96910371Y58970174D01*
X96857710Y59061386D01*
X96853316Y59065780D01*
X97763614Y59065780D01*
X97756848Y59108497D01*
X97696048Y59295618D01*
X97606725Y59470924D01*
X97491074Y59630102D01*
X97351951Y59769225D01*
X97192773Y59884876D01*
X97017465Y59974199D01*
X96830335Y60035002D01*
X96787630Y60041766D01*
X96787630Y59131466D01*
X96783236Y59135860D01*
X96692024Y59188521D01*
X96590291Y59215780D01*
X96484969Y59215780D01*
X96383236Y59188521D01*
X96292024Y59135860D01*
X96287630Y59131466D01*
X96287630Y60041766D01*
X96287629Y60041766D01*
X96244924Y60035002D01*
X96057794Y59974199D01*
X95882486Y59884876D01*
X95723308Y59769225D01*
X95584185Y59630102D01*
X95468534Y59470924D01*
X95379211Y59295618D01*
X95318411Y59108497D01*
X95311646Y59065780D01*
X93129633Y59065780D01*
X93223998Y59160144D01*
X93339694Y59319385D01*
X93429054Y59494765D01*
X93489879Y59681964D01*
X93507739Y59794728D01*
X93520670Y59876368D01*
X93520670Y60073213D01*
X93489879Y60267617D01*
X93442197Y60414366D01*
X93429054Y60454815D01*
X93429052Y60454818D01*
X93429052Y60454820D01*
X93370403Y60569924D01*
X93339694Y60630195D01*
X93223998Y60789436D01*
X93084816Y60928618D01*
X92925575Y61044314D01*
X92750199Y61133673D01*
X92562996Y61194500D01*
X92368592Y61225290D01*
X92368587Y61225290D01*
X92203109Y61225290D01*
X92136070Y61244975D01*
X92115428Y61261609D01*
X90482072Y62894967D01*
X90482068Y62894970D01*
X90350965Y62982571D01*
X90350952Y62982578D01*
X90205281Y63042916D01*
X90205269Y63042919D01*
X90050625Y63073680D01*
X90050622Y63073680D01*
X89034594Y63073680D01*
X88967555Y63093365D01*
X88934277Y63124793D01*
X88913804Y63152972D01*
X88763492Y63303284D01*
X88763486Y63303290D01*
X88591520Y63428229D01*
X88590815Y63428589D01*
X88582754Y63432695D01*
X88531959Y63480668D01*
X88515163Y63548488D01*
X88537699Y63614624D01*
X88582754Y63653665D01*
X88591516Y63658129D01*
X88651651Y63701819D01*
X88763486Y63783071D01*
X88763488Y63783074D01*
X88763492Y63783076D01*
X88901258Y63920842D01*
X88962581Y63954327D01*
X89032273Y63949343D01*
X89076620Y63920842D01*
X89372751Y63624711D01*
X89435839Y63561623D01*
X89484252Y63513210D01*
X89604750Y63432696D01*
X89615361Y63425606D01*
X89718373Y63382938D01*
X89761042Y63365263D01*
X89915692Y63334501D01*
X89915695Y63334500D01*
X89915697Y63334500D01*
X94315694Y63334500D01*
X94315695Y63334501D01*
X94470347Y63365263D01*
X94616029Y63425606D01*
X94747139Y63513211D01*
X96382887Y65148962D01*
X96444210Y65182446D01*
X96470568Y65185280D01*
X96604690Y65185280D01*
X96671729Y65165595D01*
X96692371Y65148961D01*
X97058117Y64783214D01*
X97058121Y64783211D01*
X97189224Y64695610D01*
X97189237Y64695603D01*
X97334908Y64635265D01*
X97334913Y64635263D01*
X97489563Y64604501D01*
X97489566Y64604500D01*
X97489568Y64604500D01*
X97647252Y64604500D01*
X99304892Y64604500D01*
X99371931Y64584815D01*
X99417686Y64532011D01*
X99427630Y64462853D01*
X99415377Y64424205D01*
X99378781Y64352384D01*
X99315522Y64157695D01*
X99283500Y63955512D01*
X99283500Y63750809D01*
X99315522Y63548626D01*
X99378781Y63353937D01*
X99471715Y63171547D01*
X99592028Y63005947D01*
X99736786Y62861189D01*
X99854545Y62775634D01*
X99902390Y62740873D01*
X99997302Y62692513D01*
X100084776Y62647942D01*
X100084778Y62647942D01*
X100084781Y62647940D01*
X100129931Y62633270D01*
X100279465Y62584683D01*
X100380557Y62568672D01*
X100481648Y62552660D01*
X100481649Y62552660D01*
X100686351Y62552660D01*
X100686352Y62552660D01*
X100888534Y62584683D01*
X100893609Y62586333D01*
X100963447Y62588329D01*
X101019609Y62556083D01*
X101216640Y62359052D01*
X101216650Y62359041D01*
X101332477Y62243214D01*
X101332481Y62243211D01*
X101463584Y62155610D01*
X101463588Y62155608D01*
X101463591Y62155606D01*
X101585068Y62105289D01*
X101585071Y62105288D01*
X101585072Y62105287D01*
X101603841Y62097513D01*
X101609273Y62095263D01*
X101609277Y62095263D01*
X101609278Y62095262D01*
X101763924Y62064500D01*
X101763927Y62064500D01*
X101763928Y62064500D01*
X101789900Y62064500D01*
X101856939Y62044815D01*
X101902694Y61992011D01*
X101912638Y61922853D01*
X101883613Y61859297D01*
X101877581Y61852819D01*
X95910751Y55885989D01*
X95849428Y55852504D01*
X95823070Y55849670D01*
X89055343Y55849670D01*
X88900700Y55818910D01*
X88900692Y55818908D01*
X88755014Y55758566D01*
X88755004Y55758561D01*
X88623901Y55670960D01*
X88623897Y55670957D01*
X87764761Y54811819D01*
X87703438Y54778334D01*
X87677080Y54775500D01*
X80913180Y54775500D01*
X80846141Y54795185D01*
X80825499Y54811819D01*
X78390179Y57247139D01*
X78356694Y57308462D01*
X78353860Y57334820D01*
X78353860Y59908756D01*
X78353861Y59908761D01*
X78353860Y60026167D01*
X78353860Y60066432D01*
X78353859Y60066438D01*
X78353859Y60066446D01*
X78336693Y60152734D01*
X78323457Y60219276D01*
X78323149Y60220963D01*
X78323145Y60220974D01*
X78322844Y60221702D01*
X78322843Y60221703D01*
X78317072Y60235634D01*
X78293254Y60293134D01*
X78266250Y60358328D01*
X78265548Y60360458D01*
X78263391Y60365327D01*
X78263391Y60365328D01*
X78262783Y60366699D01*
X78262754Y60366769D01*
X78262748Y60366777D01*
X78262747Y60366781D01*
X78262745Y60366783D01*
X78262559Y60367204D01*
X78260885Y60369568D01*
X78213153Y60441001D01*
X78203923Y60454815D01*
X78175149Y60497879D01*
X78175147Y60497881D01*
X78175143Y60497887D01*
X78148455Y60524574D01*
X78103104Y60569924D01*
X78063649Y60609379D01*
X78063646Y60609381D01*
X78059319Y60613708D01*
X78059308Y60613718D01*
X76608478Y62064500D01*
X76608478Y62064501D01*
X76608476Y62064502D01*
X76553930Y62119048D01*
X76553914Y62119062D01*
X76499219Y62155605D01*
X76499216Y62155608D01*
X76499216Y62155607D01*
X76424041Y62205838D01*
X76424038Y62205839D01*
X76422819Y62206654D01*
X76422811Y62206658D01*
X76422807Y62206660D01*
X76347819Y62237720D01*
X76347659Y62237787D01*
X76277764Y62266738D01*
X76277187Y62266982D01*
X76277125Y62267001D01*
X76199140Y62282512D01*
X76199139Y62282513D01*
X76199136Y62282513D01*
X76122480Y62297761D01*
X76122469Y62297761D01*
X76050196Y62297761D01*
X76043625Y62297760D01*
X73822202Y62297760D01*
X66814908Y62297760D01*
X66753384Y62285523D01*
X66753382Y62285523D01*
X66660253Y62266998D01*
X66658748Y62266483D01*
X66656186Y62265313D01*
X66514573Y62206656D01*
X66514564Y62206651D01*
X66378396Y62115665D01*
X66376978Y62117786D01*
X66322898Y62094831D01*
X66254033Y62106637D01*
X66202483Y62153800D01*
X66184570Y62218000D01*
X66184570Y63472013D01*
X66184442Y63472654D01*
X66184178Y63473981D01*
X66153807Y63626667D01*
X66150464Y63634738D01*
X66142624Y63653666D01*
X66093467Y63772343D01*
X66093460Y63772356D01*
X66005859Y63903459D01*
X66005856Y63903463D01*
X65890045Y64019274D01*
X65890022Y64019295D01*
X65797468Y64111850D01*
X65763984Y64173174D01*
X65761150Y64199531D01*
X65761150Y65949790D01*
X65780835Y66016829D01*
X65812262Y66050107D01*
X65905587Y66117911D01*
X66067029Y66279353D01*
X66130642Y66366910D01*
X66185969Y66409573D01*
X66255583Y66415552D01*
X66317378Y66382947D01*
X66331276Y66366908D01*
X66394654Y66279677D01*
X66394654Y66279676D01*
X66556035Y66118295D01*
X66740683Y65984140D01*
X66944045Y65880521D01*
X67161105Y65809995D01*
X67250650Y65795812D01*
X67250650Y66783543D01*
X67288358Y66761772D01*
X67428241Y66724290D01*
X67573059Y66724290D01*
X67712942Y66761772D01*
X67750650Y66783543D01*
X67750650Y65795813D01*
X67840194Y65809995D01*
X68057254Y65880521D01*
X68260616Y65984140D01*
X68445264Y66118295D01*
X68606645Y66279676D01*
X68606650Y66279682D01*
X68670023Y66366907D01*
X68725352Y66409573D01*
X68794966Y66415552D01*
X68856761Y66382947D01*
X68870653Y66366915D01*
X68934271Y66279353D01*
X69095713Y66117911D01*
X69280422Y65983711D01*
X69316185Y65965489D01*
X69483846Y65880061D01*
X69483848Y65880061D01*
X69483851Y65880059D01*
X69546122Y65859826D01*
X69700989Y65809506D01*
X69926488Y65773790D01*
X69926493Y65773790D01*
X70154812Y65773790D01*
X70380310Y65809506D01*
X70381815Y65809995D01*
X70597449Y65880059D01*
X70800878Y65983711D01*
X70985587Y66117911D01*
X71147029Y66279353D01*
X71251160Y66422677D01*
X71306491Y66465341D01*
X71351478Y66473790D01*
X74338134Y66473790D01*
X74338135Y66473791D01*
X74492787Y66504553D01*
X74638469Y66564896D01*
X74769579Y66652501D01*
X76292059Y68174981D01*
X76353382Y68208466D01*
X76379740Y68211300D01*
X78789200Y68211300D01*
X78856239Y68191615D01*
G37*
G04 #@! TD.AperFunction*
G04 #@! TA.AperFunction,Conductor*
G36*
X80513700Y62648458D02*
G01*
X80437394Y62692513D01*
X80322944Y62723180D01*
X80204456Y62723180D01*
X80090006Y62692513D01*
X80013700Y62648458D01*
X80013700Y64437903D01*
X80090006Y64393847D01*
X80204456Y64363180D01*
X80322944Y64363180D01*
X80437394Y64393847D01*
X80513700Y64437903D01*
X80513700Y62648458D01*
G37*
G04 #@! TD.AperFunction*
G04 #@! TD*
M02*
